{"glyphs":{"0":{"ha":2144,"x_min":96,"x_max":2048,"o":"m 96 438 q 134 279 96 349 q 239 156 172 209 q 398 66 306 103 q 598 6 490 29 q 827 -28 707 -18 q 1072 -39 947 -39 q 1316 -28 1196 -39 q 1546 6 1437 -18 q 1746 66 1654 29 q 1905 156 1838 103 q 2010 279 1972 209 q 2048 438 2048 349 q 2010 597 2048 527 q 1905 720 1972 667 q 1746 809 1838 772 q 1546 869 1654 846 q 1316 903 1437 892 q 1072 913 1196 913 q 827 903 947 913 q 598 869 707 892 q 398 809 490 846 q 239 720 306 772 q 134 597 172 667 q 96 438 96 527 m 898 436 q 901 512 898 469 q 911 598 903 554 q 930 686 918 643 q 961 762 943 728 q 1006 816 980 795 q 1067 837 1032 837 q 1129 818 1102 837 q 1176 766 1156 798 q 1209 692 1196 734 q 1231 606 1223 651 q 1242 517 1239 562 q 1246 436 1246 473 q 1242 355 1246 399 q 1231 267 1239 311 q 1209 181 1223 222 q 1176 108 1196 140 q 1129 57 1156 77 q 1067 38 1102 38 q 1006 57 1032 38 q 961 108 980 77 q 930 181 943 140 q 911 267 918 222 q 901 355 903 311 q 898 436 898 399 "},"1":{"ha":1515,"x_min":47,"x_max":1498,"o":"m 47 64 l 47 0 l 1498 0 l 1498 64 q 1374 75 1428 66 q 1283 104 1321 85 q 1219 152 1244 123 q 1180 224 1194 182 q 1159 323 1165 267 q 1154 453 1154 380 l 1154 883 l 1048 913 q 967 895 1016 905 q 857 876 918 886 q 728 856 797 866 q 587 837 659 846 q 444 820 515 828 q 308 807 373 812 q 187 798 243 801 q 90 794 131 794 l 90 712 q 281 688 206 711 q 400 624 357 665 q 461 529 444 584 q 478 408 478 473 q 457 254 478 317 q 385 149 435 190 q 252 87 334 108 q 47 64 170 67 "},"2":{"ha":2182,"x_min":153,"x_max":2036,"o":"m 153 123 q 170 46 153 79 q 216 -9 186 13 q 283 -42 245 -31 q 363 -54 321 -54 q 416 -45 391 -54 q 459 -24 441 -37 q 488 7 477 -10 q 499 42 499 24 q 486 78 499 60 l 503 78 q 663 68 576 78 q 844 43 749 58 q 1038 12 939 28 q 1236 -20 1137 -5 q 1429 -45 1335 -35 q 1609 -55 1524 -55 q 1775 -43 1697 -55 q 1911 0 1853 -31 q 2002 83 1969 31 q 2036 217 2036 136 q 2025 281 2036 252 q 1997 332 2013 310 q 1961 370 1980 355 q 1925 395 1942 386 q 1869 339 1915 363 q 1750 298 1822 315 q 1585 274 1678 282 q 1388 266 1492 266 q 1257 267 1323 266 q 1122 267 1190 267 q 633 238 826 267 q 356 138 440 208 q 354 161 354 149 q 384 228 354 196 q 479 283 413 259 q 651 324 545 308 q 910 346 758 340 q 1393 374 1189 355 q 1731 427 1598 393 q 1929 515 1864 462 q 1994 647 1994 569 q 1961 735 1994 697 q 1874 802 1929 774 q 1747 849 1819 830 q 1597 881 1675 869 q 1438 901 1518 894 q 1288 910 1358 907 q 1161 914 1217 913 q 1073 915 1105 915 q 856 908 961 915 q 657 887 750 901 q 487 852 564 873 q 353 806 409 832 q 267 750 298 781 q 236 683 236 719 q 266 600 236 634 q 346 543 296 565 q 459 510 395 520 q 589 499 522 499 q 722 510 659 499 q 832 542 785 521 q 906 591 879 562 q 934 657 934 621 q 919 710 934 684 q 868 756 904 736 q 771 790 832 777 q 619 808 711 804 q 669 812 640 810 q 732 817 699 815 q 799 821 765 819 q 861 822 832 822 q 1028 809 954 822 q 1152 771 1101 795 q 1229 713 1202 747 q 1255 635 1255 678 q 1228 562 1255 593 q 1146 508 1200 531 q 1014 470 1093 486 q 831 444 935 454 q 536 402 663 427 q 324 340 410 378 q 196 249 239 302 q 153 123 153 196 "},"3":{"ha":2203,"x_min":136,"x_max":2105,"o":"m 136 164 q 171 101 136 130 q 265 50 205 72 q 409 11 326 27 q 589 -17 492 -6 q 795 -33 687 -28 q 1016 -39 904 -39 q 1312 -35 1171 -39 q 1574 -20 1453 -31 q 1793 9 1695 -9 q 1960 55 1891 27 q 2067 123 2030 83 q 2105 215 2105 162 q 2057 312 2105 273 q 1917 376 2009 351 q 1689 413 1824 401 q 1377 431 1553 426 q 1653 457 1536 440 q 1847 504 1770 475 q 1961 574 1923 532 q 1998 673 1998 616 q 1965 748 1998 714 q 1872 809 1931 782 q 1733 855 1813 836 q 1557 888 1652 875 q 1357 907 1462 901 q 1143 913 1251 913 q 919 907 1031 913 q 705 887 807 900 q 515 855 603 874 q 363 810 427 836 q 261 755 298 785 q 224 688 224 724 q 255 605 224 640 q 334 548 285 570 q 447 515 384 526 q 577 505 511 505 q 711 515 648 505 q 821 547 774 526 q 895 597 867 568 q 922 663 922 626 q 908 715 922 690 q 857 762 893 741 q 760 796 821 782 q 608 813 700 810 q 665 817 631 814 q 742 822 700 819 q 831 828 783 825 q 928 830 879 830 q 1059 823 994 830 q 1174 797 1123 816 q 1255 743 1224 777 q 1286 654 1286 708 q 1178 512 1286 564 q 849 460 1069 460 l 849 395 q 1048 380 965 394 q 1183 343 1131 366 q 1259 288 1235 319 q 1284 220 1284 256 q 1267 159 1284 185 q 1222 114 1251 133 q 1154 82 1193 95 q 1068 63 1114 70 q 971 53 1022 56 q 869 50 920 50 q 768 52 818 50 q 673 56 718 54 q 588 62 627 59 q 519 67 549 65 q 669 80 606 68 q 775 111 733 92 q 838 152 817 129 q 859 199 859 175 q 836 248 859 224 q 769 291 813 272 q 659 321 724 310 q 507 333 593 333 q 418 328 463 333 q 332 314 373 323 q 255 291 290 305 q 193 258 219 277 q 151 216 166 239 q 136 164 136 193 "},"4":{"ha":2176,"x_min":35,"x_max":2051,"o":"m 35 357 l 35 271 l 873 271 q 821 173 857 212 q 732 110 785 134 q 609 77 679 87 q 457 64 540 66 l 457 0 l 2030 0 l 2030 64 q 1918 68 1968 66 q 1829 78 1868 71 q 1761 98 1790 85 q 1712 133 1732 111 q 1679 188 1691 155 q 1662 271 1667 222 l 2051 271 l 2051 357 l 1657 357 l 1657 899 l 833 899 q 804 861 833 887 q 728 798 776 834 q 618 720 681 762 q 488 633 556 677 q 351 546 420 589 q 221 465 282 503 q 111 400 159 428 q 35 357 62 372 m 413 377 q 428 421 413 395 q 469 478 444 448 q 528 542 494 509 q 600 607 562 575 q 675 667 637 639 q 749 718 714 696 q 814 752 785 739 q 863 764 844 764 q 885 748 885 764 l 885 370 q 885 363 885 367 q 884 357 884 360 l 444 357 q 420 363 427 358 q 413 377 413 368 "},"5":{"ha":2116,"x_min":106,"x_max":2009,"o":"m 106 171 q 146 97 106 129 q 256 41 186 64 q 422 2 326 18 q 630 -22 518 -13 q 866 -35 743 -31 q 1116 -39 989 -39 q 1342 -30 1231 -39 q 1553 -3 1453 -21 q 1736 41 1652 14 q 1880 102 1820 67 q 1975 181 1941 138 q 2009 278 2009 225 q 1961 395 2009 345 q 1807 477 1912 444 q 1535 525 1702 509 q 1132 541 1369 541 q 932 537 1036 541 q 727 524 829 534 q 528 498 625 515 q 347 458 431 482 q 353 495 350 474 q 359 539 356 516 q 364 588 361 563 q 370 638 367 614 q 433 656 399 650 q 502 667 467 663 q 570 672 536 671 q 633 673 604 673 q 849 662 738 673 q 1079 636 960 650 q 1325 611 1198 623 q 1588 600 1452 600 q 1817 655 1744 600 q 1891 817 1891 709 q 1885 876 1891 846 q 1866 938 1879 905 q 1806 905 1841 918 q 1732 884 1771 892 q 1651 872 1693 876 q 1573 869 1610 869 q 1453 873 1524 869 q 1298 882 1383 877 q 1118 890 1213 886 q 925 895 1023 895 q 827 892 878 895 q 727 883 777 889 q 628 868 677 877 q 533 845 578 859 q 449 815 488 832 q 380 777 410 798 q 380 782 380 779 q 380 786 380 784 q 377 820 380 803 q 364 850 374 837 q 338 871 355 863 q 296 879 322 879 q 287 878 290 879 q 280 877 283 878 q 271 874 276 876 q 258 870 267 872 q 256 763 258 825 q 248 637 253 702 q 233 512 242 573 q 212 407 224 451 l 313 374 q 394 395 343 383 q 506 416 445 406 q 634 434 568 427 q 762 441 701 441 q 881 437 823 441 q 990 424 939 433 q 1085 400 1042 415 q 1159 364 1128 386 q 1208 312 1191 342 q 1225 243 1225 282 q 1203 181 1225 210 q 1142 130 1181 153 q 1050 91 1103 107 q 936 63 997 74 q 809 46 876 52 q 677 41 743 41 q 623 43 650 41 q 570 48 595 45 q 520 55 544 52 q 475 60 496 58 q 626 74 562 62 q 732 104 690 85 q 794 145 774 122 q 815 192 815 168 q 792 241 815 217 q 725 284 770 265 q 614 315 680 303 q 463 326 549 326 q 321 316 387 326 q 208 286 256 306 q 133 237 160 266 q 106 171 106 208 "},"6":{"ha":2216,"x_min":132,"x_max":2104,"o":"m 132 431 q 174 262 132 334 q 289 137 216 189 q 460 52 361 85 q 671 -2 558 18 q 905 -30 783 -22 q 1145 -38 1026 -38 q 1397 -30 1276 -38 q 1625 -7 1518 -22 q 1820 33 1731 9 q 1971 90 1908 57 q 2069 164 2034 123 q 2104 256 2104 205 q 2053 377 2104 326 q 1913 462 2003 429 q 1698 511 1824 495 q 1424 528 1573 528 q 1270 522 1342 528 q 1135 506 1198 516 q 1014 482 1071 496 q 904 451 957 468 q 922 605 905 541 q 968 713 939 669 q 1037 783 998 757 q 1119 823 1076 809 q 1208 841 1162 837 q 1297 846 1254 846 q 1336 844 1315 846 q 1380 840 1358 843 q 1426 833 1403 837 q 1468 823 1448 829 q 1364 812 1409 823 q 1289 785 1319 802 q 1243 746 1259 768 q 1227 701 1227 724 q 1256 653 1227 675 q 1339 614 1285 631 q 1469 587 1392 597 q 1643 576 1546 576 q 1780 584 1714 576 q 1897 609 1846 592 q 1978 652 1948 626 q 2009 714 2009 678 q 1981 770 2009 744 q 1902 818 1953 796 q 1778 858 1851 840 q 1616 888 1706 876 q 1423 906 1527 900 q 1204 913 1319 913 q 1009 906 1107 913 q 818 886 911 900 q 637 852 724 873 q 474 803 550 831 q 335 736 397 774 q 227 653 272 699 q 157 551 182 607 q 132 431 132 496 m 905 380 q 1000 407 948 395 q 1107 418 1051 418 q 1206 408 1158 418 q 1292 373 1254 397 q 1352 312 1329 349 q 1375 221 1375 274 q 1353 131 1375 166 q 1296 75 1330 96 q 1223 46 1262 54 q 1152 39 1185 39 q 1097 42 1124 39 q 1043 57 1069 45 q 993 91 1017 68 q 951 151 970 113 q 921 245 933 189 q 905 380 909 301 "},"7":{"ha":2030,"x_min":53,"x_max":1950,"o":"m 218 424 l 276 424 q 313 514 276 477 q 436 574 350 551 q 661 607 522 597 q 1006 617 801 617 q 1176 620 1090 617 q 1344 629 1261 623 q 1506 644 1428 635 q 1652 664 1584 652 q 1777 688 1721 675 q 1872 718 1833 702 q 1806 619 1854 660 q 1688 549 1757 578 q 1533 501 1618 520 q 1354 467 1447 481 q 1165 440 1261 452 q 980 413 1069 428 q 812 378 891 398 q 675 329 734 359 q 584 257 617 299 q 550 155 550 215 q 566 85 550 116 q 612 32 583 55 q 681 -6 641 9 q 767 -31 720 -22 q 866 -45 814 -41 q 971 -49 918 -49 q 1137 -32 1063 -49 q 1264 14 1211 -15 q 1349 79 1317 42 q 1389 157 1381 116 q 1426 245 1398 208 q 1496 310 1455 281 q 1586 361 1537 338 q 1686 409 1636 384 q 1784 466 1737 435 q 1868 540 1832 496 q 1927 644 1905 584 q 1950 787 1950 703 l 1950 919 q 1703 883 1826 898 q 1455 868 1580 868 q 1221 879 1333 868 q 999 902 1109 890 q 778 926 889 915 q 547 937 667 937 q 314 921 409 937 q 162 873 220 906 q 78 787 104 840 q 53 661 53 735 q 70 585 53 623 q 112 515 87 547 q 166 458 137 482 q 218 424 195 434 "},"8":{"ha":2120,"x_min":169,"x_max":2040,"o":"m 169 152 q 194 100 169 123 q 263 58 219 77 q 367 25 307 39 q 495 -1 426 10 q 638 -19 564 -12 q 788 -30 713 -26 q 933 -37 862 -35 q 1065 -39 1004 -39 q 1498 -16 1315 -39 q 1802 46 1682 7 q 1981 137 1923 85 q 2040 247 2040 189 q 2001 362 2040 311 q 1896 453 1963 413 q 1739 522 1829 492 q 1546 572 1649 551 q 1663 591 1607 577 q 1762 625 1719 605 q 1830 669 1805 644 q 1855 722 1855 694 q 1819 781 1855 755 q 1721 825 1782 806 q 1578 857 1659 844 q 1407 878 1497 870 q 1226 889 1318 886 q 1052 892 1135 892 q 831 885 939 892 q 629 863 724 878 q 455 825 534 848 q 318 770 376 802 q 229 698 261 739 q 197 609 197 658 q 226 510 197 554 q 303 430 254 465 q 416 368 351 395 q 552 321 480 341 q 408 302 477 314 q 286 271 339 290 q 201 222 233 252 q 169 152 169 193 m 852 766 q 876 799 853 787 q 933 816 899 810 q 1008 823 967 821 q 1086 824 1048 824 q 1266 816 1185 824 q 1403 792 1346 808 q 1490 751 1459 776 q 1520 691 1520 726 q 1454 588 1516 617 q 1409 594 1432 591 q 1363 601 1386 597 q 1146 632 1241 616 q 986 668 1051 649 q 887 712 921 688 q 852 766 852 736 m 543 178 q 552 221 544 201 q 574 257 561 241 q 604 283 587 273 q 637 299 621 294 q 715 282 676 290 q 793 269 754 274 q 1042 229 935 248 q 1220 193 1149 211 q 1328 154 1292 174 q 1363 110 1363 134 q 1335 69 1362 84 q 1266 46 1308 54 q 1172 36 1224 39 q 1069 34 1120 34 q 843 42 941 34 q 678 68 745 51 q 577 113 611 86 q 543 178 543 140 "},"9":{"ha":2216,"x_min":112,"x_max":2083,"o":"m 205 147 q 258 65 205 100 q 406 7 311 31 q 635 -27 502 -16 q 928 -38 768 -38 q 1241 -26 1092 -38 q 1518 9 1390 -15 q 1751 72 1647 34 q 1929 164 1855 111 q 2043 287 2003 218 q 2083 444 2083 357 q 2042 613 2083 541 q 1929 738 2001 686 q 1760 823 1857 789 q 1550 877 1662 857 q 1317 905 1438 897 q 1077 913 1196 913 q 812 905 938 913 q 580 882 687 897 q 386 842 473 866 q 238 785 299 818 q 145 711 178 752 q 112 618 112 669 q 162 495 112 549 q 302 406 212 442 q 517 352 393 370 q 791 334 642 334 q 952 339 879 334 q 1089 354 1025 345 q 1207 377 1152 363 q 1311 406 1261 390 q 1288 255 1310 317 q 1233 150 1267 192 q 1158 84 1200 109 q 1076 48 1117 60 q 997 32 1034 35 q 936 29 960 29 q 897 31 918 29 q 851 35 875 32 q 805 42 828 38 q 761 52 781 46 q 865 61 820 52 q 941 86 910 71 q 987 123 971 102 q 1002 168 1002 144 q 974 214 1002 193 q 891 251 945 235 q 760 276 837 267 q 586 285 683 285 q 447 277 515 285 q 325 252 378 269 q 238 209 271 235 q 205 147 205 183 m 840 640 q 864 733 840 695 q 923 793 888 770 q 998 826 958 816 q 1071 836 1038 836 q 1160 823 1118 836 q 1234 772 1202 810 q 1286 664 1265 734 q 1310 480 1306 594 q 1216 454 1267 465 q 1109 443 1164 443 q 1010 454 1059 443 q 924 488 962 465 q 863 550 886 512 q 840 640 840 587 "}," ":{"ha":600,"x_min":0,"x_max":0,"o":""},"!":{"ha":779,"x_min":48,"x_max":730,"o":"m 311 501 q 333 461 311 473 q 389 448 355 448 q 420 451 406 448 q 445 461 435 454 q 462 477 456 467 q 468 501 468 487 q 487 584 468 545 q 536 659 507 623 q 599 728 565 694 q 663 794 633 761 q 711 862 692 827 q 730 933 730 896 q 703 1031 730 991 q 628 1094 675 1070 q 519 1129 581 1118 q 389 1139 457 1139 q 260 1129 321 1139 q 151 1094 198 1118 q 76 1031 104 1070 q 48 933 48 991 q 67 862 48 896 q 116 794 87 827 q 179 728 145 761 q 243 659 214 694 q 291 584 272 623 q 311 501 311 545 m 80 156 q 104 83 80 117 q 171 24 129 50 q 269 -16 212 -1 q 389 -31 325 -31 q 510 -16 453 -31 q 608 24 566 -1 q 675 83 650 50 q 699 156 699 117 q 675 229 699 195 q 608 289 650 263 q 510 329 566 314 q 389 344 453 344 q 269 329 325 344 q 171 289 212 314 q 104 229 129 263 q 80 156 80 195 "},"\"":{"ha":1100,"x_min":109,"x_max":991,"o":"m 753 397 l 826 397 q 840 532 827 473 q 871 635 852 590 q 910 714 889 680 q 950 778 932 749 q 980 833 968 807 q 991 889 991 860 q 941 998 991 960 q 787 1035 890 1035 q 633 998 684 1035 q 583 889 583 960 q 595 833 583 860 q 626 778 608 807 q 667 714 645 749 q 707 635 688 680 q 739 532 726 590 q 753 397 752 473 m 279 397 l 351 397 q 365 532 353 473 q 396 635 378 590 q 436 714 414 680 q 475 778 457 749 q 505 833 493 807 q 517 889 517 860 q 466 998 517 960 q 313 1035 416 1035 q 159 998 209 1035 q 109 889 109 960 q 121 833 109 860 q 152 778 133 807 q 192 714 170 749 q 233 635 214 680 q 264 532 252 590 q 279 397 277 473 "},"#":{"ha":1278,"x_min":47,"x_max":1236,"o":"m 292 258 l 216 0 l 347 0 l 423 261 q 481 261 454 261 q 531 262 509 262 q 571 262 554 262 q 597 262 587 262 q 637 262 609 262 q 703 262 665 262 l 626 0 l 757 0 l 833 260 q 933 258 883 259 q 1026 255 983 257 q 1100 252 1069 254 q 1145 249 1132 251 q 1147 263 1146 255 q 1148 280 1147 271 q 1148 297 1148 289 q 1149 311 1149 306 q 1148 327 1149 317 q 1148 347 1148 337 q 1147 367 1147 357 q 1145 380 1146 376 q 1104 377 1133 378 q 1039 374 1076 376 q 956 371 1001 372 q 865 370 911 370 l 932 597 q 1029 596 981 597 q 1118 593 1077 595 q 1189 590 1159 591 q 1232 587 1219 589 q 1234 601 1233 593 q 1235 618 1234 609 q 1235 635 1235 627 q 1236 649 1236 644 q 1235 665 1236 655 q 1235 685 1235 675 q 1234 704 1234 695 q 1232 718 1233 713 q 1193 715 1220 716 q 1131 712 1166 713 q 1052 710 1095 711 q 964 708 1009 709 l 1038 960 l 909 960 l 834 705 q 743 705 783 705 q 684 705 703 705 l 553 705 l 628 960 l 499 960 l 424 707 q 330 708 376 707 q 244 710 283 709 q 177 714 205 712 q 138 718 149 715 q 135 683 136 701 q 134 649 134 666 q 135 618 134 631 q 138 587 136 604 q 173 589 148 588 q 232 592 197 591 q 307 594 266 593 q 391 597 348 595 l 324 369 q 234 371 278 370 q 152 373 189 372 q 89 376 115 374 q 51 380 62 378 q 48 346 49 363 q 47 311 47 328 q 48 280 47 294 q 51 249 49 267 q 84 252 61 250 q 140 254 107 253 q 211 257 172 256 q 292 258 250 258 m 454 368 l 522 599 q 623 600 579 600 q 684 600 666 600 q 729 600 697 600 q 803 599 760 600 l 734 368 q 651 367 688 367 q 597 367 614 367 q 544 367 582 367 q 454 368 505 367 "},"$":{"ha":1959,"x_min":151,"x_max":1868,"o":"m 217 -39 q 277 -24 251 -30 q 329 -15 304 -18 q 382 -10 355 -12 q 446 -9 410 -9 q 578 -12 515 -9 q 702 -19 642 -15 q 821 -28 762 -23 q 943 -35 880 -33 q 940 -116 941 -79 q 937 -178 938 -152 q 953 -180 943 -179 q 975 -182 964 -181 q 997 -183 986 -183 q 1013 -184 1007 -184 q 1029 -183 1019 -184 q 1052 -182 1040 -183 q 1074 -180 1063 -181 q 1088 -178 1084 -179 q 1085 -116 1086 -151 q 1082 -39 1083 -80 q 1275 -35 1179 -39 q 1459 -19 1371 -31 q 1621 14 1546 -7 q 1751 69 1696 35 q 1837 152 1806 103 q 1868 267 1868 200 q 1841 390 1868 339 q 1767 476 1814 441 q 1658 532 1721 511 q 1526 565 1596 553 q 1382 585 1456 578 q 1239 597 1309 591 q 1106 612 1168 604 q 998 635 1044 620 q 924 676 951 650 q 897 741 897 701 q 909 777 897 760 q 945 807 921 794 q 1003 829 968 821 q 1082 837 1037 837 q 1234 828 1160 837 q 1374 804 1308 819 q 1495 767 1440 788 q 1594 722 1551 746 q 1664 671 1636 697 q 1701 618 1691 644 l 1777 618 q 1776 657 1777 633 q 1771 709 1774 682 q 1763 767 1767 737 q 1752 825 1758 797 q 1740 876 1746 852 q 1726 913 1733 899 q 1665 899 1691 905 q 1613 890 1638 893 q 1559 885 1587 886 q 1495 884 1532 884 q 1311 892 1411 884 q 1100 908 1212 901 q 1102 947 1101 927 q 1104 985 1103 967 q 1105 1017 1105 1002 q 1107 1042 1106 1032 q 1073 1047 1090 1046 q 1038 1049 1055 1049 q 1019 1049 1029 1049 q 997 1047 1008 1048 q 975 1045 985 1046 q 956 1042 964 1044 q 957 1018 956 1032 q 958 987 958 1004 q 960 951 959 970 q 961 913 960 932 l 930 913 q 733 907 829 913 q 550 886 636 901 q 390 846 463 871 q 264 786 317 822 q 181 702 211 750 q 151 592 151 654 q 180 475 151 524 q 257 393 208 427 q 372 339 307 360 q 511 306 437 319 q 662 287 585 294 q 813 275 739 281 q 952 263 886 270 q 1066 244 1017 256 q 1144 211 1116 232 q 1173 157 1173 191 q 1156 115 1173 134 q 1101 80 1140 95 q 996 57 1061 66 q 833 49 931 49 q 712 54 774 49 q 592 70 651 59 q 477 100 532 81 q 376 144 422 118 q 292 206 329 171 q 233 287 256 241 l 164 287 q 166 245 164 271 q 171 188 168 219 q 179 122 174 156 q 190 58 184 89 q 203 1 196 26 q 217 -39 210 -24 "},"%":{"ha":1799,"x_min":65,"x_max":1734,"o":"m 258 -104 q 365 -214 302 -172 q 410 -164 380 -195 q 478 -94 439 -133 q 561 -8 516 -54 q 652 84 606 37 q 745 178 699 132 q 832 264 791 224 q 906 338 873 305 q 959 391 939 370 q 1010 440 978 409 q 1082 512 1042 472 q 1170 598 1123 552 q 1264 691 1216 644 q 1359 784 1312 738 q 1447 868 1406 829 q 1521 938 1488 907 q 1573 985 1554 968 q 1551 1017 1563 1002 q 1524 1046 1538 1032 q 1495 1073 1510 1061 q 1468 1094 1480 1084 q 1419 1041 1449 1074 q 1351 968 1389 1008 q 1268 882 1312 928 q 1177 789 1223 836 q 1085 694 1131 741 q 998 606 1039 648 q 922 529 957 564 q 863 470 887 494 q 813 420 845 452 q 741 349 781 389 q 654 265 701 310 q 560 174 608 220 q 467 85 513 129 q 380 3 420 41 q 308 -62 340 -34 q 258 -104 276 -90 m 454 480 q 604 490 534 480 q 728 524 675 500 q 812 590 781 549 q 844 696 844 632 q 812 803 844 761 q 728 869 781 845 q 604 904 675 894 q 454 913 534 913 q 304 904 375 913 q 181 869 234 894 q 96 803 127 845 q 65 696 65 761 q 96 590 65 632 q 181 524 127 549 q 304 490 234 500 q 454 480 375 480 m 454 549 q 409 555 431 549 q 369 578 387 562 q 341 623 352 594 q 330 696 330 652 q 341 770 330 741 q 369 815 352 799 q 409 839 387 832 q 454 845 431 845 q 499 839 477 845 q 539 815 522 832 q 568 770 557 799 q 578 696 578 741 q 568 623 578 652 q 539 578 557 594 q 499 555 522 562 q 454 549 477 549 m 956 178 q 987 72 956 113 q 1071 5 1018 30 q 1195 -29 1124 -19 q 1345 -39 1265 -39 q 1495 -29 1424 -39 q 1618 5 1565 -19 q 1703 72 1672 30 q 1734 178 1734 113 q 1703 284 1734 242 q 1618 351 1672 326 q 1495 385 1565 375 q 1345 395 1424 395 q 1195 385 1265 395 q 1071 351 1124 375 q 987 284 1018 326 q 956 178 956 242 m 1221 178 q 1232 251 1221 222 q 1260 297 1242 280 q 1299 320 1277 313 q 1345 326 1322 326 q 1390 320 1368 326 q 1430 297 1412 313 q 1458 251 1447 280 q 1469 178 1469 222 q 1458 104 1469 133 q 1430 59 1447 75 q 1390 36 1412 43 q 1345 30 1368 30 q 1299 36 1322 30 q 1260 59 1277 43 q 1232 104 1242 75 q 1221 178 1221 133 "},"&":{"ha":2542,"x_min":119,"x_max":2480,"o":"m 119 197 q 144 124 119 156 q 212 68 169 92 q 312 26 254 44 q 434 -3 369 9 q 567 -22 498 -15 q 701 -33 635 -29 q 826 -38 767 -37 q 932 -39 886 -39 q 1202 -27 1078 -39 q 1436 14 1325 -16 q 1649 -26 1542 -12 q 1859 -40 1756 -40 q 2103 -12 1993 -40 q 2293 62 2213 16 q 2422 168 2374 108 q 2480 294 2470 229 l 2434 332 q 2371 320 2408 325 q 2283 316 2334 316 q 2197 319 2244 316 q 2093 329 2150 322 q 2043 336 2072 332 q 1978 349 2014 341 q 2038 399 2007 377 q 2109 436 2068 421 q 2210 460 2151 452 q 2357 468 2269 468 l 2357 539 l 1686 539 l 1686 468 q 1816 457 1769 468 q 1862 418 1862 447 q 1861 396 1862 407 q 1855 376 1859 386 q 1742 405 1801 389 q 1623 439 1683 420 q 1503 477 1563 457 q 1389 519 1444 498 q 1549 550 1475 534 q 1677 587 1623 566 q 1762 634 1731 608 q 1793 697 1793 661 q 1759 782 1793 743 q 1654 851 1725 821 q 1473 897 1583 880 q 1211 914 1362 914 q 748 844 899 914 q 597 634 597 773 q 622 520 597 576 q 691 410 646 465 q 548 397 618 404 q 414 381 477 391 q 296 356 351 371 q 203 320 242 342 q 141 269 163 299 q 119 197 119 239 m 1099 736 q 1109 784 1099 764 q 1135 817 1118 804 q 1175 837 1152 830 q 1225 843 1198 843 q 1271 838 1249 843 q 1310 821 1293 833 q 1336 791 1326 810 q 1346 746 1346 772 q 1316 665 1346 705 q 1238 589 1286 626 q 1137 662 1175 625 q 1099 736 1099 699 m 753 206 q 792 311 753 258 q 1010 171 886 235 q 1276 60 1134 107 q 1191 51 1233 54 q 1105 47 1148 47 q 967 57 1031 47 q 856 85 903 66 q 780 135 808 104 q 753 206 753 165 "},"'":{"ha":625,"x_min":109,"x_max":517,"o":"m 279 397 l 351 397 q 365 532 353 473 q 396 635 378 590 q 436 714 414 680 q 475 778 457 749 q 505 833 493 807 q 517 889 517 860 q 466 998 517 960 q 313 1035 416 1035 q 159 998 209 1035 q 109 889 109 960 q 121 833 109 860 q 152 778 133 807 q 192 714 170 749 q 233 635 214 680 q 264 532 252 590 q 279 397 277 473 "},"(":{"ha":903,"x_min":163,"x_max":781,"o":"m 163 437 q 189 210 163 307 q 259 44 214 113 q 364 -70 304 -25 q 493 -139 424 -114 q 635 -175 562 -165 q 781 -184 709 -184 l 781 -108 q 689 -80 729 -108 q 621 12 648 -52 q 579 180 593 75 q 565 437 565 284 q 579 695 565 591 q 621 864 593 800 q 689 955 648 928 q 781 983 729 983 l 781 1059 q 635 1049 709 1059 q 493 1014 562 1040 q 364 944 424 989 q 259 831 304 900 q 189 665 214 762 q 163 437 163 568 "},")":{"ha":903,"x_min":122,"x_max":741,"o":"m 122 -108 l 122 -184 q 268 -175 194 -184 q 411 -139 342 -165 q 539 -70 479 -114 q 644 44 600 -25 q 715 210 689 113 q 741 437 741 307 q 715 665 741 568 q 644 831 689 762 q 539 944 600 900 q 411 1014 479 989 q 268 1049 342 1040 q 122 1059 194 1059 l 122 983 q 215 955 174 983 q 282 863 255 927 q 324 695 310 800 q 338 437 338 591 q 324 179 338 283 q 282 11 310 75 q 215 -80 255 -53 q 122 -108 174 -108 "},"*":{"ha":1081,"x_min":81,"x_max":999,"o":"m 220 449 q 272 462 249 449 q 316 496 296 475 q 357 547 337 518 q 399 606 376 575 q 448 668 421 637 q 511 727 475 699 q 485 628 503 675 q 448 541 467 582 q 416 465 430 500 q 401 399 401 429 q 436 312 401 344 q 543 280 471 280 q 649 312 614 280 q 684 399 684 344 q 669 465 684 429 q 634 542 654 500 q 595 629 614 583 q 568 728 576 675 q 631 669 604 700 q 681 606 658 637 q 723 547 703 575 q 764 496 743 518 q 808 462 785 475 q 861 449 831 449 q 920 469 892 449 q 972 530 948 488 q 999 618 999 578 q 984 672 999 648 q 940 712 968 695 q 875 732 913 727 q 792 741 837 737 q 697 751 747 744 q 598 777 647 758 q 696 802 647 795 q 791 812 746 808 q 874 821 836 816 q 939 842 913 826 q 983 882 968 859 q 999 935 999 905 q 972 1023 999 975 q 920 1084 948 1064 q 861 1104 891 1104 q 807 1091 831 1104 q 763 1057 784 1078 q 723 1006 743 1035 q 681 947 703 978 q 631 885 658 916 q 568 825 604 853 q 594 924 576 878 q 631 1012 612 971 q 664 1089 650 1053 q 678 1156 678 1125 q 644 1242 678 1211 q 537 1274 609 1274 q 431 1242 465 1274 q 396 1156 396 1211 q 411 1089 396 1125 q 445 1012 426 1053 q 484 925 465 971 q 511 826 503 878 q 448 885 475 854 q 399 947 421 916 q 356 1006 376 978 q 316 1057 336 1035 q 272 1091 296 1078 q 220 1104 249 1104 q 160 1084 189 1104 q 109 1023 132 1064 q 81 935 81 975 q 97 882 81 905 q 141 842 112 859 q 205 821 168 826 q 289 812 243 816 q 384 802 334 808 q 482 777 433 795 q 383 751 433 758 q 288 741 334 744 q 205 732 243 737 q 140 712 167 727 q 96 672 111 695 q 81 618 81 648 q 109 530 81 577 q 160 469 132 488 q 220 449 189 449 "},"+":{"ha":1142,"x_min":88,"x_max":1054,"o":"m 92 365 q 131 369 104 367 q 196 372 159 370 q 276 374 233 373 q 362 376 319 375 q 445 377 405 376 q 515 378 484 378 q 513 296 514 342 q 511 207 512 251 q 507 126 509 163 q 502 70 505 89 q 517 68 508 69 q 536 67 526 68 q 556 67 547 67 q 571 66 566 66 q 587 67 577 66 q 607 67 597 67 q 626 68 617 68 q 640 70 635 69 q 635 127 637 90 q 631 207 633 163 q 628 295 629 250 q 627 378 627 340 q 696 377 657 377 q 779 375 736 376 q 865 373 822 374 q 944 371 907 372 q 1009 368 981 370 q 1050 365 1038 367 q 1052 380 1051 371 q 1053 399 1053 389 q 1054 419 1053 410 q 1054 434 1054 429 q 1054 450 1054 440 q 1053 470 1053 460 q 1052 489 1053 480 q 1050 503 1051 498 q 1008 499 1036 501 q 944 496 981 498 q 864 494 907 495 q 780 492 822 493 q 697 490 737 491 q 627 490 658 490 q 627 572 627 526 q 630 663 628 618 q 634 744 631 707 q 640 798 636 781 q 605 801 623 800 q 571 802 588 802 q 536 801 553 802 q 502 798 519 800 q 507 744 505 781 q 511 663 509 707 q 513 572 512 618 q 515 490 514 526 q 445 490 484 490 q 362 491 405 490 q 275 493 319 492 q 195 495 232 494 q 131 499 158 497 q 92 503 103 500 q 89 468 90 486 q 88 434 88 451 q 89 399 88 416 q 92 365 90 382 "},",":{"ha":807,"x_min":79,"x_max":728,"o":"m 132 -102 l 104 -174 q 233 -212 165 -199 q 366 -224 300 -224 q 504 -207 438 -224 q 619 -151 569 -190 q 698 -48 669 -111 q 728 108 728 16 q 706 209 728 163 q 641 285 684 254 q 534 334 597 317 q 389 351 471 351 q 268 338 324 351 q 170 299 212 324 q 104 239 128 275 q 79 160 79 203 q 104 79 79 114 q 170 21 128 44 q 268 -15 212 -3 q 389 -26 324 -26 q 514 -15 458 -26 q 612 30 570 -4 q 588 -55 609 -20 q 533 -110 567 -89 q 455 -140 499 -131 q 362 -149 411 -149 q 297 -146 330 -149 q 235 -136 265 -142 q 179 -121 205 -130 q 132 -102 153 -113 "},"-":{"ha":1142,"x_min":88,"x_max":1054,"o":"m 92 365 q 126 368 102 367 q 181 371 149 370 q 250 373 212 372 q 326 375 288 374 q 403 376 365 376 q 474 377 441 377 q 532 378 507 378 q 570 378 557 378 q 623 378 585 378 q 709 377 661 378 q 810 375 757 376 q 912 373 864 374 q 998 369 960 371 q 1050 365 1035 367 q 1052 380 1051 371 q 1053 399 1053 389 q 1054 419 1053 410 q 1054 434 1054 429 q 1054 450 1054 440 q 1053 470 1053 460 q 1052 489 1053 480 q 1050 503 1051 498 q 998 499 1034 500 q 915 495 962 497 q 816 493 868 494 q 716 491 764 492 q 629 490 668 490 q 570 490 590 490 q 534 490 558 490 q 477 490 509 490 q 406 491 444 490 q 328 492 368 491 q 251 493 289 492 q 181 496 213 494 q 126 499 149 497 q 92 503 102 501 q 89 468 90 486 q 88 434 88 451 q 89 399 88 416 q 92 365 90 382 "},".":{"ha":778,"x_min":79,"x_max":699,"o":"m 79 163 q 103 83 79 119 q 168 22 126 47 q 266 -17 209 -3 q 389 -31 322 -31 q 512 -17 455 -31 q 610 22 569 -3 q 675 83 652 47 q 699 163 699 119 q 675 242 699 206 q 610 302 652 277 q 512 340 569 327 q 389 354 455 354 q 266 340 322 354 q 168 302 209 327 q 103 242 126 277 q 79 163 79 206 "},"/":{"ha":754,"x_min":-41,"x_max":795,"o":"m -41 -264 q 19 -302 -12 -287 q 83 -326 51 -317 q 108 -270 92 -306 q 146 -188 124 -234 q 194 -87 168 -141 q 248 22 220 -34 q 301 133 275 78 q 352 235 328 187 q 395 321 376 283 q 426 382 414 359 q 456 441 437 404 q 499 525 475 478 q 551 626 523 572 q 607 735 578 680 q 665 844 636 791 q 718 944 693 898 q 763 1027 743 991 q 795 1084 783 1063 q 782 1093 790 1088 q 766 1103 774 1098 q 749 1113 757 1109 q 736 1120 741 1118 q 721 1127 730 1123 q 703 1135 712 1131 q 685 1142 693 1139 q 671 1146 676 1145 q 645 1086 662 1123 q 606 1004 628 1050 q 559 906 585 958 q 508 799 534 853 q 455 691 481 745 q 405 589 429 637 q 361 500 381 541 q 327 433 340 460 q 297 374 316 412 q 254 290 279 337 q 202 188 230 243 q 145 78 174 134 q 88 -31 116 22 q 35 -131 60 -85 q -9 -211 10 -176 q -41 -264 -29 -246 "},":":{"ha":778,"x_min":79,"x_max":699,"o":"m 389 448 q 512 462 455 448 q 610 501 569 476 q 675 562 652 526 q 699 642 699 597 q 675 721 699 685 q 610 781 652 756 q 512 819 569 806 q 389 833 455 833 q 266 819 322 833 q 168 781 209 806 q 103 721 126 756 q 79 642 79 685 q 103 562 79 597 q 168 501 126 526 q 266 462 209 476 q 389 448 322 448 m 79 163 q 103 83 79 119 q 168 22 126 47 q 266 -17 209 -3 q 389 -31 322 -31 q 512 -17 455 -31 q 610 22 569 -3 q 675 83 652 47 q 699 163 699 119 q 675 242 699 206 q 610 302 652 277 q 512 340 569 327 q 389 354 455 354 q 266 340 322 354 q 168 302 209 327 q 103 242 126 277 q 79 163 79 206 "},";":{"ha":807,"x_min":79,"x_max":728,"o":"m 389 448 q 512 462 455 448 q 610 501 569 476 q 675 562 652 526 q 699 642 699 597 q 675 721 699 685 q 610 781 652 756 q 512 819 569 806 q 389 833 455 833 q 266 819 322 833 q 168 781 209 806 q 103 721 126 756 q 79 642 79 685 q 103 562 79 597 q 168 501 126 526 q 266 462 209 476 q 389 448 322 448 m 132 -102 l 104 -174 q 233 -212 165 -199 q 366 -224 300 -224 q 504 -207 438 -224 q 619 -151 569 -190 q 698 -48 669 -111 q 728 108 728 16 q 706 209 728 163 q 641 285 684 254 q 534 334 597 317 q 389 351 471 351 q 268 338 324 351 q 170 299 212 324 q 104 239 128 275 q 79 160 79 203 q 104 79 79 114 q 170 21 128 44 q 268 -15 212 -3 q 389 -26 324 -26 q 514 -15 458 -26 q 612 30 570 -4 q 588 -55 609 -20 q 533 -110 567 -89 q 455 -140 499 -131 q 362 -149 411 -149 q 297 -146 330 -149 q 235 -136 265 -142 q 179 -121 205 -130 q 132 -102 153 -113 "},"<":{"ha":969,"x_min":78,"x_max":881,"o":"m 78 469 l 78 389 q 250 322 157 358 q 441 248 343 287 q 635 166 538 208 q 819 79 732 123 q 854 135 840 107 q 881 195 869 163 l 254 429 l 881 663 q 854 723 869 695 q 819 779 840 750 q 635 692 732 734 q 441 610 538 650 q 250 535 343 571 q 78 469 157 500 "},"=":{"ha":1142,"x_min":88,"x_max":1054,"o":"m 92 500 q 126 504 102 503 q 181 507 149 505 q 250 509 212 508 q 326 511 288 510 q 403 512 365 511 q 474 513 441 513 q 532 514 507 513 q 570 514 557 514 q 623 514 585 514 q 709 513 661 513 q 810 511 757 512 q 912 508 864 510 q 998 505 960 507 q 1050 500 1035 503 q 1052 516 1051 507 q 1053 535 1053 525 q 1054 555 1053 545 q 1054 570 1054 564 q 1054 586 1054 576 q 1053 606 1053 595 q 1052 625 1053 616 q 1050 639 1051 634 q 998 634 1034 636 q 915 631 962 633 q 816 628 868 629 q 716 627 764 627 q 629 626 668 626 q 570 625 590 625 q 534 625 558 625 q 477 626 509 625 q 406 626 444 626 q 328 627 368 627 q 251 629 289 628 q 181 631 213 630 q 126 635 149 633 q 92 639 102 637 q 89 604 90 621 q 88 570 88 587 q 89 535 88 552 q 92 500 90 518 m 92 202 q 126 205 102 204 q 181 208 149 207 q 250 211 212 210 q 326 212 288 212 q 403 214 365 213 q 474 215 441 214 q 532 215 507 215 q 570 216 557 216 q 623 215 585 216 q 709 214 661 215 q 810 213 757 214 q 912 210 864 212 q 998 206 960 208 q 1050 202 1035 204 q 1052 217 1051 208 q 1053 237 1053 227 q 1054 256 1053 247 q 1054 271 1054 266 q 1054 287 1054 277 q 1053 307 1053 297 q 1052 327 1053 317 q 1050 340 1051 336 q 998 336 1034 338 q 915 333 962 334 q 816 330 868 331 q 716 328 764 329 q 629 327 668 328 q 570 327 590 327 q 534 327 558 327 q 477 327 509 327 q 406 328 444 328 q 328 329 368 328 q 251 331 289 330 q 181 333 213 332 q 126 336 149 334 q 92 340 102 338 q 89 306 90 323 q 88 271 88 288 q 89 237 88 254 q 92 202 90 220 "},">":{"ha":969,"x_min":88,"x_max":891,"o":"m 151 79 q 271 137 208 109 q 398 194 334 166 q 529 247 463 221 q 657 298 594 273 q 779 346 720 323 q 891 389 838 368 l 891 469 q 780 512 839 490 q 657 559 720 535 q 529 610 594 584 q 398 664 463 637 q 271 720 334 692 q 151 779 208 749 q 115 723 130 750 q 88 663 100 695 l 715 429 l 88 195 q 115 135 100 163 q 151 79 130 107 "},"?":{"ha":1788,"x_min":60,"x_max":1722,"o":"m 393 690 q 518 701 459 690 q 622 732 578 711 q 692 782 667 753 q 718 848 718 811 q 704 901 718 875 q 656 947 690 926 q 565 981 622 967 q 421 998 507 995 q 481 1004 445 1001 q 556 1008 517 1006 q 632 1012 595 1010 q 693 1013 669 1013 q 824 1007 761 1013 q 935 983 887 1000 q 1013 935 983 965 q 1042 856 1042 904 q 1021 788 1042 818 q 969 732 1000 758 q 901 683 938 706 q 833 634 865 659 q 782 581 802 609 q 761 517 761 553 q 769 480 761 496 q 792 453 778 465 q 824 436 806 442 q 861 431 842 431 q 909 434 891 431 q 939 445 928 438 q 958 459 951 451 q 974 477 966 468 q 995 497 983 487 q 1029 517 1008 507 q 1201 580 1116 555 q 1363 624 1286 605 q 1506 660 1440 643 q 1619 701 1571 677 q 1695 760 1668 725 q 1722 848 1722 794 q 1696 931 1722 895 q 1627 995 1670 968 q 1525 1040 1583 1021 q 1401 1071 1466 1059 q 1266 1090 1335 1084 q 1133 1101 1198 1097 q 1012 1105 1069 1104 q 913 1105 955 1105 q 707 1100 810 1105 q 509 1082 604 1094 q 332 1051 414 1069 q 190 1006 250 1032 q 94 947 129 981 q 60 873 60 914 q 88 790 60 825 q 163 733 117 755 q 270 700 210 711 q 393 690 330 690 m 576 156 q 601 83 576 117 q 667 24 625 50 q 765 -16 709 -1 q 886 -31 821 -31 q 1006 -16 949 -31 q 1105 24 1063 -1 q 1171 83 1147 50 q 1196 156 1196 117 q 1171 229 1196 195 q 1105 289 1147 263 q 1006 329 1063 314 q 886 344 949 344 q 765 329 821 344 q 667 289 709 314 q 601 229 625 263 q 576 156 576 195 "},"@":{"ha":2208,"x_min":90,"x_max":2118,"o":"m 90 328 q 166 48 90 166 q 381 -146 241 -69 q 718 -260 520 -223 q 1161 -297 916 -297 q 1670 -250 1444 -297 q 2066 -103 1895 -203 l 2039 -49 q 1843 -113 1948 -87 q 1622 -154 1737 -138 q 1382 -175 1507 -169 q 1128 -182 1258 -182 q 819 -168 956 -182 q 575 -127 681 -155 q 394 -58 469 -100 q 270 40 318 -16 q 199 167 222 96 q 176 324 176 238 q 234 552 176 450 q 408 726 292 654 q 699 837 524 798 q 1109 876 874 876 q 1518 835 1346 876 q 1801 721 1689 794 q 1965 547 1912 648 q 2018 325 2018 446 q 2003 226 2018 268 q 1964 156 1988 184 q 1909 116 1940 129 q 1847 102 1879 102 q 1810 112 1828 102 q 1780 146 1793 122 q 1760 209 1767 170 q 1753 308 1753 248 q 1753 337 1753 315 q 1753 381 1753 358 q 1754 425 1754 405 q 1754 448 1754 444 q 1724 553 1754 510 q 1643 624 1695 596 q 1521 668 1591 652 q 1371 691 1451 684 q 1202 700 1290 699 q 1027 702 1114 702 q 885 697 954 702 q 756 685 816 693 q 646 663 696 676 q 561 632 596 650 q 506 591 526 614 q 486 541 486 568 q 505 487 486 513 q 561 440 524 461 q 652 407 598 420 q 777 395 706 395 q 888 404 836 395 q 980 430 941 413 q 1042 470 1019 447 q 1065 520 1065 492 q 1051 562 1065 541 q 1007 598 1036 582 q 932 626 977 615 q 825 637 886 636 q 980 634 915 637 q 1086 615 1044 631 q 1148 564 1128 599 q 1168 465 1168 529 l 1168 330 q 1119 336 1147 334 q 1061 341 1091 339 q 1001 344 1031 343 q 941 346 970 345 q 888 348 913 347 q 844 348 863 348 q 729 345 785 348 q 624 335 673 342 q 532 315 574 328 q 460 282 490 302 q 413 234 430 262 q 396 168 396 205 q 424 86 396 119 q 498 34 451 54 q 607 6 545 14 q 738 -2 669 -2 q 854 3 792 -2 q 979 20 917 8 q 1097 50 1040 31 q 1196 97 1154 69 q 1257 42 1219 63 q 1345 9 1295 21 q 1456 -6 1395 -2 q 1584 -9 1516 -9 q 1726 -7 1657 -9 q 1853 6 1794 -4 q 1961 38 1912 17 q 2045 96 2010 59 q 2099 190 2080 134 q 2118 327 2118 246 q 2080 543 2118 447 q 1975 711 2043 638 q 1813 837 1907 785 q 1607 922 1719 889 q 1368 970 1495 955 q 1109 986 1242 986 q 935 979 1024 986 q 759 955 846 971 q 588 911 671 938 q 430 847 504 885 q 293 759 355 809 q 185 644 231 708 q 115 501 140 580 q 90 328 90 422 m 896 200 q 912 237 896 222 q 957 260 928 251 q 1023 272 985 269 q 1105 275 1061 275 q 1135 275 1119 275 q 1168 274 1152 275 l 1168 205 q 1170 181 1168 193 q 1172 160 1171 170 q 1124 149 1149 154 q 1075 141 1099 144 q 1032 137 1052 138 q 999 136 1012 136 q 921 155 946 136 q 896 200 896 174 "},"A":{"ha":2161,"x_min":47,"x_max":2144,"o":"m 47 64 l 47 0 l 616 0 l 616 64 q 556 73 586 64 q 504 99 527 81 q 466 143 480 117 q 452 203 452 169 q 453 218 452 210 q 458 235 454 225 l 998 235 q 1005 197 1005 212 q 991 138 1005 163 q 953 97 977 113 q 900 72 930 80 q 841 64 871 64 l 841 0 l 2144 0 l 2144 64 q 2078 76 2117 64 q 1995 116 2039 89 q 1905 186 1950 143 q 1821 290 1860 229 l 1451 876 l 767 876 l 345 275 q 260 178 304 218 q 176 112 216 138 q 101 75 135 87 q 47 64 67 64 m 958 329 l 507 329 q 545 390 523 355 q 596 470 567 425 q 664 572 626 515 q 749 700 702 629 q 822 574 789 631 q 880 473 854 518 q 924 392 905 427 q 958 329 943 356 "},"B":{"ha":2238,"x_min":68,"x_max":2209,"o":"m 68 64 l 68 0 l 1231 0 q 1654 7 1471 0 q 1960 38 1836 14 q 2146 107 2083 62 q 2209 231 2209 153 q 2176 321 2209 283 q 2085 384 2143 358 q 1946 424 2026 409 q 1770 447 1865 439 q 1569 457 1675 455 q 1352 460 1462 460 q 1530 464 1441 461 q 1701 474 1619 467 q 1852 496 1782 482 q 1974 533 1923 511 q 2055 589 2026 556 q 2085 669 2085 623 q 2069 740 2085 709 q 2015 794 2053 771 q 1912 833 1977 817 q 1749 858 1847 848 q 1515 871 1651 867 q 1200 876 1380 876 l 68 876 l 68 812 q 180 806 130 812 q 269 785 231 800 q 336 744 308 770 q 382 678 364 718 q 409 583 400 638 q 417 453 417 527 q 400 270 417 343 q 344 153 384 197 q 237 87 304 108 q 68 64 170 67 m 1142 509 l 1122 509 l 1122 794 q 1250 788 1193 793 q 1346 767 1306 783 q 1407 725 1385 752 q 1428 653 1428 697 q 1409 582 1428 610 q 1352 539 1389 555 q 1263 516 1316 523 q 1144 509 1211 510 l 1142 509 m 1122 87 l 1122 429 q 1251 424 1190 429 q 1358 403 1312 420 q 1432 352 1404 386 q 1459 259 1459 318 q 1431 166 1459 200 q 1356 114 1402 132 q 1248 92 1309 96 q 1122 87 1187 87 "},"C":{"ha":1938,"x_min":78,"x_max":1860,"o":"m 78 442 q 111 275 78 348 q 205 150 144 203 q 356 60 267 96 q 556 2 444 24 q 800 -29 667 -20 q 1082 -39 932 -39 q 1420 -10 1274 -39 q 1663 73 1565 19 q 1811 202 1761 126 q 1860 374 1860 279 l 1759 374 q 1732 278 1754 321 q 1676 201 1710 235 q 1598 143 1642 168 q 1506 102 1554 118 q 1407 77 1457 85 q 1308 69 1356 69 q 1156 91 1229 69 q 1028 158 1084 113 q 938 269 972 202 q 905 427 905 336 q 936 605 905 533 q 1018 722 966 677 q 1137 785 1069 766 q 1278 804 1204 804 q 1371 797 1322 804 q 1469 775 1420 789 q 1563 739 1517 761 q 1646 686 1608 716 q 1711 618 1684 656 q 1752 533 1739 580 l 1853 533 q 1847 626 1853 574 q 1828 730 1840 677 q 1799 832 1816 783 q 1762 917 1782 882 l 1613 917 q 1592 894 1605 904 q 1565 877 1579 884 q 1534 865 1550 869 q 1507 861 1519 861 q 1391 869 1455 861 q 1251 887 1327 878 q 1085 905 1174 897 q 897 913 996 913 q 559 879 710 913 q 301 784 408 846 q 136 635 194 722 q 78 442 78 549 "},"D":{"ha":2262,"x_min":68,"x_max":2191,"o":"m 68 64 l 68 0 l 1099 0 q 1273 2 1182 0 q 1456 9 1364 3 q 1639 28 1549 16 q 1811 62 1729 40 q 1962 115 1893 83 q 2083 193 2032 147 q 2162 300 2134 239 q 2191 439 2191 361 q 2151 614 2191 542 q 2040 734 2110 686 q 1873 811 1969 783 q 1665 853 1777 839 q 1431 871 1553 867 q 1185 876 1308 876 l 68 876 l 68 812 q 180 806 130 812 q 269 785 231 800 q 336 744 308 770 q 382 678 364 718 q 409 583 400 638 q 417 453 417 527 q 400 270 417 343 q 344 153 384 197 q 237 87 304 108 q 68 64 170 67 m 1122 82 l 1122 794 q 1206 788 1167 793 q 1278 769 1246 783 q 1336 731 1311 755 q 1379 668 1362 707 q 1406 573 1397 629 q 1415 439 1415 517 q 1394 262 1415 330 q 1333 155 1372 194 q 1241 101 1295 117 q 1122 82 1187 85 "},"E":{"ha":2096,"x_min":68,"x_max":2071,"o":"m 68 64 l 68 0 l 2037 0 q 2052 91 2045 43 q 2063 187 2058 139 q 2069 281 2067 235 q 2071 368 2071 328 l 2000 368 q 1926 288 1978 326 q 1801 216 1873 250 q 1643 155 1729 182 q 1466 109 1556 128 q 1288 78 1376 89 q 1122 67 1199 67 l 1122 402 q 1188 379 1149 395 q 1271 345 1227 364 q 1360 306 1315 326 q 1445 266 1406 285 q 1515 231 1485 246 q 1558 207 1545 215 q 1567 255 1563 228 q 1572 313 1570 283 q 1576 372 1575 342 q 1577 425 1577 401 q 1576 481 1577 450 q 1573 545 1575 513 q 1568 607 1571 577 q 1558 661 1564 637 q 1517 637 1547 653 q 1448 603 1488 622 q 1363 562 1409 583 q 1273 522 1317 541 q 1188 488 1228 503 q 1122 465 1149 473 l 1122 808 q 1280 799 1199 808 q 1440 771 1360 789 q 1593 726 1519 753 q 1731 667 1668 700 q 1845 593 1795 633 q 1925 508 1895 553 l 1997 508 q 1994 594 1997 548 q 1988 689 1992 641 q 1977 784 1984 736 q 1962 876 1971 832 l 68 876 l 68 812 q 180 806 130 812 q 269 785 231 800 q 336 744 308 770 q 382 678 364 718 q 409 583 400 638 q 417 453 417 527 q 400 270 417 343 q 344 153 384 197 q 237 87 304 108 q 68 64 170 67 "},"F":{"ha":2025,"x_min":68,"x_max":2003,"o":"m 68 64 l 68 0 l 1645 0 l 1645 64 q 1423 81 1517 64 q 1264 138 1329 98 q 1166 243 1200 178 q 1124 403 1131 308 q 1198 380 1154 395 q 1290 345 1241 364 q 1388 305 1338 326 q 1480 264 1437 283 q 1555 229 1523 244 q 1600 205 1587 213 q 1609 255 1605 226 q 1615 314 1613 283 q 1619 376 1617 345 q 1620 430 1620 406 q 1619 486 1620 456 q 1616 548 1618 517 q 1610 609 1613 579 q 1600 662 1606 638 q 1557 638 1588 654 q 1483 603 1526 622 q 1390 562 1440 583 q 1291 522 1340 541 q 1198 487 1242 503 q 1122 465 1154 472 l 1122 808 q 1280 800 1199 808 q 1439 775 1360 792 q 1593 734 1518 759 q 1733 676 1668 709 q 1848 600 1797 642 q 1932 508 1900 558 l 2003 508 q 2001 594 2003 548 q 1995 689 1999 641 q 1984 784 1990 736 q 1969 876 1978 832 l 68 876 l 68 812 q 180 806 130 812 q 269 785 231 800 q 336 744 308 770 q 382 678 364 718 q 409 583 400 638 q 417 453 417 527 q 400 270 417 343 q 344 153 384 197 q 237 87 304 108 q 68 64 170 67 "},"G":{"ha":2087,"x_min":78,"x_max":2037,"o":"m 78 412 q 114 248 78 318 q 213 128 149 178 q 363 46 276 78 q 552 -5 450 14 q 769 -32 655 -24 q 1002 -39 884 -39 q 1244 -36 1125 -39 q 1482 -26 1364 -33 q 1721 -12 1601 -20 q 1963 9 1840 -3 q 1935 68 1948 37 q 1914 133 1923 100 q 1901 199 1905 166 q 1896 262 1896 233 q 1904 307 1896 288 q 1928 336 1911 325 q 1971 352 1944 347 q 2037 357 1999 357 l 2037 421 l 1048 421 l 1048 357 q 1172 354 1121 357 q 1255 341 1222 351 q 1306 310 1289 330 q 1333 256 1324 290 q 1343 172 1341 222 q 1345 52 1345 122 q 1320 48 1335 50 q 1290 46 1305 47 q 1259 45 1274 45 q 1235 45 1244 45 q 1092 73 1158 45 q 977 153 1025 102 q 901 274 928 203 q 873 427 873 344 q 889 545 873 492 q 934 640 905 598 q 1002 712 963 682 q 1086 764 1041 743 q 1180 794 1131 784 q 1278 804 1229 804 q 1371 797 1322 804 q 1469 775 1420 789 q 1563 739 1517 761 q 1646 686 1608 716 q 1711 618 1684 656 q 1752 533 1739 580 l 1853 533 q 1850 626 1853 574 q 1838 730 1847 677 q 1816 832 1830 783 q 1782 917 1803 882 l 1613 917 q 1565 874 1595 887 q 1488 861 1535 861 q 1418 865 1453 861 q 1342 874 1383 869 q 1254 887 1301 880 q 1147 900 1206 894 q 1016 909 1088 905 q 855 913 944 913 q 526 878 671 913 q 282 777 382 842 q 130 619 182 711 q 78 412 78 526 "},"H":{"ha":2543,"x_min":68,"x_max":2475,"o":"m 68 64 l 68 0 l 1208 0 l 1208 64 q 1177 84 1192 66 q 1151 138 1162 101 q 1133 236 1140 176 q 1123 383 1125 296 l 1421 383 q 1411 236 1419 296 q 1393 138 1404 176 q 1367 84 1381 101 q 1337 64 1353 66 l 1337 0 l 2475 0 l 2475 64 q 2307 87 2374 67 q 2200 153 2240 108 q 2143 270 2160 197 q 2127 453 2127 343 q 2146 634 2127 564 q 2208 744 2166 704 q 2316 798 2250 783 q 2475 812 2382 812 l 2475 876 l 1337 876 l 1337 812 q 1380 798 1364 812 q 1406 747 1397 785 q 1419 643 1415 710 q 1422 469 1422 576 l 1122 469 q 1125 643 1122 576 q 1138 747 1128 710 q 1163 798 1147 785 q 1208 812 1180 812 l 1208 876 l 68 876 l 68 812 q 180 806 130 812 q 269 785 231 800 q 336 744 308 770 q 382 678 364 718 q 409 583 400 638 q 417 453 417 527 q 400 270 417 343 q 344 153 384 197 q 237 87 304 108 q 68 64 170 67 "},"I":{"ha":1539,"x_min":68,"x_max":1471,"o":"m 68 64 l 68 0 l 1471 0 l 1471 64 q 1302 87 1369 67 q 1195 153 1235 108 q 1139 270 1155 197 q 1122 453 1122 343 q 1142 634 1122 564 q 1203 744 1161 704 q 1311 798 1245 783 q 1471 812 1377 812 l 1471 876 l 68 876 l 68 812 q 180 806 130 812 q 269 785 231 800 q 336 744 308 770 q 382 678 364 718 q 409 583 400 638 q 417 453 417 527 q 400 270 417 343 q 344 153 384 197 q 237 87 304 108 q 68 64 170 67 "},"J":{"ha":1572,"x_min":81,"x_max":1543,"o":"m 94 60 l 81 -9 q 206 -44 140 -27 q 351 -73 273 -60 q 524 -93 430 -85 q 733 -100 618 -100 q 875 -96 807 -100 q 1001 -80 943 -92 q 1107 -47 1059 -68 q 1188 5 1154 -27 q 1240 81 1221 37 q 1258 185 1258 125 q 1255 262 1258 224 q 1249 338 1253 300 q 1242 412 1245 375 q 1240 485 1240 448 q 1244 600 1240 551 q 1259 686 1248 650 q 1292 747 1271 723 q 1347 785 1313 771 q 1428 806 1380 800 q 1543 812 1476 812 l 1543 876 l 140 876 l 140 812 q 256 806 203 812 q 352 785 309 800 q 429 742 395 770 q 485 671 462 715 q 519 566 507 628 q 530 421 530 505 q 520 233 530 308 q 488 113 511 158 q 426 48 465 67 q 332 30 388 30 q 279 32 304 30 q 227 37 254 33 q 167 46 199 41 q 94 60 135 52 "},"K":{"ha":2285,"x_min":68,"x_max":2268,"o":"m 68 64 l 68 0 l 1288 0 l 1288 64 q 1213 80 1244 64 q 1163 135 1183 97 q 1135 234 1144 172 q 1123 385 1125 296 q 1227 372 1185 384 q 1296 336 1269 361 q 1340 274 1324 312 q 1366 184 1356 237 q 1388 101 1375 136 q 1425 41 1402 66 q 1485 1 1449 16 q 1574 -24 1520 -15 q 1700 -36 1627 -33 q 1871 -39 1773 -39 q 2010 -36 1950 -39 q 2116 -28 2070 -33 q 2199 -18 2163 -24 q 2268 -4 2235 -12 l 2268 64 q 2200 71 2226 65 q 2160 90 2175 76 q 2137 126 2145 103 q 2121 185 2129 149 q 2101 278 2111 235 q 2075 357 2091 321 q 2035 422 2059 393 q 1972 470 2011 450 q 1879 499 1934 489 q 1746 510 1824 510 q 1635 506 1686 510 q 1531 494 1584 501 q 1416 478 1478 487 q 1271 458 1354 469 q 1426 535 1343 494 q 1593 614 1508 575 q 1760 689 1677 654 q 1915 752 1843 725 q 2048 796 1988 780 q 2146 812 2107 812 l 2146 876 l 1421 876 l 1421 812 q 1526 798 1494 812 q 1557 762 1557 785 q 1537 721 1557 744 q 1484 672 1517 699 q 1407 618 1451 646 q 1314 561 1362 589 q 1216 507 1265 533 q 1122 457 1166 480 q 1138 624 1124 556 q 1174 733 1152 692 q 1223 793 1196 775 q 1282 812 1251 812 l 1282 876 l 68 876 l 68 812 q 180 806 130 812 q 269 785 231 800 q 336 744 308 770 q 382 678 364 718 q 409 583 400 638 q 417 453 417 527 q 400 270 417 343 q 344 153 384 197 q 237 87 304 108 q 68 64 170 67 "},"L":{"ha":1883,"x_min":68,"x_max":1868,"o":"m 68 64 l 68 0 l 1833 0 q 1844 71 1839 30 q 1853 159 1849 113 q 1860 256 1857 206 q 1864 351 1862 305 q 1867 437 1866 397 q 1868 503 1868 476 l 1796 503 q 1766 401 1792 453 q 1694 301 1739 349 q 1587 210 1649 252 q 1452 136 1525 168 q 1295 85 1378 104 q 1122 67 1211 67 l 1122 453 q 1142 634 1122 564 q 1203 744 1161 704 q 1311 798 1245 783 q 1471 812 1377 812 l 1471 876 l 68 876 l 68 812 q 180 806 130 812 q 269 785 231 800 q 336 744 308 770 q 382 678 364 718 q 409 583 400 638 q 417 453 417 527 q 400 270 417 343 q 344 153 384 197 q 237 87 304 108 q 68 64 170 67 "},"M":{"ha":2472,"x_min":58,"x_max":2435,"o":"m 68 64 l 68 0 l 787 0 l 787 64 q 671 81 719 66 q 592 122 624 96 q 542 182 560 147 q 513 260 523 218 q 502 351 504 302 q 499 453 499 400 l 499 575 l 983 -24 l 1442 709 l 1442 453 q 1439 351 1442 400 q 1427 260 1436 302 q 1399 182 1418 218 q 1349 121 1381 147 q 1269 81 1317 96 q 1154 64 1221 66 l 1154 0 l 2435 0 l 2435 64 q 2266 87 2333 67 q 2159 153 2199 108 q 2102 270 2119 197 q 2086 453 2086 343 q 2105 634 2086 564 q 2167 744 2125 704 q 2275 798 2209 783 q 2435 812 2341 812 l 2435 876 l 1442 876 l 1283 615 l 1057 876 l 58 876 l 58 812 q 220 798 152 812 q 331 744 288 783 q 396 634 375 704 q 417 453 417 564 q 400 270 417 343 q 344 153 384 197 q 237 87 304 108 q 68 64 170 67 "},"N":{"ha":2258,"x_min":54,"x_max":2235,"o":"m 54 64 l 54 0 l 834 0 l 834 64 q 666 87 733 67 q 559 153 599 108 q 502 270 519 197 q 486 453 486 343 q 489 545 486 504 q 501 621 493 587 q 619 519 558 572 q 742 415 680 467 q 863 311 803 362 q 976 214 922 260 q 1224 0 1102 106 l 1920 0 l 1920 453 q 1926 583 1920 527 q 1946 678 1932 638 q 1984 744 1961 718 q 2042 785 2007 770 q 2125 806 2077 800 q 2235 812 2172 812 l 2235 876 l 1489 876 l 1489 812 q 1648 798 1582 812 q 1756 744 1714 783 q 1818 634 1799 704 q 1837 453 1837 564 l 1836 390 l 1238 876 l 54 876 l 54 812 q 167 806 117 812 q 256 785 217 800 q 322 744 294 770 q 369 678 351 718 q 395 583 387 638 q 404 453 404 527 q 387 270 404 343 q 330 153 370 197 q 223 87 290 108 q 54 64 156 67 "},"O":{"ha":2050,"x_min":71,"x_max":1979,"o":"m 71 437 q 110 264 71 338 q 215 137 148 190 q 373 50 281 84 q 570 -4 464 16 q 792 -31 675 -24 q 1025 -39 908 -39 q 1258 -31 1141 -39 q 1480 -4 1374 -24 q 1677 50 1586 16 q 1835 137 1769 84 q 1941 264 1902 190 q 1979 437 1979 338 q 1941 611 1979 537 q 1835 738 1902 685 q 1677 825 1769 791 q 1480 879 1586 859 q 1258 906 1374 899 q 1025 913 1141 913 q 792 906 908 913 q 570 879 675 899 q 373 825 464 859 q 215 738 281 791 q 110 611 148 685 q 71 437 71 537 m 861 437 q 864 537 861 488 q 873 630 867 586 q 892 713 880 675 q 921 778 903 751 q 963 821 939 806 q 1021 837 988 837 q 1103 807 1071 837 q 1154 723 1135 777 q 1181 596 1173 669 q 1189 437 1189 523 q 1181 279 1189 352 q 1154 152 1173 205 q 1103 68 1135 99 q 1021 38 1071 38 q 941 68 972 38 q 892 152 909 99 q 868 279 874 205 q 861 437 861 352 "},"P":{"ha":2177,"x_min":68,"x_max":2126,"o":"m 68 64 l 68 0 l 1532 0 l 1532 64 q 1359 81 1430 67 q 1241 122 1289 94 q 1168 194 1194 150 q 1132 304 1143 239 q 1242 300 1187 303 q 1353 295 1297 298 q 1467 289 1409 292 q 1586 287 1525 287 q 1728 291 1659 287 q 1856 308 1796 296 q 1966 340 1916 319 q 2051 392 2016 360 q 2106 468 2087 423 q 2126 572 2126 512 q 2071 726 2126 667 q 1901 819 2017 785 q 1603 864 1784 852 q 1166 876 1421 876 l 68 876 l 68 812 q 180 806 130 812 q 269 785 231 800 q 336 744 308 770 q 382 678 364 718 q 409 583 400 638 q 417 453 417 527 q 400 270 417 343 q 344 153 384 197 q 237 87 304 108 q 68 64 170 67 m 1124 389 q 1122 420 1122 404 q 1122 453 1122 435 l 1122 793 q 1237 781 1186 791 q 1324 748 1289 771 q 1379 688 1360 726 q 1398 592 1398 650 q 1378 503 1398 539 q 1321 442 1358 466 q 1235 405 1285 418 q 1124 389 1184 393 "},"Q":{"ha":2050,"x_min":71,"x_max":1979,"o":"m 71 437 q 102 279 71 348 q 189 158 134 210 q 321 72 245 107 q 489 14 398 37 q 680 -20 579 -9 q 886 -36 781 -32 q 846 -68 865 -50 q 815 -105 828 -85 q 794 -145 802 -124 q 787 -187 787 -166 q 816 -258 787 -230 q 892 -303 845 -286 q 1000 -326 939 -319 q 1124 -333 1061 -333 q 1244 -329 1193 -333 q 1339 -319 1296 -326 q 1423 -303 1383 -313 q 1508 -284 1463 -294 l 1508 -229 q 1474 -232 1491 -231 q 1440 -233 1457 -233 q 1358 -229 1399 -233 q 1281 -217 1318 -225 q 1213 -195 1244 -208 q 1159 -162 1182 -181 q 1123 -118 1136 -142 q 1110 -61 1110 -93 q 1110 -50 1110 -56 q 1112 -37 1110 -43 q 1328 -25 1221 -35 q 1532 7 1435 -15 q 1710 63 1628 28 q 1852 150 1792 98 q 1945 273 1912 202 q 1979 437 1979 344 q 1941 611 1979 537 q 1835 738 1902 685 q 1677 825 1769 791 q 1480 879 1586 859 q 1258 906 1374 899 q 1025 913 1141 913 q 792 906 908 913 q 570 879 675 899 q 373 825 464 859 q 215 738 281 791 q 110 611 148 685 q 71 437 71 537 m 861 437 q 864 537 861 488 q 873 630 867 586 q 892 713 880 675 q 921 778 903 751 q 963 821 939 806 q 1021 837 988 837 q 1103 807 1071 837 q 1154 723 1135 777 q 1181 596 1173 669 q 1189 437 1189 523 q 1181 279 1189 352 q 1154 152 1173 205 q 1103 68 1135 99 q 1021 38 1071 38 q 941 68 972 38 q 892 152 909 99 q 868 279 874 205 q 861 437 861 352 "},"R":{"ha":2305,"x_min":68,"x_max":2268,"o":"m 68 64 l 68 0 l 1288 0 l 1288 64 q 1213 81 1243 64 q 1163 136 1182 98 q 1134 238 1143 175 q 1123 392 1125 300 q 1239 375 1194 388 q 1309 338 1283 363 q 1348 276 1335 314 q 1366 184 1360 239 q 1378 104 1371 138 q 1403 45 1386 70 q 1448 4 1419 20 q 1525 -21 1477 -12 q 1642 -35 1573 -31 q 1810 -39 1712 -39 q 1902 -37 1853 -39 q 2006 -30 1950 -35 q 2126 -19 2062 -26 q 2268 -4 2191 -13 l 2268 64 q 2207 68 2231 64 q 2168 83 2184 73 q 2143 111 2153 94 q 2127 156 2134 129 q 2102 241 2116 203 q 2068 308 2089 279 q 2015 359 2047 338 q 1935 394 1983 380 q 1822 415 1888 408 q 1664 421 1755 421 l 1376 421 q 1572 427 1478 422 q 1748 442 1666 431 q 1897 471 1830 453 q 2013 515 1965 489 q 2087 578 2061 542 q 2114 662 2114 614 q 2093 744 2114 709 q 2025 802 2072 779 q 1905 840 1979 826 q 1726 862 1831 854 q 1482 873 1621 870 q 1166 876 1343 876 l 68 876 l 68 812 q 180 806 130 812 q 269 785 231 800 q 336 744 308 770 q 382 678 364 718 q 409 583 400 638 q 417 453 417 527 q 400 270 417 343 q 344 153 384 197 q 237 87 304 108 q 68 64 170 67 m 1122 467 l 1122 794 q 1247 785 1191 792 q 1344 759 1303 777 q 1406 711 1384 741 q 1428 632 1428 680 q 1405 555 1428 586 q 1341 506 1382 525 q 1244 478 1301 488 q 1122 467 1188 469 "},"S":{"ha":1926,"x_min":139,"x_max":1856,"o":"m 205 -39 q 265 -24 239 -30 q 317 -15 292 -18 q 370 -10 342 -12 q 433 -9 397 -9 q 599 -14 522 -9 q 752 -24 677 -18 q 904 -34 827 -29 q 1067 -39 981 -39 q 1261 -35 1165 -39 q 1445 -19 1358 -31 q 1608 14 1533 -7 q 1738 69 1683 35 q 1825 152 1794 103 q 1856 267 1856 200 q 1829 390 1856 339 q 1755 476 1802 441 q 1646 532 1708 511 q 1514 565 1584 553 q 1370 585 1444 578 q 1226 597 1297 591 q 1094 612 1156 604 q 985 635 1032 620 q 911 676 939 650 q 884 741 884 701 q 897 777 884 760 q 932 807 909 794 q 990 829 956 821 q 1069 837 1025 837 q 1222 828 1148 837 q 1362 804 1296 819 q 1483 767 1428 788 q 1581 722 1539 746 q 1652 671 1624 697 q 1689 618 1679 644 l 1765 618 q 1764 657 1765 633 q 1758 709 1762 682 q 1750 767 1755 737 q 1740 825 1746 797 q 1728 876 1734 852 q 1714 913 1721 899 q 1653 899 1679 905 q 1600 890 1626 893 q 1547 885 1575 886 q 1483 884 1520 884 q 1359 888 1425 884 q 1222 899 1294 893 q 1074 909 1151 904 q 918 913 998 913 q 721 907 817 913 q 537 886 624 901 q 378 846 451 871 q 252 786 304 822 q 169 702 199 750 q 139 592 139 654 q 168 475 139 524 q 245 393 196 427 q 360 339 294 360 q 499 306 425 319 q 650 287 572 294 q 801 275 727 281 q 940 263 874 270 q 1054 244 1005 256 q 1132 211 1103 232 q 1160 157 1160 191 q 1144 115 1160 134 q 1088 80 1128 95 q 984 57 1049 66 q 821 49 919 49 q 700 54 762 49 q 579 70 639 59 q 465 100 520 81 q 363 144 410 118 q 280 206 317 171 q 221 287 243 241 l 152 287 q 154 245 152 271 q 159 188 155 219 q 167 122 162 156 q 178 58 172 89 q 191 1 184 26 q 205 -39 197 -24 "},"T":{"ha":1946,"x_min":79,"x_max":1868,"o":"m 271 64 l 271 0 l 1674 0 l 1674 64 q 1509 86 1575 67 q 1402 148 1442 105 q 1345 259 1362 190 q 1326 431 1327 328 l 1326 793 q 1474 744 1400 778 q 1611 660 1548 709 q 1723 550 1674 611 q 1796 420 1772 488 l 1868 420 q 1867 483 1868 446 q 1864 560 1866 519 q 1859 645 1862 601 q 1852 730 1856 688 q 1844 809 1849 772 q 1833 876 1839 846 l 113 876 q 102 809 107 846 q 94 730 98 772 q 87 645 90 688 q 82 560 84 601 q 80 483 81 519 q 79 420 79 446 l 150 420 q 218 555 172 493 q 327 665 264 616 q 464 745 389 713 q 621 793 539 778 l 621 453 q 604 270 621 343 q 547 153 587 197 q 440 87 507 108 q 271 64 373 67 "},"U":{"ha":2340,"x_min":61,"x_max":2321,"o":"m 410 460 l 410 417 q 445 234 410 309 q 539 107 479 158 q 683 27 600 56 q 863 -16 766 -1 q 1068 -35 960 -31 q 1284 -39 1175 -39 q 1476 -32 1386 -39 q 1640 -5 1565 -24 q 1775 50 1716 15 q 1876 140 1834 85 q 1939 275 1917 196 q 1961 462 1961 354 q 1982 642 1961 573 q 2047 748 2003 711 q 2160 799 2091 786 q 2321 812 2228 812 l 2321 876 l 1608 876 l 1608 812 q 1720 793 1672 812 q 1801 732 1769 775 q 1849 619 1833 690 q 1866 444 1866 549 q 1841 282 1866 351 q 1771 169 1815 214 q 1665 102 1726 124 q 1531 81 1603 81 q 1399 104 1463 81 q 1286 173 1335 127 q 1206 289 1236 220 q 1176 450 1176 358 q 1193 622 1176 552 q 1241 733 1209 691 q 1322 793 1274 775 q 1433 812 1370 812 l 1433 876 l 61 876 l 61 812 q 218 798 152 812 q 326 746 283 785 q 390 639 369 708 q 410 460 410 570 "},"V":{"ha":2109,"x_min":68,"x_max":2072,"o":"m 666 0 l 1432 0 q 1540 247 1489 134 q 1640 449 1591 359 q 1738 607 1689 539 q 1839 721 1787 675 q 1949 789 1891 766 q 2072 812 2006 812 l 2072 876 l 1460 876 l 1460 812 q 1539 806 1508 812 q 1591 788 1571 800 q 1619 759 1611 777 q 1628 718 1628 741 q 1619 675 1628 704 q 1596 609 1611 647 q 1562 525 1581 570 q 1521 432 1543 479 q 1477 337 1500 384 q 1434 248 1455 290 q 1394 173 1413 206 q 1363 120 1376 140 q 1300 240 1332 178 q 1240 365 1269 303 q 1186 483 1211 426 q 1143 588 1162 541 q 1114 670 1124 635 q 1103 721 1103 705 q 1116 766 1103 748 q 1152 793 1129 783 q 1205 808 1175 804 q 1272 812 1236 812 l 1272 876 l 68 876 l 68 812 q 204 754 134 812 q 348 591 274 697 q 502 335 422 486 q 666 0 581 185 "},"W":{"ha":2893,"x_min":68,"x_max":2856,"o":"m 558 0 l 1282 0 q 1374 288 1334 159 q 1455 513 1414 416 q 1531 289 1490 415 q 1621 0 1572 162 l 2327 0 q 2405 247 2369 134 q 2477 449 2441 359 q 2550 607 2513 539 q 2632 721 2588 675 q 2731 789 2677 766 q 2856 812 2786 812 l 2856 876 l 2315 876 l 2315 811 q 2359 802 2340 811 q 2389 780 2377 793 q 2406 750 2401 766 q 2412 718 2412 733 q 2406 647 2412 688 q 2389 558 2399 606 q 2364 459 2378 511 q 2333 356 2349 407 q 2300 258 2317 305 q 2266 171 2283 210 q 2197 344 2226 256 q 2149 507 2167 431 q 2122 640 2130 583 q 2113 721 2113 696 q 2119 754 2113 738 q 2136 783 2125 770 q 2164 803 2147 795 q 2204 810 2181 810 l 2204 876 l 1270 876 l 1270 808 q 1341 778 1320 808 q 1362 696 1362 749 q 1350 596 1362 653 q 1317 473 1337 540 q 1272 332 1297 407 q 1219 178 1246 257 q 1170 292 1192 234 q 1130 405 1147 349 q 1099 510 1112 460 q 1077 602 1086 560 q 1064 674 1069 643 q 1060 721 1060 705 q 1081 785 1060 760 q 1144 810 1102 810 l 1144 876 l 68 876 l 68 812 q 144 804 106 812 q 217 777 182 795 q 283 730 252 759 q 337 658 313 701 q 382 557 356 623 q 439 405 409 492 q 499 214 469 317 q 558 0 530 110 "},"X":{"ha":2176,"x_min":68,"x_max":2139,"o":"m 68 64 l 68 0 l 646 0 l 646 64 q 505 136 505 64 q 526 183 505 154 q 580 248 547 213 q 656 320 614 283 q 740 391 698 357 q 810 302 777 345 q 866 225 842 259 q 903 169 890 191 q 917 139 917 146 q 905 103 917 117 q 873 80 893 88 q 829 67 854 71 q 778 64 804 64 l 778 0 l 2139 0 l 2139 64 q 2067 68 2106 64 q 1988 83 2029 73 q 1906 110 1948 93 q 1825 151 1865 126 q 1747 209 1789 172 q 1660 289 1704 245 q 1570 384 1615 334 q 1484 482 1525 433 q 1651 602 1566 544 q 1830 715 1735 661 q 1904 756 1871 739 q 1965 787 1936 774 q 2021 805 1994 799 q 2076 812 2047 812 l 2076 876 l 1522 876 l 1522 812 q 1638 739 1638 812 q 1622 701 1638 724 q 1578 651 1605 678 q 1514 595 1550 624 q 1438 537 1478 566 q 1377 614 1405 578 q 1329 679 1350 650 q 1298 726 1309 707 q 1286 749 1286 744 q 1295 778 1286 766 q 1318 797 1303 789 q 1354 808 1333 804 q 1397 812 1374 812 l 1397 876 l 93 876 l 93 812 q 161 808 123 812 q 238 796 199 804 q 315 775 277 788 q 384 745 353 762 q 453 694 416 726 q 531 624 491 663 q 611 541 570 585 q 691 450 652 496 q 571 350 632 399 q 451 258 511 301 q 336 180 392 216 q 231 118 280 144 q 139 78 181 92 q 68 64 98 64 "},"Y":{"ha":2155,"x_min":68,"x_max":2118,"o":"m 337 64 l 337 0 l 1858 0 l 1858 64 q 1704 76 1776 64 q 1577 115 1631 88 q 1492 183 1523 141 q 1460 286 1460 226 q 1483 376 1460 323 q 1550 487 1507 429 q 1652 602 1592 545 q 1785 705 1712 659 q 1942 781 1858 751 q 2118 812 2026 810 l 2118 876 l 1413 876 l 1413 812 q 1480 804 1454 812 q 1522 782 1507 795 q 1544 752 1537 769 q 1550 718 1550 735 q 1531 652 1550 693 q 1486 564 1513 611 q 1426 469 1458 517 q 1368 382 1394 421 q 1282 497 1320 445 q 1218 592 1244 550 q 1178 667 1192 635 q 1164 721 1164 699 q 1196 787 1164 763 q 1287 812 1227 812 l 1287 876 l 68 876 l 68 812 q 177 796 120 812 q 291 752 233 781 q 406 683 349 723 q 516 593 463 642 q 617 486 569 543 q 707 368 666 429 l 707 274 q 686 209 707 244 q 621 141 665 173 q 506 88 576 110 q 337 64 435 66 "},"Z":{"ha":1860,"x_min":64,"x_max":1815,"o":"m 64 73 l 64 0 l 1815 0 l 1815 345 q 1784 344 1798 344 l 1752 344 q 1716 209 1752 260 q 1600 129 1680 157 q 1394 89 1520 100 q 1088 77 1267 79 q 1322 341 1223 228 q 1492 536 1421 454 q 1612 671 1563 618 q 1696 755 1661 724 q 1758 799 1731 787 q 1813 812 1785 812 l 1813 876 l 139 876 l 139 531 l 172 531 q 194 531 184 531 q 204 532 203 532 q 217 631 204 589 q 258 703 229 673 q 333 752 286 733 q 449 783 380 772 q 611 799 518 794 q 825 804 704 804 q 587 539 689 652 q 409 345 485 427 q 280 211 334 264 q 187 128 227 159 q 119 85 148 97 q 64 73 90 73 "},"[":{"ha":832,"x_min":173,"x_max":805,"o":"m 173 1069 l 173 -195 l 802 -195 l 804 -111 q 675 -107 728 -111 q 587 -86 623 -103 q 531 -34 551 -69 q 500 62 511 1 q 488 216 490 123 q 485 441 485 309 q 488 668 485 574 q 500 823 490 761 q 531 920 511 885 q 587 973 551 956 q 676 995 623 991 q 805 1000 729 1000 l 803 1069 l 173 1069 "},"\\":{"ha":754,"x_min":-41,"x_max":795,"o":"m 328 382 q 359 321 340 359 q 402 235 378 283 q 453 133 426 187 q 507 22 479 78 q 560 -87 534 -34 q 608 -188 586 -141 q 646 -270 629 -234 q 671 -326 663 -306 q 734 -302 703 -317 q 795 -264 766 -287 q 764 -211 783 -246 q 719 -131 744 -176 q 666 -31 694 -85 q 609 78 638 22 q 552 188 580 134 q 500 290 524 243 q 457 374 475 337 q 427 433 438 412 q 393 500 414 460 q 349 589 373 541 q 299 691 326 637 q 246 799 273 745 q 195 906 220 853 q 148 1004 170 958 q 109 1086 126 1050 q 83 1146 92 1123 q 70 1142 78 1145 q 52 1135 61 1139 q 33 1127 42 1131 q 18 1120 24 1123 q 5 1113 14 1118 q -12 1103 -3 1109 q -28 1093 -20 1098 q -41 1084 -36 1088 q -8 1027 -28 1063 q 36 944 12 991 q 90 844 61 898 q 147 735 118 791 q 203 626 176 680 q 256 525 231 572 q 299 441 280 478 q 328 382 317 404 "},"]":{"ha":832,"x_min":28,"x_max":659,"o":"m 29 -125 l 29 -195 l 659 -195 l 659 1069 l 30 1069 l 28 986 q 157 982 104 986 q 245 961 210 978 q 301 909 281 944 q 332 813 321 874 q 345 659 342 751 q 347 433 347 566 q 345 207 347 300 q 332 52 342 114 q 301 -45 321 -10 q 245 -98 281 -81 q 157 -120 210 -116 q 29 -125 104 -125 "},"^":{"ha":1081,"x_min":204,"x_max":903,"o":"m 204 203 q 260 167 232 182 q 319 140 288 152 l 554 726 l 788 140 q 847 167 820 152 q 903 203 875 182 q 735 547 814 377 q 594 876 656 717 l 513 876 q 372 547 452 717 q 204 203 293 377 "},"_":{"ha":1322,"x_min":-41,"x_max":1362,"o":"m 1362 -240 l -41 -240 l -41 -363 l 1362 -363 l 1362 -240 "},"`":{"ha":1158,"x_min":215,"x_max":996,"o":"m 314 953 q 380 933 334 944 q 496 905 426 922 q 660 864 566 888 q 870 805 753 840 l 996 805 q 859 888 926 846 q 732 969 792 930 q 620 1044 672 1009 q 525 1107 567 1079 q 455 1153 484 1135 q 412 1177 426 1171 q 373 1190 393 1186 q 334 1194 353 1194 q 291 1186 312 1194 q 253 1164 269 1179 q 225 1128 236 1149 q 215 1078 215 1106 q 241 1005 215 1038 q 314 953 267 972 "},"a":{"ha":1935,"x_min":85,"x_max":1908,"o":"m 85 150 q 115 74 85 107 q 196 17 144 40 q 318 -18 248 -6 q 467 -31 387 -31 q 680 -21 589 -31 q 837 3 771 -12 q 946 37 902 18 q 1018 76 989 56 q 1077 20 1040 41 q 1166 -13 1114 -1 q 1282 -27 1217 -24 q 1423 -31 1347 -31 q 1547 -27 1487 -31 q 1661 -14 1607 -24 q 1761 14 1715 -4 q 1839 62 1806 32 q 1890 137 1872 93 q 1908 241 1908 180 l 1832 241 q 1821 183 1830 208 q 1796 140 1811 157 q 1763 115 1782 123 q 1723 106 1744 106 q 1679 114 1699 106 q 1644 142 1659 121 q 1620 202 1629 163 q 1612 304 1612 241 l 1612 467 q 1578 580 1612 534 q 1487 656 1545 626 q 1350 704 1428 687 q 1181 729 1271 721 q 996 739 1092 737 q 805 741 899 741 q 673 736 741 741 q 539 722 604 732 q 415 697 473 712 q 312 662 356 682 q 241 614 267 641 q 215 553 215 587 q 240 494 215 522 q 307 447 264 467 q 403 415 349 427 q 518 404 458 404 q 641 412 584 404 q 741 438 699 421 q 808 480 783 455 q 832 540 832 506 q 811 594 832 570 q 753 635 791 618 q 662 661 715 652 q 545 670 609 670 q 634 674 586 673 q 731 675 683 675 q 846 665 798 675 q 927 632 895 655 q 974 572 958 610 q 989 481 989 535 l 989 334 q 903 341 954 338 q 790 347 852 345 q 659 351 728 349 q 516 352 589 352 q 356 343 434 352 q 218 311 279 334 q 121 249 158 288 q 85 150 85 210 m 685 183 q 697 227 685 210 q 732 254 709 244 q 791 267 755 264 q 872 271 826 271 q 930 270 900 271 q 989 269 960 270 l 989 196 q 996 130 989 157 q 938 111 966 117 q 885 101 910 104 q 838 97 860 98 q 798 96 816 96 q 744 105 766 96 q 710 126 723 113 q 691 154 696 139 q 685 183 685 170 "},"b":{"ha":1808,"x_min":-127,"x_max":1731,"o":"m 156 18 l 213 -12 q 337 11 262 5 q 522 18 412 18 q 673 10 602 18 q 818 -6 745 3 q 971 -23 891 -16 q 1147 -31 1051 -31 q 1392 -6 1284 -31 q 1576 68 1501 19 q 1691 191 1651 117 q 1731 363 1731 265 q 1694 522 1731 452 q 1587 640 1656 591 q 1420 715 1518 689 q 1204 741 1323 741 q 1057 732 1122 741 q 940 710 991 724 q 850 678 888 696 q 783 637 811 659 l 783 1010 l -127 949 l -127 886 q 16 871 -43 886 q 113 811 75 855 q 169 686 151 766 q 186 477 186 606 q 186 337 186 398 q 185 229 186 276 q 181 149 184 182 q 176 91 179 115 q 168 49 172 66 q 156 18 163 32 m 783 85 l 783 532 q 812 567 795 551 q 851 594 829 583 q 897 611 872 605 q 948 618 922 618 q 1002 598 981 618 q 1036 543 1023 578 q 1054 455 1048 507 q 1059 340 1059 404 q 1053 209 1059 263 q 1031 121 1046 155 q 990 72 1016 87 q 927 56 965 56 q 853 64 888 56 q 783 85 817 71 "},"c":{"ha":1686,"x_min":83,"x_max":1626,"o":"m 83 349 q 116 217 83 274 q 207 118 149 160 q 348 47 266 76 q 530 2 430 19 q 743 -23 629 -16 q 980 -31 857 -31 q 1146 -23 1065 -31 q 1299 1 1227 -15 q 1431 40 1371 16 q 1534 94 1491 63 q 1601 165 1577 125 q 1626 252 1626 204 l 1542 252 q 1509 185 1542 216 q 1420 131 1476 155 q 1292 94 1364 108 q 1141 81 1219 81 q 1045 89 1093 81 q 955 113 998 97 q 874 155 911 130 q 810 214 838 180 q 768 291 783 248 q 753 387 753 334 q 780 523 753 468 q 852 610 807 577 q 955 657 897 643 q 1075 671 1013 671 q 1159 666 1118 671 q 1240 650 1201 661 q 1121 638 1172 650 q 1036 606 1070 626 q 984 561 1002 586 q 967 509 967 535 q 992 451 967 477 q 1062 406 1018 425 q 1166 376 1106 387 q 1295 366 1226 366 q 1424 380 1367 366 q 1519 419 1480 395 q 1578 474 1558 443 q 1598 538 1598 505 q 1574 597 1598 570 q 1508 647 1550 625 q 1406 687 1465 669 q 1278 716 1348 705 q 1132 734 1209 728 q 974 741 1054 741 q 746 731 857 741 q 535 702 634 722 q 353 651 436 682 q 211 577 271 621 q 117 476 151 533 q 83 349 83 420 "},"d":{"ha":1904,"x_min":77,"x_max":1887,"o":"m 77 354 q 113 206 77 276 q 217 84 150 136 q 379 0 284 31 q 590 -31 474 -31 q 759 -22 688 -31 q 880 1 829 -14 q 965 36 930 16 q 1024 79 999 56 q 1042 44 1031 61 q 1065 15 1053 28 q 1092 -5 1078 3 q 1122 -12 1107 -12 q 1214 -12 1156 -12 q 1341 -9 1272 -11 q 1487 -7 1411 -8 q 1637 -4 1564 -5 q 1776 -2 1711 -3 q 1887 -1 1841 -1 l 1887 62 q 1783 72 1826 64 q 1711 94 1740 80 q 1664 127 1681 107 q 1636 175 1646 147 q 1624 238 1627 202 q 1622 317 1622 273 l 1622 1010 l 698 949 l 698 886 q 841 877 782 886 q 939 842 901 867 q 994 773 977 817 q 1012 662 1012 730 l 1012 646 q 933 686 975 669 q 841 716 892 704 q 727 734 789 728 q 586 741 664 741 q 390 718 483 741 q 228 647 298 694 q 117 527 158 600 q 77 354 77 454 m 736 357 q 760 566 736 497 q 838 634 784 634 q 876 630 855 634 q 919 618 896 627 q 965 594 941 609 q 1012 559 989 580 l 1012 167 q 943 107 987 130 q 846 85 899 85 q 793 104 814 85 q 759 158 772 123 q 741 243 746 193 q 736 357 736 294 "},"e":{"ha":1706,"x_min":77,"x_max":1619,"o":"m 77 338 q 138 164 77 235 q 311 51 199 94 q 581 -12 422 7 q 934 -31 739 -31 q 1104 -23 1020 -31 q 1264 -2 1188 -16 q 1406 36 1341 13 q 1518 90 1470 58 q 1592 161 1565 121 q 1619 252 1619 201 l 1530 252 q 1511 196 1530 221 q 1458 150 1491 170 q 1380 114 1425 129 q 1284 88 1335 98 q 1180 72 1234 77 q 1074 67 1126 67 q 928 82 990 67 q 825 130 867 96 q 761 218 783 163 q 734 351 739 272 l 1619 351 q 1569 528 1619 454 q 1427 649 1518 602 q 1205 718 1335 696 q 916 741 1076 741 q 688 730 797 741 q 487 697 580 719 q 317 642 393 675 q 188 564 241 609 q 106 463 135 519 q 77 338 77 406 m 1008 427 l 734 427 q 749 531 736 488 q 782 603 762 575 q 828 645 802 631 q 883 658 854 658 q 932 645 909 658 q 972 604 956 631 q 999 532 989 576 q 1008 427 1008 488 "},"f":{"ha":1513,"x_min":41,"x_max":1632,"o":"m 41 64 l 41 0 l 1346 0 l 1346 64 q 1175 81 1249 68 q 1051 122 1101 94 q 976 199 1001 151 q 951 319 951 246 l 951 502 l 1384 502 l 1384 595 l 951 595 l 951 600 q 948 626 951 608 q 942 673 945 645 q 937 739 939 702 q 935 821 935 777 q 943 890 935 859 q 978 944 952 921 q 1048 979 1003 966 q 1165 992 1093 992 q 1229 986 1198 992 q 1284 970 1259 981 q 1166 961 1217 970 q 1081 933 1115 951 q 1031 893 1048 916 q 1014 844 1014 870 q 1038 792 1014 817 q 1105 750 1063 768 q 1205 721 1148 732 q 1329 710 1263 710 q 1457 723 1401 710 q 1552 757 1514 735 q 1611 809 1591 779 q 1632 872 1632 838 q 1602 954 1632 917 q 1510 1016 1573 990 q 1350 1057 1448 1042 q 1116 1072 1253 1072 q 911 1066 1009 1072 q 729 1045 814 1060 q 575 1006 644 1031 q 457 944 506 982 q 381 855 408 907 q 355 734 355 803 l 355 586 l 61 566 l 61 502 l 355 502 l 355 319 q 340 205 355 252 q 289 129 325 159 q 192 83 252 98 q 41 64 132 67 "},"g":{"ha":1765,"x_min":1,"x_max":1753,"o":"m 1 -186 q 34 -247 1 -222 q 125 -289 67 -272 q 260 -317 182 -307 q 429 -333 338 -328 q 617 -341 519 -339 q 813 -342 715 -342 q 958 -341 883 -342 q 1108 -336 1034 -340 q 1256 -323 1183 -332 q 1393 -302 1329 -315 q 1513 -268 1458 -288 q 1609 -220 1569 -248 q 1671 -154 1649 -191 q 1693 -67 1693 -116 q 1667 20 1693 -15 q 1596 77 1641 55 q 1488 109 1550 98 q 1354 124 1426 120 q 1202 129 1281 129 q 1042 129 1122 129 l 683 129 q 602 132 641 129 q 534 142 564 135 q 487 160 505 149 q 469 188 469 172 q 474 205 469 197 q 488 218 479 213 q 506 227 496 224 q 526 231 516 231 l 526 234 q 667 223 594 227 q 817 220 741 220 q 1000 225 910 220 q 1170 242 1090 231 q 1318 272 1251 254 q 1435 319 1386 291 q 1512 384 1485 347 q 1539 469 1539 421 q 1525 533 1539 504 q 1485 588 1511 563 q 1421 633 1459 612 q 1338 670 1384 654 q 1383 676 1359 675 q 1433 677 1407 677 l 1590 677 q 1631 679 1609 677 q 1671 688 1652 682 q 1706 703 1691 694 q 1729 727 1721 713 q 1740 756 1735 740 q 1746 789 1744 772 q 1750 818 1749 805 q 1753 838 1752 831 q 1706 840 1727 840 q 1666 842 1684 841 q 1631 842 1647 842 q 1599 842 1615 842 q 1497 840 1549 842 q 1397 823 1444 837 q 1311 780 1350 809 q 1249 696 1272 750 q 1045 730 1155 720 q 817 741 935 741 q 634 734 724 741 q 464 713 544 727 q 315 677 383 699 q 198 626 248 656 q 121 556 149 595 q 94 469 94 517 q 118 388 94 424 q 186 326 142 353 q 292 279 231 298 q 426 248 353 260 q 339 221 380 237 q 269 184 299 205 q 221 138 239 163 q 203 83 203 113 q 238 6 203 40 q 328 -51 272 -27 q 203 -70 262 -58 q 99 -98 144 -82 q 28 -137 54 -115 q 1 -186 1 -159 m 679 480 q 686 553 679 519 q 710 612 694 587 q 752 652 726 637 q 816 667 779 667 q 880 652 853 667 q 923 612 906 637 q 947 553 939 587 q 954 480 954 519 q 947 410 954 444 q 923 351 939 377 q 880 310 906 326 q 816 295 853 295 q 752 310 779 295 q 710 351 726 326 q 686 410 694 377 q 679 480 679 444 m 488 -182 q 531 -100 488 -130 q 572 -103 551 -102 q 613 -104 593 -104 q 778 -105 699 -104 q 924 -108 856 -106 q 1046 -116 991 -111 q 1140 -131 1101 -121 q 1200 -154 1179 -140 q 1221 -189 1221 -168 q 1205 -220 1221 -207 q 1161 -242 1189 -233 q 1096 -257 1133 -251 q 1017 -265 1059 -262 q 930 -269 975 -268 q 844 -270 886 -270 q 698 -266 764 -270 q 585 -253 632 -262 q 513 -226 538 -243 q 488 -182 488 -209 "},"h":{"ha":2058,"x_min":31,"x_max":2047,"o":"m 51 64 l 51 0 l 1019 0 l 1019 52 q 982 87 997 66 q 958 140 967 109 q 945 216 949 172 q 941 319 941 260 l 941 537 q 993 551 967 546 q 1043 556 1019 556 q 1096 549 1072 556 q 1139 519 1121 543 q 1168 451 1158 496 q 1179 331 1179 406 q 1175 226 1179 272 q 1161 146 1171 180 q 1137 89 1152 113 q 1101 52 1122 66 l 1101 0 l 2047 0 l 2047 64 q 1946 71 1988 64 q 1878 91 1905 77 q 1835 124 1850 104 q 1812 171 1820 144 q 1803 231 1805 197 q 1801 304 1801 264 q 1803 362 1801 336 q 1805 415 1805 389 q 1790 546 1805 492 q 1752 636 1776 600 q 1695 693 1728 673 q 1626 725 1663 714 q 1550 738 1589 735 q 1474 741 1512 741 q 1333 730 1402 741 q 1197 703 1263 720 q 1066 661 1130 685 q 941 610 1002 637 l 941 1010 l 31 949 l 31 886 q 174 871 115 886 q 271 811 233 855 q 327 686 309 766 q 345 477 345 606 q 340 329 345 393 q 322 221 335 266 q 289 146 310 176 q 235 100 268 117 q 157 74 203 82 q 51 64 112 66 "},"i":{"ha":1287,"x_min":51,"x_max":1277,"o":"m 317 984 q 344 920 317 950 q 419 868 372 890 q 529 833 466 846 q 664 820 593 820 q 799 833 736 820 q 910 868 863 846 q 985 920 958 890 q 1012 984 1012 950 q 985 1049 1012 1019 q 910 1101 958 1079 q 799 1137 863 1124 q 664 1149 736 1149 q 529 1137 593 1149 q 419 1101 466 1124 q 344 1049 372 1079 q 317 984 317 1019 m 51 64 l 51 0 l 1277 0 l 1277 64 q 1128 87 1185 67 q 1039 144 1071 108 q 995 231 1006 180 q 983 349 983 283 l 983 729 l 73 668 l 73 604 q 217 590 157 604 q 314 545 276 576 q 370 466 352 514 q 387 349 387 417 q 370 231 387 283 q 312 144 352 180 q 209 87 273 108 q 51 64 144 67 "},"j":{"ha":1103,"x_min":-12,"x_max":914,"o":"m 564 820 q 700 833 636 820 q 810 868 763 846 q 885 920 858 890 q 912 984 912 950 q 885 1049 912 1019 q 810 1101 858 1079 q 700 1137 763 1124 q 564 1149 636 1149 q 430 1137 493 1149 q 319 1101 366 1124 q 244 1049 272 1079 q 217 984 217 1019 q 244 920 217 950 q 319 868 272 890 q 430 833 366 846 q 564 820 493 820 m 10 -195 l 10 -275 q 107 -288 56 -281 q 214 -301 159 -295 q 325 -310 269 -307 q 435 -313 381 -313 q 557 -307 497 -313 q 670 -287 617 -301 q 768 -248 724 -272 q 846 -186 813 -223 q 896 -99 878 -149 q 914 18 914 -48 q 913 107 914 58 q 910 214 911 157 q 907 333 908 271 q 905 459 905 395 q 906 608 905 537 q 906 729 906 680 l -12 668 l -12 604 q 131 585 72 604 q 229 530 191 566 q 284 441 267 494 q 302 320 302 388 l 302 45 q 297 -54 302 -8 q 275 -133 292 -100 q 227 -185 258 -166 q 141 -204 195 -204 q 82 -202 115 -204 q 10 -195 50 -199 "},"k":{"ha":1969,"x_min":51,"x_max":1959,"o":"m 51 64 l 51 0 l 1078 0 l 1078 64 q 1022 77 1044 64 q 986 119 1000 91 q 967 192 973 148 q 961 297 962 236 q 1058 284 1022 296 q 1113 253 1093 273 q 1139 208 1132 233 q 1152 155 1146 182 q 1166 87 1158 117 q 1190 37 1175 58 q 1229 1 1204 15 q 1293 -22 1253 -14 q 1390 -35 1333 -31 q 1527 -39 1447 -39 q 1675 -35 1605 -39 q 1803 -26 1746 -32 q 1901 -15 1860 -21 q 1959 -4 1942 -9 l 1959 67 q 1921 80 1943 69 q 1877 111 1899 90 q 1836 164 1855 132 q 1805 241 1817 196 q 1770 307 1794 279 q 1707 351 1746 334 q 1614 375 1668 368 q 1489 383 1560 383 q 1382 380 1440 383 q 1261 371 1324 377 q 1135 357 1199 366 q 1008 339 1070 349 q 1250 474 1132 416 q 1476 570 1368 532 q 1681 627 1584 608 q 1858 646 1777 646 l 1858 709 l 1103 709 l 1103 646 q 1183 642 1154 646 q 1212 624 1212 637 q 1191 592 1212 616 q 1136 535 1171 568 q 1056 465 1101 503 q 961 393 1010 427 l 961 1010 l 51 949 l 51 886 q 194 871 135 886 q 292 811 254 855 q 347 686 330 766 q 365 477 365 606 q 358 329 365 393 q 337 221 352 266 q 299 146 323 176 q 240 100 275 117 q 159 74 205 82 q 51 64 112 66 "},"l":{"ha":1225,"x_min":31,"x_max":1215,"o":"m 51 64 l 51 0 l 1215 0 l 1215 64 q 1081 83 1134 67 q 997 129 1028 98 q 953 205 966 159 q 941 319 941 252 l 941 1010 l 31 949 l 31 886 q 136 880 90 886 q 217 857 182 873 q 276 811 252 840 q 316 736 300 782 q 338 627 331 691 q 345 477 345 564 q 340 325 345 389 q 322 215 335 260 q 289 141 310 170 q 235 97 268 113 q 157 73 203 80 q 51 64 112 66 "},"m":{"ha":2846,"x_min":51,"x_max":2836,"o":"m 51 64 l 51 0 l 1015 0 l 1015 52 q 978 87 993 66 q 954 140 963 109 q 941 216 945 172 q 937 319 937 260 l 937 539 q 986 551 962 547 q 1034 556 1010 556 q 1087 549 1062 556 q 1130 519 1112 543 q 1159 451 1148 496 q 1169 331 1169 406 q 1165 226 1169 272 q 1152 146 1161 180 q 1128 89 1143 113 q 1091 52 1113 66 l 1091 0 l 1834 0 l 1834 52 q 1801 66 1814 52 q 1780 111 1788 81 q 1770 185 1773 140 q 1767 290 1767 230 q 1769 355 1767 321 q 1771 415 1771 389 q 1767 485 1771 453 q 1758 544 1764 517 q 1805 553 1782 549 q 1849 556 1828 556 q 1903 549 1878 556 q 1946 519 1927 543 q 1974 451 1964 496 q 1985 331 1985 406 q 1981 226 1985 272 q 1968 146 1977 180 q 1944 89 1959 113 q 1907 52 1929 66 l 1907 0 l 2836 0 l 2836 64 q 2710 79 2759 64 q 2633 124 2661 94 q 2594 199 2605 154 q 2583 304 2583 244 q 2585 362 2583 336 q 2587 415 2587 389 q 2572 546 2587 492 q 2534 636 2558 600 q 2477 693 2510 673 q 2408 725 2445 714 q 2332 738 2371 735 q 2256 741 2294 741 q 2116 730 2183 741 q 1985 702 2048 720 q 1860 660 1921 684 q 1739 608 1799 636 q 1688 681 1718 654 q 1622 721 1658 707 q 1546 737 1586 734 q 1465 741 1506 741 q 1325 731 1394 741 q 1190 704 1256 721 q 1061 663 1124 686 q 937 612 998 640 l 937 722 l 51 661 l 51 597 q 194 588 135 597 q 292 551 254 578 q 347 472 330 523 q 365 337 365 420 q 348 221 365 271 q 293 138 330 172 q 195 85 255 104 q 51 64 136 67 "},"n":{"ha":2085,"x_min":51,"x_max":2075,"o":"m 51 64 l 51 0 l 1039 0 l 1039 52 q 1002 87 1017 66 q 978 140 987 109 q 965 216 969 172 q 961 319 961 260 l 961 537 q 1014 551 987 546 q 1063 556 1040 556 q 1117 549 1092 556 q 1160 519 1141 543 q 1188 451 1178 496 q 1199 331 1199 406 q 1195 226 1199 272 q 1182 146 1191 180 q 1158 89 1173 113 q 1121 52 1143 66 l 1121 0 l 2075 0 l 2075 64 q 1934 79 1985 64 q 1859 124 1883 94 q 1828 199 1834 154 q 1822 304 1822 244 q 1823 362 1822 336 q 1825 415 1825 389 q 1811 546 1825 492 q 1772 636 1796 600 q 1716 693 1748 673 q 1646 725 1683 714 q 1571 738 1609 735 q 1495 741 1532 741 q 1353 730 1422 741 q 1217 703 1284 720 q 1086 661 1150 685 q 961 610 1022 637 l 961 722 l 51 661 l 51 597 q 194 588 135 597 q 292 551 254 578 q 347 472 330 523 q 365 337 365 420 q 348 221 365 271 q 293 138 330 172 q 195 85 255 104 q 51 64 136 67 "},"o":{"ha":1782,"x_min":77,"x_max":1705,"o":"m 77 355 q 135 184 77 257 q 301 64 194 112 q 558 -7 408 16 q 891 -31 708 -31 q 1224 -7 1074 -31 q 1481 64 1374 16 q 1646 184 1588 112 q 1705 355 1705 257 q 1646 526 1705 453 q 1481 647 1588 599 q 1224 718 1374 694 q 891 741 1074 741 q 558 718 708 741 q 301 647 408 694 q 135 526 194 599 q 77 355 77 453 m 753 355 q 762 476 753 418 q 790 576 772 533 q 833 646 808 620 q 891 671 859 671 q 948 646 923 671 q 992 576 974 620 q 1019 476 1010 533 q 1029 355 1029 418 q 1019 235 1029 292 q 992 135 1010 178 q 948 66 974 92 q 891 41 923 41 q 833 66 859 41 q 790 135 808 92 q 762 235 772 178 q 753 355 753 292 "},"p":{"ha":1946,"x_min":10,"x_max":1869,"o":"m 10 -250 l 10 -313 l 1267 -313 l 1267 -250 q 1099 -231 1166 -246 q 992 -185 1032 -215 q 937 -108 953 -155 q 920 5 920 -61 l 920 65 q 1012 24 962 42 q 1117 -5 1062 7 q 1230 -24 1172 -18 q 1346 -31 1289 -31 q 1552 -5 1457 -31 q 1718 70 1648 20 q 1829 194 1789 119 q 1869 369 1869 269 q 1843 515 1869 447 q 1755 633 1816 583 q 1592 712 1693 683 q 1342 741 1491 741 q 1195 732 1261 741 q 1078 710 1130 724 q 988 678 1027 696 q 920 637 949 659 l 920 728 l 10 667 l 10 604 q 111 596 66 604 q 191 570 156 589 q 251 521 226 552 q 292 443 276 490 q 316 331 309 395 q 324 180 324 266 q 318 31 324 95 q 297 -81 311 -34 q 258 -159 282 -127 q 200 -210 235 -190 q 118 -238 165 -229 q 10 -250 71 -248 m 920 161 l 920 536 q 950 570 932 554 q 988 597 967 586 q 1035 615 1010 608 q 1086 621 1059 621 q 1139 603 1118 621 q 1173 550 1160 585 q 1191 466 1186 515 q 1196 353 1196 416 q 1172 145 1196 213 q 1094 78 1148 78 q 1014 98 1060 78 q 920 161 967 118 "},"q":{"ha":1852,"x_min":77,"x_max":1895,"o":"m 77 357 q 113 203 77 274 q 217 81 150 133 q 379 -1 284 28 q 590 -31 474 -31 q 737 -22 671 -31 q 854 -1 802 -14 q 944 32 905 13 q 1012 72 983 50 l 1012 36 q 993 -82 1012 -31 q 932 -170 974 -134 q 827 -226 891 -205 q 671 -250 762 -246 l 671 -313 l 1895 -313 l 1895 -250 q 1789 -236 1834 -247 q 1712 -202 1744 -224 q 1659 -144 1680 -180 q 1628 -58 1639 -109 q 1612 60 1616 -7 q 1607 213 1607 127 q 1609 335 1607 271 q 1615 462 1611 399 q 1625 584 1619 525 q 1638 692 1630 644 l 1581 722 q 1429 698 1506 705 q 1274 692 1352 692 q 1106 699 1190 692 q 939 716 1023 707 q 768 733 855 725 q 590 741 682 741 q 461 731 525 741 q 341 702 398 722 q 236 651 284 682 q 152 578 187 621 q 97 480 117 535 q 77 357 77 425 m 736 370 q 760 583 736 510 q 838 656 784 656 q 875 654 854 656 q 919 648 896 652 q 965 636 941 644 q 1012 617 989 629 l 1012 161 q 982 127 1000 143 q 943 100 964 111 q 897 82 922 89 q 846 76 873 76 q 793 98 814 76 q 759 160 772 121 q 741 253 746 199 q 736 370 736 307 "},"r":{"ha":1713,"x_min":47,"x_max":1687,"o":"m 47 64 l 47 0 l 1301 0 l 1301 64 q 1138 86 1204 68 q 1032 141 1072 105 q 975 230 992 176 q 958 355 958 283 l 958 553 q 1039 596 998 578 q 1124 626 1080 614 q 1220 642 1169 637 q 1334 648 1272 648 q 1250 638 1293 647 q 1172 612 1207 629 q 1115 568 1137 595 q 1093 505 1093 541 q 1114 448 1093 473 q 1173 403 1135 422 q 1264 374 1211 385 q 1383 364 1317 364 q 1512 380 1455 364 q 1607 421 1569 395 q 1666 478 1646 446 q 1687 543 1687 510 q 1667 624 1687 587 q 1608 686 1648 660 q 1506 726 1567 712 q 1360 741 1444 741 q 1251 733 1306 741 q 1143 711 1195 726 q 1043 676 1090 696 q 958 629 996 655 l 958 729 l 47 668 l 47 604 q 191 590 132 604 q 288 545 250 576 q 344 466 326 514 q 361 349 361 417 q 347 231 361 283 q 295 144 332 180 q 199 87 259 108 q 47 64 138 67 "},"s":{"ha":1657,"x_min":90,"x_max":1573,"o":"m 161 -38 q 197 -20 176 -27 q 242 -8 218 -13 q 291 -1 266 -3 q 340 1 317 1 q 500 -4 416 1 q 671 -15 583 -9 q 852 -26 760 -21 q 1040 -31 945 -31 q 1253 -10 1156 -31 q 1422 46 1351 10 q 1533 132 1493 83 q 1573 241 1573 182 q 1550 337 1573 296 q 1487 407 1527 378 q 1394 456 1447 437 q 1281 489 1341 476 q 1158 511 1221 503 q 1036 526 1095 519 q 923 539 976 532 q 830 555 870 545 q 767 578 790 564 q 744 615 744 593 q 756 645 744 633 q 785 662 768 656 q 820 669 802 667 q 849 671 838 671 q 1056 658 958 671 q 1229 626 1153 646 q 1354 583 1305 607 q 1417 536 1403 559 l 1498 536 q 1495 582 1498 554 q 1488 640 1493 610 q 1477 697 1484 670 q 1463 741 1471 725 q 1426 726 1448 732 q 1378 715 1404 720 q 1326 710 1353 711 q 1276 708 1300 708 q 1210 710 1250 708 q 1120 716 1170 713 q 1014 724 1071 720 q 897 732 957 728 q 775 738 836 736 q 655 741 713 741 q 507 733 578 741 q 372 711 435 726 q 257 673 309 696 q 168 618 205 650 q 111 545 131 587 q 90 452 90 504 q 114 357 90 397 q 180 290 138 317 q 276 245 221 262 q 393 217 331 228 q 520 201 455 207 q 648 191 586 195 q 765 183 710 187 q 861 170 820 178 q 927 148 903 161 q 951 111 951 134 q 912 66 951 84 q 806 49 873 49 q 589 58 690 49 q 410 85 488 68 q 280 128 332 103 q 210 184 229 153 l 127 184 q 130 137 127 168 q 137 73 132 106 q 148 9 141 39 q 161 -38 154 -22 "},"t":{"ha":1390,"x_min":39,"x_max":1376,"o":"m 224 616 l 224 328 q 243 194 224 251 q 297 98 262 138 q 382 33 332 58 q 494 -6 432 8 q 629 -25 556 -20 q 782 -31 701 -31 q 993 -22 902 -31 q 1150 3 1084 -14 q 1259 44 1216 20 q 1329 101 1303 68 q 1365 172 1355 133 q 1376 258 1376 212 l 1294 258 q 1273 164 1294 201 q 1219 105 1253 127 q 1141 74 1185 83 q 1050 65 1097 65 q 954 83 991 65 q 895 142 916 102 q 866 247 873 182 q 858 405 858 312 l 858 616 l 1283 616 l 1283 710 l 858 710 l 858 1015 l 714 1015 q 675 910 706 958 q 595 826 644 863 q 483 761 547 789 q 348 716 420 734 q 197 689 275 698 q 39 680 118 680 l 39 616 l 224 616 "},"u":{"ha":1923,"x_min":5,"x_max":1914,"o":"m 214 214 q 232 114 214 155 q 278 45 249 73 q 346 2 307 18 q 425 -20 384 -13 q 507 -29 466 -27 q 585 -31 549 -31 q 720 -22 656 -31 q 845 1 785 -14 q 962 39 905 17 q 1077 88 1019 60 q 1095 51 1083 68 q 1125 19 1107 33 q 1166 -4 1143 5 q 1219 -12 1190 -12 q 1306 -12 1254 -12 q 1420 -9 1358 -11 q 1550 -7 1482 -8 q 1683 -4 1617 -5 q 1808 -2 1748 -3 q 1914 -1 1868 -1 l 1910 62 q 1781 81 1830 66 q 1707 127 1733 97 q 1673 204 1681 157 q 1665 317 1665 251 l 1665 753 l 929 692 l 929 640 q 983 619 958 632 q 1027 581 1008 606 q 1058 517 1046 556 q 1069 418 1069 477 l 1069 157 q 1022 145 1045 149 q 977 142 998 142 q 909 154 936 142 q 868 192 883 167 q 847 254 852 216 q 841 342 841 292 l 841 741 l 5 680 l 5 616 q 51 618 30 618 q 145 600 110 618 q 197 554 180 583 q 220 491 215 526 q 225 422 225 456 q 223 372 225 399 q 220 317 222 345 q 216 262 218 289 q 214 214 214 235 "},"v":{"ha":1778,"x_min":7,"x_max":1771,"o":"m 556 0 l 1251 0 q 1305 102 1278 50 q 1358 205 1332 154 q 1409 307 1384 257 q 1458 402 1434 357 q 1505 486 1482 448 q 1548 555 1527 525 q 1595 601 1569 583 q 1651 629 1622 619 q 1712 643 1681 639 q 1771 646 1743 646 l 1771 710 l 1247 710 l 1247 646 q 1313 643 1280 646 q 1372 632 1345 640 q 1414 613 1398 625 q 1430 584 1430 601 q 1416 533 1430 570 q 1379 447 1402 496 q 1329 342 1357 397 q 1275 235 1301 286 q 1226 145 1249 184 q 1190 88 1203 105 q 1132 181 1162 131 q 1073 282 1102 231 q 1017 383 1043 334 q 970 474 990 433 q 938 545 950 515 q 926 587 926 574 q 946 616 926 605 q 993 635 965 628 q 1053 644 1021 642 q 1109 646 1085 646 l 1109 710 l 7 710 l 7 646 q 51 642 25 646 q 105 628 77 637 q 158 603 132 618 q 203 566 184 587 q 251 503 225 541 q 306 419 277 465 q 366 320 334 373 q 429 214 397 268 q 493 105 460 159 q 556 0 525 50 "},"w":{"ha":2602,"x_min":7,"x_max":2595,"o":"m 490 0 l 1133 0 q 1153 57 1141 23 q 1181 131 1166 92 q 1213 214 1196 171 q 1248 297 1230 256 q 1282 375 1265 338 q 1314 438 1299 411 q 1348 372 1331 410 q 1382 294 1364 335 q 1416 210 1399 253 q 1447 128 1432 167 q 1475 56 1462 89 q 1497 0 1488 22 l 2142 0 q 2168 74 2152 29 q 2205 170 2184 118 q 2247 278 2225 222 q 2292 386 2270 334 q 2335 482 2315 438 q 2372 555 2356 526 q 2457 624 2400 602 q 2595 646 2513 646 l 2595 710 l 2132 710 l 2132 646 q 2196 641 2171 646 q 2233 626 2220 635 q 2250 606 2245 616 q 2254 584 2254 595 q 2245 537 2254 571 q 2221 457 2236 503 q 2188 358 2207 411 q 2151 255 2170 305 q 2115 163 2132 205 q 2084 96 2097 121 q 2040 188 2062 138 q 1997 289 2018 238 q 1960 387 1977 339 q 1930 476 1943 435 q 1910 545 1917 516 q 1903 587 1903 574 q 1933 629 1903 611 q 2025 646 1963 646 l 2025 710 l 1111 710 l 1111 646 q 1164 644 1142 646 q 1202 634 1187 642 q 1224 613 1217 627 q 1231 575 1231 599 q 1223 518 1231 553 q 1203 438 1215 482 q 1174 347 1190 395 q 1141 253 1158 298 q 1107 166 1124 207 q 1076 98 1090 126 q 1033 192 1055 142 q 991 293 1011 242 q 955 392 972 343 q 926 480 939 440 q 906 550 913 521 q 899 593 899 580 q 927 632 899 617 q 1004 646 956 646 l 1004 710 l 7 710 l 7 646 q 54 642 27 646 q 109 628 81 637 q 163 603 136 618 q 210 566 190 587 q 258 499 233 541 q 309 406 283 457 q 360 298 334 355 q 409 187 385 241 q 453 84 432 132 q 490 0 473 35 "},"x":{"ha":1859,"x_min":51,"x_max":1851,"o":"m 51 64 l 51 0 l 492 0 l 492 64 q 447 70 465 64 q 416 84 428 75 q 400 104 405 93 q 395 125 395 115 q 413 165 395 142 q 461 215 432 189 q 528 270 491 242 q 602 323 565 298 q 665 255 636 288 q 713 196 693 222 q 745 151 734 170 q 757 123 757 132 q 749 94 757 105 q 726 75 741 82 q 691 66 711 68 q 646 64 671 64 l 646 0 l 1849 0 l 1849 64 q 1793 70 1828 64 q 1718 87 1757 76 q 1641 112 1678 98 q 1579 144 1603 127 q 1463 236 1520 186 q 1354 337 1405 286 q 1481 440 1411 385 q 1627 555 1551 494 q 1685 594 1655 577 q 1744 623 1714 611 q 1800 640 1773 634 q 1851 646 1828 646 l 1851 710 l 1393 710 l 1393 646 q 1439 641 1420 646 q 1469 626 1457 635 q 1486 606 1480 616 q 1491 584 1491 595 q 1473 548 1491 568 q 1426 504 1455 528 q 1361 455 1397 480 q 1289 404 1325 429 q 1233 467 1258 437 q 1190 521 1208 497 q 1161 562 1171 545 q 1152 587 1152 579 q 1160 616 1152 605 q 1182 635 1168 628 q 1217 644 1197 642 q 1262 646 1238 646 l 1262 710 l 51 710 l 51 646 q 86 644 64 646 q 133 636 107 641 q 186 624 158 631 q 240 607 214 616 q 290 588 267 598 q 329 566 313 577 q 435 481 382 526 q 536 389 488 435 q 421 290 485 342 q 277 174 357 237 q 221 131 249 151 q 164 96 193 111 q 108 73 136 81 q 51 64 79 64 "},"y":{"ha":1771,"x_min":-16,"x_max":1778,"o":"m -16 -178 q 32 -262 -16 -226 q 161 -322 79 -298 q 353 -358 243 -346 q 587 -370 463 -370 q 778 -352 684 -370 q 959 -291 872 -334 q 1124 -177 1046 -248 q 1268 0 1202 -106 q 1356 159 1318 83 q 1426 304 1393 235 q 1492 436 1459 374 q 1566 551 1525 498 q 1609 598 1588 580 q 1654 627 1630 616 q 1708 642 1678 638 q 1778 646 1738 646 l 1778 710 l 1261 710 l 1261 646 q 1325 644 1294 646 q 1381 633 1356 641 q 1420 610 1405 625 q 1434 572 1434 595 q 1422 516 1434 552 q 1391 435 1411 480 q 1348 340 1372 390 q 1298 241 1323 290 q 1249 148 1273 192 q 1208 73 1225 104 q 1153 170 1183 118 q 1094 275 1124 222 q 1036 378 1064 328 q 987 470 1008 428 q 952 542 965 511 q 939 586 939 572 q 959 616 939 605 q 1007 635 979 628 q 1067 644 1036 642 q 1123 646 1099 646 l 1123 710 l -7 710 l -7 646 q 46 645 22 646 q 96 635 71 644 q 146 610 120 627 q 204 560 172 592 q 288 462 242 522 q 384 324 333 403 q 492 149 435 245 q 607 -60 548 52 l 1124 -60 q 1003 -176 1067 -130 q 869 -250 939 -222 q 723 -289 799 -277 q 564 -300 646 -300 q 509 -299 541 -300 q 445 -294 477 -297 q 381 -288 412 -292 q 330 -281 350 -284 q 448 -271 397 -281 q 533 -245 499 -262 q 585 -206 568 -229 q 602 -159 602 -184 q 580 -104 602 -130 q 517 -61 557 -79 q 422 -33 477 -43 q 302 -22 368 -22 q 171 -34 229 -22 q 71 -66 112 -45 q 7 -115 29 -87 q -16 -178 -16 -144 "},"z":{"ha":1668,"x_min":92,"x_max":1590,"o":"m 92 71 l 92 0 l 1582 0 l 1582 262 l 1506 262 q 1471 163 1506 202 q 1368 102 1436 125 q 1195 71 1299 80 q 955 60 1092 62 q 1146 233 1063 157 q 1291 369 1229 310 q 1397 472 1353 429 q 1471 547 1440 516 q 1520 597 1501 578 q 1551 627 1539 616 q 1572 642 1564 638 q 1590 646 1581 646 l 1590 710 l 127 710 l 127 448 l 203 448 q 235 545 203 507 q 332 607 267 583 q 499 641 398 630 q 739 654 600 651 q 554 485 635 559 q 413 351 474 410 q 309 248 353 292 q 235 174 266 205 q 183 122 203 142 q 146 91 162 102 q 119 75 131 79 q 92 71 106 71 "},"{":{"ha":958,"x_min":186,"x_max":856,"o":"m 227 5 q 248 -83 227 -47 q 312 -143 269 -120 q 420 -177 355 -167 q 575 -188 486 -188 q 703 -185 634 -188 q 856 -174 771 -182 l 856 -98 q 804 -100 827 -100 q 709 -89 747 -100 q 649 -59 671 -79 q 618 -14 627 -40 q 609 45 609 13 q 619 99 609 71 q 641 158 629 128 q 663 219 653 189 q 673 279 673 250 q 659 339 673 311 q 614 389 646 368 q 533 423 583 410 q 409 437 483 436 q 530 452 480 439 q 612 486 581 465 q 658 535 644 507 q 673 595 673 564 q 663 655 673 625 q 641 716 653 686 q 619 775 629 747 q 609 829 609 804 q 618 888 609 862 q 649 934 627 915 q 709 964 671 954 q 804 975 747 975 q 856 972 827 975 l 856 1049 q 703 1060 771 1057 q 575 1063 634 1063 q 420 1052 486 1063 q 312 1018 355 1042 q 248 958 269 995 q 227 869 227 922 q 235 809 227 841 q 255 746 243 778 q 281 683 267 714 q 307 625 294 652 q 327 576 319 598 q 334 540 334 554 q 322 506 334 519 q 290 485 311 492 q 243 474 270 477 q 186 471 216 471 l 186 404 q 243 401 216 404 q 290 390 270 398 q 322 369 311 382 q 334 335 334 356 q 327 299 334 321 q 307 250 319 277 q 281 192 294 222 q 255 129 267 161 q 235 65 243 97 q 227 5 227 34 "},"|":{"ha":350,"x_min":119,"x_max":258,"o":"m 133 356 q 133 292 133 332 q 133 202 133 252 q 132 94 132 151 q 131 -23 132 36 q 129 -139 130 -82 q 127 -246 128 -197 q 123 -333 125 -295 q 119 -393 121 -372 q 154 -398 137 -396 q 189 -399 172 -399 q 258 -393 224 -399 q 254 -333 256 -371 q 252 -247 253 -295 q 249 -142 250 -198 q 248 -27 248 -85 q 246 89 247 31 q 245 197 245 146 q 244 289 245 248 q 244 356 244 330 q 244 424 244 380 q 245 523 245 467 q 246 644 245 579 q 248 776 247 709 q 249 908 248 843 q 252 1029 250 973 q 254 1128 253 1085 q 258 1196 256 1172 q 242 1198 252 1197 q 223 1200 233 1199 q 203 1201 213 1201 q 189 1202 194 1202 q 173 1201 182 1202 q 153 1200 163 1201 q 133 1198 142 1199 q 119 1196 124 1197 q 123 1128 121 1171 q 125 1032 124 1086 q 128 915 127 978 q 130 788 129 852 q 131 659 130 723 q 132 538 132 595 q 133 434 132 481 q 133 356 133 387 "},"}":{"ha":958,"x_min":102,"x_max":771,"o":"m 102 -98 l 102 -174 q 255 -185 186 -182 q 382 -188 323 -188 q 537 -177 472 -188 q 646 -143 603 -167 q 709 -83 688 -120 q 730 5 730 -47 q 723 65 730 34 q 703 129 715 97 q 677 192 690 161 q 651 250 663 222 q 631 299 639 277 q 623 335 623 321 q 635 369 623 356 q 667 390 647 382 q 714 401 688 398 q 771 404 741 404 l 771 471 q 714 474 741 471 q 667 485 688 477 q 635 506 647 492 q 623 540 623 519 q 631 576 623 554 q 651 625 639 598 q 677 683 663 652 q 703 746 690 714 q 723 809 715 778 q 730 869 730 841 q 709 958 730 922 q 646 1018 688 995 q 537 1052 603 1042 q 382 1063 472 1063 q 255 1060 323 1063 q 102 1049 186 1057 l 102 972 q 154 975 130 975 q 249 964 211 975 q 309 934 286 954 q 340 888 331 915 q 349 829 349 862 q 339 775 349 804 q 317 716 329 747 q 295 655 304 686 q 285 595 285 625 q 298 535 285 564 q 343 486 312 507 q 424 452 374 465 q 549 437 475 439 q 427 423 477 436 q 346 389 377 410 q 299 339 314 368 q 285 279 285 311 q 295 219 285 250 q 317 158 304 189 q 339 99 329 128 q 349 45 349 71 q 340 -14 349 13 q 309 -59 331 -40 q 249 -89 286 -79 q 154 -100 211 -100 q 102 -98 130 -100 "},"~":{"ha":1158,"x_min":60,"x_max":1122,"o":"m 60 401 l 83 310 q 137 325 105 319 q 204 336 170 332 q 270 341 238 340 q 324 343 302 343 q 446 331 385 343 q 567 305 507 319 q 686 278 627 290 q 802 267 745 267 q 882 273 839 267 q 969 293 926 279 q 1052 332 1012 308 q 1122 393 1091 357 l 1098 484 q 1044 469 1076 475 q 978 458 1012 463 q 911 453 943 454 q 857 451 879 451 q 735 463 796 451 q 614 489 674 475 q 495 514 554 503 q 378 526 436 526 q 298 520 341 526 q 211 500 254 514 q 129 461 168 486 q 60 401 90 437 "},"":{"ha":779,"x_min":48,"x_max":730,"o":"m 389 433 q 510 448 453 433 q 608 488 566 463 q 674 548 650 513 q 699 621 699 582 q 674 693 699 659 q 608 752 650 727 q 510 792 566 778 q 389 807 453 807 q 269 792 325 807 q 170 752 212 778 q 104 693 128 727 q 79 621 79 659 q 104 548 79 582 q 170 488 128 513 q 269 448 212 463 q 389 433 325 433 m 48 -157 q 76 -254 48 -215 q 151 -318 104 -294 q 260 -352 198 -342 q 389 -363 321 -363 q 519 -352 457 -363 q 628 -318 581 -342 q 703 -254 675 -294 q 730 -157 730 -215 q 711 -85 730 -119 q 663 -18 692 -51 q 599 49 633 16 q 536 118 565 82 q 487 192 507 153 q 468 275 468 231 q 462 299 468 290 q 445 316 456 309 q 420 325 435 322 q 389 328 406 328 q 333 316 355 328 q 311 275 311 303 q 291 192 311 231 q 243 118 272 153 q 179 49 214 82 q 116 -18 145 16 q 67 -85 87 -51 q 48 -157 48 -119 "},"":{"ha":1710,"x_min":90,"x_max":1632,"o":"m 90 468 q 116 349 90 401 q 190 256 142 296 q 304 186 237 216 q 453 138 371 157 q 631 107 536 118 q 831 92 726 96 q 827 8 829 47 q 823 -58 825 -30 q 839 -61 829 -60 q 860 -63 849 -62 q 881 -64 871 -64 q 897 -64 891 -64 q 913 -64 903 -64 q 935 -63 924 -64 q 956 -61 946 -62 q 970 -58 965 -60 q 966 9 968 -28 q 962 89 964 46 l 987 89 q 1153 97 1072 89 q 1306 120 1234 104 q 1437 159 1377 136 q 1541 214 1497 182 q 1608 284 1584 245 q 1632 371 1632 323 l 1549 371 q 1516 305 1549 336 q 1427 251 1482 274 q 1299 214 1371 227 q 1148 200 1226 200 q 1052 208 1100 200 q 961 233 1004 216 q 881 274 918 249 q 817 333 844 299 q 775 410 790 367 q 760 506 760 453 q 787 642 760 587 q 859 729 814 696 q 962 776 904 762 q 1082 790 1020 790 q 1166 785 1124 790 q 1246 770 1208 781 q 1128 758 1179 770 q 1043 725 1077 745 q 991 680 1008 705 q 974 628 974 654 q 999 571 974 597 q 1069 526 1025 545 q 1173 496 1113 507 q 1301 485 1233 485 q 1431 499 1374 485 q 1526 538 1487 514 q 1585 593 1565 562 q 1605 657 1605 624 q 1581 716 1605 688 q 1516 766 1558 743 q 1416 805 1474 788 q 1289 835 1358 823 q 1143 853 1220 847 q 987 860 1067 859 q 991 938 989 902 q 996 999 993 973 q 959 1004 979 1002 q 922 1006 939 1006 q 885 1004 904 1006 q 848 999 865 1002 q 852 935 850 971 q 855 857 854 899 q 654 840 751 852 q 472 806 557 827 q 317 753 387 784 q 196 680 247 722 q 118 585 146 638 q 90 468 90 532 "},"":{"ha":2208,"x_min":118,"x_max":2102,"o":"m 118 133 q 138 63 118 95 q 202 9 157 32 q 321 -26 248 -14 q 500 -39 394 -39 q 701 -29 613 -39 q 853 -2 788 -19 q 962 38 918 15 q 1034 87 1006 61 l 1037 90 q 1184 38 1110 64 q 1334 -8 1257 12 q 1493 -42 1411 -29 q 1665 -55 1575 -55 q 1859 -42 1777 -55 q 1995 -2 1941 -29 q 2075 69 2049 26 q 2102 173 2102 112 q 2098 211 2102 191 q 2087 250 2094 231 q 2072 286 2081 269 q 2053 318 2063 304 l 1990 318 q 1950 279 1978 296 q 1887 249 1923 262 q 1806 228 1850 237 q 1715 214 1762 219 q 1619 207 1668 209 q 1524 204 1570 204 q 1326 213 1428 204 q 1120 234 1224 221 q 1132 286 1127 259 q 1136 343 1136 313 q 1134 379 1136 359 q 1230 377 1183 378 q 1319 375 1278 376 q 1395 372 1361 374 q 1452 368 1430 370 q 1457 402 1455 385 q 1459 437 1459 420 q 1457 469 1459 454 q 1452 502 1455 484 q 1392 498 1428 500 q 1312 496 1356 497 q 1219 494 1268 495 q 1119 493 1169 494 q 1112 545 1115 520 q 1109 590 1109 570 q 1130 719 1109 671 q 1188 792 1151 767 q 1278 825 1225 818 q 1392 833 1330 833 q 1487 831 1442 833 q 1572 825 1531 829 q 1652 817 1613 821 q 1727 808 1690 812 q 1585 797 1646 807 q 1484 769 1525 786 q 1424 730 1444 752 q 1404 684 1404 708 q 1428 635 1404 659 q 1496 592 1451 611 q 1605 562 1541 573 q 1752 550 1670 550 q 1872 558 1813 550 q 1977 584 1931 566 q 2051 630 2023 602 q 2080 698 2080 658 q 2054 756 2080 730 q 1983 804 2028 783 q 1876 841 1938 825 q 1743 869 1815 857 q 1592 890 1671 882 q 1432 904 1512 899 q 1274 911 1352 909 q 1126 913 1196 913 q 928 906 1023 913 q 751 882 833 898 q 602 840 669 865 q 488 781 536 815 q 415 702 441 746 q 389 602 389 657 q 396 548 389 574 q 416 498 404 522 q 307 501 357 499 q 224 506 256 503 q 221 491 222 500 q 219 471 220 481 q 218 452 218 461 q 218 437 218 442 q 218 421 218 431 q 219 401 218 411 q 221 381 220 391 q 224 368 222 372 q 280 371 248 370 q 348 373 311 372 q 425 375 385 374 q 507 378 465 376 q 546 335 526 356 q 583 292 565 314 q 540 294 561 294 q 500 295 519 295 q 339 282 410 295 q 219 247 269 269 q 144 196 170 225 q 118 133 118 166 m 249 123 q 266 157 249 142 q 315 182 283 172 q 392 199 347 193 q 496 205 438 205 q 570 202 534 205 q 640 195 606 200 q 648 166 646 181 q 651 136 651 151 q 641 95 651 115 q 607 60 631 75 q 543 34 583 44 q 444 24 503 24 q 380 30 414 24 q 317 48 346 36 q 268 79 288 60 q 249 123 249 98 "},"":{"ha":1117,"x_min":54,"x_max":1063,"o":"m 104 40 q 115 29 108 36 q 132 14 123 22 q 149 0 140 7 q 161 -9 157 -6 q 185 17 168 -1 q 224 57 202 35 q 270 105 245 80 q 318 155 295 131 q 429 100 368 119 q 559 81 490 81 q 688 100 627 81 q 799 154 749 119 q 846 105 822 130 q 893 57 871 80 q 931 16 915 34 q 956 -9 948 -1 q 968 0 960 -6 q 985 14 977 7 q 1002 29 994 22 q 1013 40 1009 36 q 1025 52 1017 44 q 1040 69 1032 60 q 1054 86 1048 78 q 1063 98 1061 94 q 1036 122 1054 105 q 995 161 1018 139 q 946 208 972 183 q 898 254 921 232 q 941 343 926 296 q 956 443 956 391 q 940 543 956 495 q 897 632 925 591 q 946 679 920 654 q 995 726 972 704 q 1036 765 1017 748 q 1063 790 1054 783 q 1054 802 1061 794 q 1040 819 1048 810 q 1025 836 1032 827 q 1013 848 1017 844 q 1002 859 1009 852 q 985 873 994 866 q 968 887 977 881 q 956 897 960 894 q 931 871 948 889 q 892 830 914 853 q 845 782 870 807 q 798 732 821 756 q 687 786 748 767 q 559 806 627 806 q 430 786 491 806 q 319 732 369 766 q 272 781 296 755 q 225 830 247 807 q 185 871 203 852 q 161 897 168 889 q 149 887 157 894 q 132 873 140 881 q 115 859 123 866 q 104 848 108 852 q 92 836 100 844 q 77 819 85 827 q 63 802 69 810 q 54 790 56 794 q 81 765 63 782 q 123 725 100 747 q 171 679 146 703 q 220 631 197 654 q 178 543 193 590 q 163 443 163 495 q 178 343 163 391 q 220 255 193 296 q 171 208 196 233 q 122 162 145 184 q 81 122 100 140 q 54 98 63 105 q 63 86 56 94 q 77 69 69 78 q 92 52 85 60 q 104 40 100 44 m 271 443 q 293 554 271 505 q 353 638 315 604 q 444 691 391 673 q 559 710 496 710 q 673 691 621 710 q 765 638 726 673 q 825 554 803 604 q 846 443 846 505 q 825 331 846 380 q 765 247 803 281 q 673 194 726 212 q 559 176 621 176 q 444 194 496 176 q 353 247 391 212 q 293 331 315 281 q 271 443 271 380 "},"":{"ha":2016,"x_min":-14,"x_max":2030,"o":"m 276 64 l 276 0 l 1736 0 l 1736 64 q 1495 98 1583 64 q 1382 212 1407 132 q 1509 211 1447 212 q 1625 208 1571 210 q 1719 205 1678 207 q 1782 201 1760 203 q 1787 239 1785 218 q 1788 277 1788 260 q 1787 308 1788 294 q 1782 339 1785 321 q 1717 336 1759 337 q 1622 333 1676 334 q 1505 330 1568 331 q 1378 328 1442 329 q 1394 374 1383 350 q 1420 425 1404 399 q 1488 424 1452 424 q 1560 422 1524 423 q 1632 421 1597 422 q 1697 419 1668 420 q 1749 417 1727 418 q 1782 415 1771 416 q 1787 450 1785 433 q 1788 484 1788 467 q 1782 553 1788 520 q 1740 551 1769 552 q 1671 548 1710 549 q 1588 544 1632 546 q 1505 541 1544 543 q 1607 640 1550 592 q 1732 726 1665 688 q 1874 787 1799 764 q 2030 812 1949 810 l 2030 876 l 1324 876 l 1324 812 q 1392 804 1366 812 q 1434 782 1419 795 q 1455 752 1449 769 q 1461 718 1461 735 q 1443 652 1461 693 q 1397 564 1425 611 q 1338 469 1370 517 q 1280 382 1306 421 q 1194 497 1232 445 q 1130 592 1156 550 q 1089 667 1103 635 q 1076 721 1076 699 q 1107 787 1076 763 q 1199 812 1139 812 l 1199 876 l -14 876 l -14 812 q 113 791 47 812 q 245 733 179 770 q 376 643 312 695 q 499 528 441 591 q 413 534 456 531 q 333 541 370 538 q 268 546 296 544 q 222 550 239 549 q 220 535 221 544 q 218 517 219 526 q 217 498 217 507 q 216 484 216 490 q 217 468 216 478 q 218 448 217 458 q 220 429 219 438 q 222 415 221 420 q 284 418 244 416 q 373 420 323 419 q 478 423 423 422 q 585 425 533 424 q 606 396 595 410 q 625 368 616 382 l 625 328 q 501 330 563 329 q 386 332 439 331 q 290 335 332 334 q 222 339 247 337 q 220 325 221 333 q 218 308 219 317 q 217 291 217 299 q 216 277 216 282 q 217 260 216 271 q 218 237 217 249 q 220 216 219 226 q 222 201 221 205 q 289 204 248 203 q 381 207 330 205 q 490 210 432 209 q 609 212 549 211 q 570 160 595 185 q 504 113 544 134 q 407 79 463 92 q 276 64 351 66 "},"":{"ha":350,"x_min":119,"x_max":258,"o":"m 132 541 l 245 541 q 246 664 245 599 q 247 795 246 730 q 249 923 248 861 q 252 1039 250 985 q 254 1132 253 1092 q 258 1194 256 1173 q 242 1197 252 1196 q 223 1199 233 1198 q 203 1200 213 1200 q 189 1200 194 1200 q 173 1200 182 1200 q 153 1199 163 1200 q 133 1197 142 1198 q 119 1194 124 1196 q 122 1129 121 1171 q 125 1034 124 1088 q 128 917 127 980 q 130 789 129 854 q 131 661 131 724 q 132 541 132 597 m 245 260 l 132 260 q 131 137 132 202 q 130 6 131 71 q 128 -122 129 -60 q 125 -238 127 -184 q 122 -331 124 -291 q 119 -393 121 -372 q 135 -396 125 -395 q 154 -398 144 -397 q 174 -399 164 -399 q 189 -399 183 -399 q 204 -399 195 -399 q 224 -398 214 -399 q 244 -396 235 -397 q 258 -393 253 -395 q 254 -329 256 -370 q 252 -233 253 -287 q 249 -116 250 -179 q 247 12 248 -54 q 246 140 246 77 q 245 260 245 204 "},"":{"ha":1792,"x_min":170,"x_max":1632,"o":"m 277 -80 l 200 -80 q 201 -109 200 -91 q 205 -148 203 -127 q 210 -192 207 -169 q 217 -236 213 -215 q 225 -275 221 -257 q 235 -303 230 -292 q 269 -285 250 -292 q 312 -273 289 -278 q 359 -267 334 -269 q 407 -264 383 -264 q 593 -269 501 -264 q 774 -280 684 -274 q 953 -291 864 -286 q 1131 -296 1042 -296 q 1322 -282 1233 -296 q 1478 -241 1412 -269 q 1584 -170 1545 -214 q 1622 -66 1622 -127 q 1606 9 1622 -24 q 1561 66 1590 41 q 1492 108 1532 90 q 1406 139 1453 126 q 1307 160 1359 151 q 1202 175 1255 169 q 1388 192 1308 179 q 1522 229 1468 204 q 1605 293 1577 254 q 1632 389 1632 332 q 1609 473 1632 437 q 1546 536 1586 509 q 1452 580 1506 562 q 1338 611 1398 598 q 1215 632 1278 623 q 1092 649 1152 641 q 978 665 1031 656 q 884 685 924 673 q 821 714 844 697 q 798 756 798 731 q 810 781 798 772 q 839 794 822 790 q 873 799 856 798 q 902 800 891 800 q 1019 794 960 800 q 1135 778 1078 788 q 1243 754 1191 768 q 1338 724 1295 740 q 1416 692 1382 709 q 1470 659 1449 675 l 1537 659 q 1535 705 1537 676 q 1527 765 1532 734 q 1516 825 1522 796 q 1503 870 1510 854 q 1467 854 1487 861 q 1424 844 1447 848 q 1377 839 1402 840 q 1329 837 1353 837 q 1263 839 1303 837 q 1173 845 1223 842 q 1067 853 1124 849 q 949 861 1010 857 q 828 867 889 865 q 708 869 766 869 q 497 853 594 869 q 330 804 400 836 q 220 725 260 772 q 180 616 180 677 q 211 515 180 556 q 292 447 241 474 q 410 405 343 420 q 550 380 477 389 q 457 364 503 374 q 369 341 411 355 q 290 309 326 328 q 227 267 254 291 q 185 213 201 243 q 170 146 170 183 q 194 63 170 98 q 259 4 218 28 q 355 -37 300 -21 q 471 -64 410 -54 q 597 -82 532 -75 q 723 -94 662 -88 q 840 -104 785 -99 q 935 -119 895 -110 q 1000 -141 976 -127 q 1024 -175 1024 -154 q 1014 -197 1024 -188 q 984 -211 1003 -205 q 938 -219 965 -217 q 880 -222 911 -222 q 752 -216 817 -222 q 625 -199 687 -210 q 508 -175 564 -189 q 406 -146 452 -161 q 326 -113 359 -130 q 277 -80 293 -96 m 743 294 q 758 365 743 333 q 882 357 823 361 q 984 345 940 353 q 1053 323 1027 337 q 1078 287 1078 310 q 1078 265 1078 275 q 1074 244 1077 255 q 1065 220 1071 233 q 1050 191 1060 207 q 931 203 987 197 q 834 221 876 210 q 768 250 792 233 q 743 294 743 267 "},"":{"ha":1158,"x_min":170,"x_max":967,"o":"m 624 1014 q 635 971 624 992 q 667 934 646 951 q 721 907 689 918 q 795 897 753 897 q 870 907 838 897 q 924 934 902 918 q 956 971 945 951 q 967 1014 967 992 q 956 1057 967 1036 q 924 1095 945 1078 q 870 1122 902 1112 q 795 1132 838 1132 q 721 1122 753 1132 q 667 1095 689 1112 q 635 1057 646 1078 q 624 1014 624 1036 m 341 897 q 416 907 384 897 q 469 934 448 918 q 502 971 491 951 q 513 1014 513 992 q 502 1057 513 1036 q 469 1095 491 1078 q 416 1122 448 1112 q 341 1132 384 1132 q 267 1122 298 1132 q 213 1095 235 1112 q 180 1057 191 1078 q 170 1014 170 1036 q 180 971 170 992 q 213 934 191 951 q 267 907 235 918 q 341 897 298 897 "},"":{"ha":2207,"x_min":90,"x_max":2117,"o":"m 90 375 q 128 166 90 260 q 233 -1 165 73 q 395 -127 301 -74 q 601 -216 489 -181 q 839 -267 713 -250 q 1099 -284 966 -284 q 1275 -277 1185 -284 q 1453 -254 1365 -270 q 1624 -211 1540 -237 q 1781 -145 1707 -184 q 1917 -54 1855 -106 q 2023 65 1978 -2 q 2092 216 2068 132 q 2117 401 2117 299 q 2080 610 2117 516 q 1974 777 2042 703 q 1812 903 1906 850 q 1607 991 1718 957 q 1368 1043 1495 1026 q 1108 1060 1241 1060 q 932 1053 1022 1060 q 755 1029 842 1046 q 584 986 667 1013 q 427 921 500 960 q 291 830 353 882 q 184 711 229 778 q 115 560 140 644 q 90 375 90 477 m 197 375 q 249 609 197 503 q 413 791 302 715 q 696 909 524 867 q 1108 951 868 951 q 1398 930 1268 951 q 1628 871 1527 909 q 1803 780 1729 833 q 1924 665 1876 728 q 1994 532 1971 602 q 2017 387 2017 461 q 1964 153 2017 259 q 1801 -29 1912 47 q 1518 -147 1690 -105 q 1105 -189 1345 -189 q 816 -168 945 -189 q 585 -109 686 -146 q 411 -18 484 -71 q 290 97 338 35 q 219 231 242 160 q 197 375 197 301 m 397 382 q 453 217 397 283 q 609 114 508 152 q 850 60 709 75 q 1161 44 990 44 q 1418 64 1307 44 q 1603 122 1529 85 q 1715 214 1677 160 q 1752 334 1752 268 l 1662 334 q 1642 269 1657 298 q 1602 217 1626 239 q 1546 179 1577 195 q 1480 153 1515 163 q 1407 138 1444 143 q 1333 134 1369 134 q 1203 147 1265 134 q 1092 189 1140 160 q 1015 263 1044 218 q 985 372 985 308 q 1012 496 985 447 q 1084 573 1039 545 q 1188 613 1129 602 q 1310 624 1246 624 q 1415 615 1360 624 q 1519 585 1470 606 q 1605 530 1568 564 q 1656 447 1642 496 l 1747 447 q 1742 512 1747 475 q 1728 585 1737 548 q 1706 657 1718 623 q 1678 717 1693 692 l 1586 717 q 1570 701 1579 708 q 1549 688 1560 693 q 1526 680 1537 683 q 1505 677 1514 677 q 1414 683 1466 677 q 1300 696 1362 689 q 1167 708 1238 703 q 1020 714 1096 714 q 763 690 878 714 q 567 623 648 667 q 441 519 486 580 q 397 382 397 458 "},"":{"ha":1360,"x_min":163,"x_max":1257,"o":"m 429 642 q 537 647 490 642 q 621 662 585 653 q 683 681 657 671 q 725 702 708 692 q 761 670 739 682 q 814 652 784 659 q 883 644 845 646 q 966 642 922 642 q 1076 647 1023 642 q 1169 669 1128 652 q 1233 718 1209 686 q 1257 806 1257 751 l 1204 806 q 1185 748 1199 768 q 1140 729 1172 729 q 1095 756 1112 729 q 1079 844 1079 784 l 1079 941 q 1059 1008 1079 981 q 1004 1055 1039 1036 q 922 1083 969 1073 q 821 1098 875 1093 q 710 1104 768 1103 q 595 1105 652 1105 q 516 1103 557 1105 q 436 1094 475 1100 q 361 1079 396 1088 q 299 1058 326 1070 q 256 1029 272 1045 q 241 993 241 1013 q 256 959 241 974 q 296 935 271 945 q 354 921 321 926 q 422 916 387 916 q 496 919 462 916 q 557 930 531 922 q 597 951 583 938 q 612 985 612 964 q 599 1016 612 1002 q 564 1037 587 1029 q 510 1050 541 1046 q 439 1055 478 1055 q 493 1057 464 1057 q 551 1058 522 1058 q 621 1053 591 1058 q 668 1036 650 1048 q 696 1003 687 1024 q 705 949 705 982 l 705 875 q 654 880 685 878 q 586 883 623 882 q 507 884 549 884 q 422 885 465 885 q 326 879 372 885 q 243 859 279 873 q 185 820 207 845 q 163 758 163 795 q 188 704 163 726 q 250 668 212 682 q 335 648 288 654 q 429 642 382 642 m 524 777 q 531 804 524 794 q 552 819 538 814 q 587 826 566 825 q 635 828 608 828 q 670 828 652 828 q 705 827 688 827 l 705 778 q 706 759 705 768 q 709 741 707 749 q 657 730 685 734 q 603 725 629 725 q 547 737 570 725 q 524 777 524 749 "},"":{"ha":1470,"x_min":95,"x_max":1375,"o":"m 671 390 q 694 336 671 357 q 764 293 718 314 l 1326 26 l 1375 78 l 997 390 l 1375 702 l 1326 753 l 764 487 q 694 444 718 466 q 671 390 671 422 m 187 293 l 750 26 l 799 78 l 420 390 l 799 702 l 750 753 l 187 487 q 118 444 141 466 q 95 390 95 422 q 118 336 95 357 q 187 293 141 314 "},"":{"ha":1162,"x_min":88,"x_max":1067,"o":"m 92 581 q 126 585 102 583 q 181 587 149 586 q 250 590 212 589 q 326 591 288 591 q 403 593 365 592 q 474 594 441 593 q 532 594 507 594 q 570 595 557 595 q 604 594 581 595 q 657 594 627 594 q 724 593 688 593 q 798 592 760 593 q 872 590 836 591 q 942 588 909 589 q 940 514 941 554 q 938 435 939 473 q 934 363 937 396 q 929 312 932 330 q 944 311 935 311 q 964 310 954 310 q 983 309 974 309 q 998 309 993 309 q 1014 309 1004 309 q 1034 310 1024 309 q 1054 311 1044 310 q 1067 312 1063 311 q 1061 378 1063 339 q 1057 459 1059 416 q 1055 544 1056 501 q 1054 624 1055 587 q 1053 686 1053 660 q 1050 720 1052 711 q 998 715 1034 717 q 915 712 962 713 q 816 709 868 710 q 716 707 764 708 q 629 706 668 707 q 570 706 590 706 q 534 706 558 706 q 477 706 509 706 q 406 707 444 707 q 328 708 368 707 q 251 710 289 709 q 181 712 213 711 q 126 715 149 713 q 92 720 102 718 q 89 685 90 702 q 88 650 88 667 q 89 616 88 633 q 92 581 90 599 "},"":{"ha":2207,"x_min":90,"x_max":2117,"o":"m 90 375 q 128 166 90 260 q 233 -1 165 73 q 395 -127 301 -74 q 601 -216 489 -181 q 839 -267 713 -250 q 1099 -284 966 -284 q 1275 -277 1185 -284 q 1453 -254 1365 -270 q 1624 -211 1540 -237 q 1781 -145 1707 -184 q 1917 -54 1855 -106 q 2023 65 1978 -2 q 2092 216 2068 132 q 2117 401 2117 299 q 2080 610 2117 516 q 1974 777 2042 703 q 1812 903 1906 850 q 1607 991 1718 957 q 1368 1043 1495 1026 q 1108 1060 1241 1060 q 932 1053 1022 1060 q 755 1029 842 1046 q 584 986 667 1013 q 427 921 500 960 q 291 830 353 882 q 184 711 229 778 q 115 560 140 644 q 90 375 90 477 m 197 375 q 249 609 197 503 q 413 791 302 715 q 696 909 524 867 q 1108 951 868 951 q 1398 930 1268 951 q 1628 871 1527 909 q 1803 780 1729 833 q 1924 665 1876 728 q 1994 532 1971 602 q 2017 387 2017 461 q 1964 153 2017 259 q 1801 -29 1912 47 q 1518 -147 1690 -105 q 1105 -189 1345 -189 q 816 -168 945 -189 q 585 -109 686 -146 q 411 -18 484 -71 q 290 97 338 35 q 219 231 242 160 q 197 375 197 301 m 424 119 l 424 75 l 1187 75 l 1187 119 q 1142 132 1159 119 q 1115 173 1124 145 q 1100 243 1105 200 q 1095 346 1096 286 q 1169 334 1141 343 q 1214 309 1197 326 q 1238 266 1231 292 q 1250 202 1246 239 q 1258 147 1253 171 q 1273 106 1263 123 q 1302 78 1284 89 q 1351 60 1320 66 q 1426 51 1381 54 q 1533 48 1470 48 q 1591 50 1560 48 q 1657 54 1622 51 q 1734 61 1693 57 q 1824 72 1775 66 l 1824 120 q 1785 123 1801 120 q 1759 133 1769 125 q 1744 152 1749 140 q 1735 182 1738 164 q 1703 276 1724 240 q 1647 332 1682 312 q 1560 360 1611 353 q 1440 367 1510 367 l 1224 367 q 1427 379 1335 368 q 1586 413 1519 391 q 1689 467 1652 435 q 1726 540 1726 498 q 1689 621 1726 589 q 1576 670 1651 652 q 1388 695 1501 688 q 1123 701 1274 701 l 424 701 l 424 657 q 526 644 484 657 q 594 600 568 631 q 633 517 621 568 q 646 389 646 465 q 635 262 646 313 q 599 180 625 211 q 531 135 574 149 q 424 119 488 121 m 1095 411 l 1095 645 q 1191 636 1149 643 q 1260 616 1232 630 q 1302 579 1288 602 q 1316 522 1316 556 q 1298 470 1316 490 q 1249 436 1280 449 q 1179 418 1219 424 q 1095 411 1139 413 "},"":{"ha":844,"x_min":73,"x_max":768,"o":"m 77 996 q 117 1000 91 998 q 176 1003 143 1002 q 244 1006 208 1005 q 313 1008 279 1007 q 374 1009 346 1008 q 419 1009 401 1009 q 462 1009 435 1009 q 523 1008 490 1008 q 592 1006 556 1007 q 661 1003 628 1005 q 721 1000 694 1002 q 764 996 749 998 q 766 1010 765 1002 q 767 1027 766 1018 q 767 1044 767 1036 q 768 1058 768 1053 q 767 1073 768 1064 q 767 1091 767 1082 q 766 1108 766 1100 q 764 1120 765 1116 q 722 1116 748 1118 q 664 1113 695 1114 q 598 1110 632 1111 q 531 1108 564 1109 q 469 1107 498 1107 q 419 1107 439 1107 q 376 1107 404 1107 q 315 1107 349 1107 q 245 1109 281 1108 q 177 1112 210 1110 q 117 1115 144 1113 q 77 1120 91 1117 q 74 1089 75 1103 q 73 1058 73 1075 q 74 1027 73 1040 q 77 996 75 1013 "},"":{"ha":840,"x_min":167,"x_max":673,"o":"m 419 550 q 518 570 472 550 q 599 624 564 589 q 653 704 633 658 q 673 802 673 750 q 653 901 673 855 q 599 982 633 947 q 518 1036 564 1017 q 419 1056 472 1056 q 321 1036 367 1056 q 240 982 275 1017 q 186 901 206 947 q 167 802 167 855 q 186 704 167 750 q 240 624 206 658 q 321 570 275 589 q 419 550 367 550 m 419 675 q 370 686 393 675 q 330 713 347 696 q 302 753 313 730 q 292 802 292 777 q 302 852 292 829 q 330 892 313 875 q 370 920 347 909 q 419 930 393 930 q 469 920 446 930 q 509 892 492 909 q 536 852 526 875 q 546 802 546 829 q 536 753 546 777 q 509 713 526 730 q 469 686 492 696 q 419 675 446 675 "},"":{"ha":1142,"x_min":88,"x_max":1054,"o":"m 92 473 q 131 477 104 475 q 196 480 159 479 q 276 483 233 481 q 362 484 319 484 q 445 486 405 485 q 515 486 484 486 q 513 405 514 450 q 511 315 512 359 q 507 234 509 271 q 502 178 505 197 q 517 177 508 178 q 536 176 526 176 q 556 175 547 176 q 571 175 566 175 q 587 175 577 175 q 607 176 597 176 q 626 177 617 176 q 640 178 635 178 q 635 235 637 199 q 631 315 633 272 q 628 404 629 358 q 627 486 627 449 q 696 485 657 486 q 779 484 736 485 q 865 482 822 483 q 944 479 907 481 q 1009 477 981 478 q 1050 473 1038 475 q 1052 489 1051 479 q 1053 508 1053 498 q 1054 528 1053 518 q 1054 543 1054 537 q 1054 558 1054 549 q 1053 578 1053 568 q 1052 598 1053 589 q 1050 612 1051 607 q 1008 608 1036 610 q 944 605 981 606 q 864 603 907 604 q 780 601 822 602 q 697 599 737 600 q 627 598 658 598 q 627 681 627 634 q 630 771 628 727 q 634 853 631 816 q 640 907 636 890 q 605 909 623 909 q 571 910 588 910 q 536 909 553 910 q 502 907 519 909 q 507 852 505 889 q 511 771 509 816 q 513 681 512 727 q 515 598 514 635 q 445 598 484 598 q 362 600 405 599 q 275 601 319 600 q 195 604 232 602 q 131 607 158 606 q 92 612 103 609 q 89 577 90 594 q 88 543 88 559 q 89 508 88 525 q 92 473 90 491 m 92 -14 q 126 -10 102 -12 q 181 -7 149 -9 q 250 -5 212 -6 q 326 -3 288 -4 q 403 -2 365 -3 q 474 -1 441 -1 q 532 0 507 -1 q 570 0 557 0 q 623 0 585 0 q 709 -1 661 -1 q 810 -3 757 -2 q 912 -6 864 -4 q 998 -9 960 -7 q 1050 -14 1035 -12 q 1052 2 1051 -7 q 1053 21 1053 11 q 1054 41 1053 31 q 1054 56 1054 50 q 1054 72 1054 62 q 1053 92 1053 81 q 1052 111 1053 102 q 1050 125 1051 120 q 998 120 1034 122 q 915 117 962 119 q 816 114 868 115 q 716 113 764 113 q 629 112 668 112 q 570 111 590 111 q 534 111 558 111 q 477 112 509 111 q 406 112 444 112 q 328 113 368 113 q 251 115 289 114 q 181 117 213 116 q 126 121 149 119 q 92 125 102 123 q 89 90 90 107 q 88 56 88 73 q 89 21 88 38 q 92 -14 90 4 "},"":{"ha":1200,"x_min":114,"x_max":1105,"o":"m 217 566 q 244 571 231 566 q 266 583 256 575 q 280 601 275 591 q 286 621 286 610 q 284 631 286 626 q 279 641 282 636 l 287 641 q 369 635 323 641 q 465 621 414 629 q 570 602 515 612 q 677 584 624 592 q 782 569 731 575 q 879 564 833 564 q 967 569 926 564 q 1039 591 1008 575 q 1088 637 1070 608 q 1105 713 1105 666 q 1100 755 1105 736 q 1085 789 1094 774 q 1066 814 1076 804 q 1046 829 1055 824 q 1016 797 1041 811 q 953 773 991 783 q 865 758 915 763 q 760 753 816 753 q 559 750 648 753 q 402 739 470 747 q 289 714 335 730 q 216 671 242 698 l 215 671 q 214 681 214 677 q 214 688 214 684 q 228 735 214 712 q 275 777 242 758 q 363 808 309 795 q 499 825 418 821 q 756 845 648 832 q 937 883 865 859 q 1042 945 1008 907 q 1076 1037 1076 982 q 1059 1093 1076 1069 q 1013 1135 1042 1117 q 945 1165 983 1153 q 865 1185 907 1177 q 781 1197 823 1193 q 701 1204 739 1202 q 633 1206 663 1206 q 587 1206 604 1206 q 411 1195 490 1206 q 274 1164 331 1184 q 186 1118 217 1145 q 155 1059 155 1090 q 170 1007 155 1028 q 209 971 184 985 q 266 951 234 958 q 330 945 297 945 q 398 951 365 945 q 456 971 431 958 q 497 1002 481 984 q 513 1044 513 1021 q 505 1075 513 1061 q 478 1101 497 1090 q 426 1119 458 1112 q 345 1129 394 1126 q 372 1131 356 1130 q 405 1134 387 1133 q 441 1136 423 1135 q 474 1137 459 1137 q 633 1110 576 1137 q 690 1031 690 1084 q 675 982 690 1003 q 630 944 660 960 q 557 917 601 928 q 458 898 514 906 q 197 820 279 876 q 114 667 114 764 q 122 623 114 642 q 145 592 131 604 q 178 573 159 579 q 217 566 197 566 "},"":{"ha":1200,"x_min":102,"x_max":1137,"o":"m 102 747 q 140 694 102 718 q 247 656 178 671 q 413 632 315 640 q 631 625 511 625 q 827 630 735 625 q 988 652 920 636 q 1097 698 1057 669 q 1137 774 1137 727 q 1105 832 1137 809 q 1016 870 1073 856 q 881 892 959 885 q 713 903 804 900 q 859 918 793 907 q 972 945 925 928 q 1046 986 1020 962 q 1072 1045 1072 1011 q 1054 1089 1072 1069 q 1002 1125 1035 1109 q 926 1153 970 1141 q 830 1172 882 1164 q 722 1183 779 1179 q 610 1187 666 1187 q 492 1183 550 1187 q 383 1171 435 1179 q 287 1152 331 1164 q 211 1126 243 1141 q 160 1093 178 1111 q 142 1053 142 1074 q 158 1006 142 1025 q 200 973 174 986 q 259 955 226 960 q 328 949 292 949 q 399 954 365 949 q 460 969 433 959 q 502 996 486 980 q 517 1033 517 1012 q 514 1065 517 1050 q 498 1092 511 1080 q 457 1111 485 1103 q 382 1122 430 1119 q 440 1128 406 1122 q 526 1134 475 1134 q 596 1131 563 1134 q 655 1118 630 1128 q 696 1088 681 1108 q 711 1036 711 1069 q 657 959 711 983 q 489 935 604 935 l 489 874 q 593 867 550 874 q 664 847 636 860 q 704 817 691 835 q 717 776 717 798 q 699 724 717 743 q 652 695 682 705 q 583 682 622 685 q 501 680 544 680 q 409 685 448 680 q 338 692 370 690 q 414 699 384 693 q 463 714 445 705 q 489 737 481 724 q 496 766 496 750 q 482 794 496 781 q 442 820 468 808 q 380 838 416 831 q 298 844 343 844 q 228 839 262 844 q 165 822 193 833 q 120 792 137 810 q 102 747 102 774 "},"":{"ha":1158,"x_min":195,"x_max":975,"o":"m 195 805 l 320 805 q 531 864 437 840 q 694 905 625 888 q 810 933 764 922 q 876 953 856 944 q 949 1005 923 972 q 975 1078 975 1038 q 965 1128 975 1106 q 938 1164 954 1149 q 900 1186 921 1179 q 856 1194 878 1194 q 818 1190 838 1194 q 778 1177 798 1186 q 735 1153 764 1171 q 665 1107 707 1135 q 571 1044 623 1079 q 458 969 518 1009 q 331 888 398 930 q 195 805 264 846 "},"":{"ha":1802,"x_min":146,"x_max":1776,"o":"m 146 710 l 146 -313 l 741 -313 l 741 -259 q 704 -154 719 -214 q 681 -30 689 -94 q 695 -31 688 -31 q 710 -31 703 -31 q 861 -8 794 -31 q 984 50 927 14 q 1062 -11 1008 8 q 1213 -31 1116 -31 q 1296 -28 1247 -31 q 1400 -23 1345 -26 q 1512 -16 1455 -20 q 1620 -8 1569 -12 q 1712 1 1671 -3 q 1776 10 1753 6 l 1776 64 q 1681 73 1722 64 q 1611 99 1639 81 q 1569 146 1584 117 q 1555 218 1555 176 l 1555 710 l 960 710 l 960 167 q 962 121 960 142 q 905 101 933 108 q 853 94 878 94 q 808 101 829 94 q 772 123 787 109 q 749 162 758 138 q 741 217 741 185 l 741 710 l 146 710 "},"":{"ha":1817,"x_min":60,"x_max":1786,"o":"m 1288 876 l 1288 -339 l 1786 -339 l 1786 -275 q 1676 -264 1725 -273 q 1587 -234 1626 -254 q 1518 -180 1548 -214 q 1470 -96 1489 -146 q 1442 24 1451 -45 q 1432 184 1432 93 q 1448 455 1432 338 q 1504 652 1464 572 q 1613 771 1544 731 q 1786 812 1681 812 l 1786 876 l 1288 876 m 60 515 q 102 375 60 437 q 227 270 143 313 q 438 203 311 227 q 739 180 566 180 q 850 183 794 180 q 968 193 905 186 q 956 20 965 93 q 928 -104 947 -53 q 881 -187 910 -155 q 809 -238 852 -219 q 708 -264 766 -256 q 573 -275 650 -273 l 573 -339 l 1130 -339 l 1130 876 l 925 876 q 621 865 752 876 q 393 833 489 854 q 233 781 297 812 q 131 710 169 750 q 76 621 92 670 q 60 515 60 572 "},"":{"ha":778,"x_min":79,"x_max":699,"o":"m 79 434 q 103 354 79 390 q 168 294 126 319 q 266 255 209 269 q 389 241 322 241 q 512 255 455 241 q 610 294 569 269 q 675 354 652 319 q 699 434 699 390 q 675 513 699 477 q 610 573 652 549 q 512 612 569 598 q 389 625 455 625 q 266 612 322 625 q 168 573 209 598 q 103 513 126 549 q 79 434 79 477 "},"":{"ha":1158,"x_min":127,"x_max":1025,"o":"m 229 -218 l 127 -218 q 154 -273 133 -248 q 206 -318 175 -298 q 277 -353 237 -338 q 361 -379 317 -368 q 453 -394 406 -389 q 547 -399 500 -399 q 752 -388 663 -399 q 902 -356 841 -377 q 994 -304 962 -334 q 1025 -235 1025 -273 q 1005 -168 1025 -195 q 951 -123 984 -140 q 876 -96 918 -105 q 792 -82 834 -86 q 712 -77 750 -78 q 647 -77 673 -77 q 586 -78 616 -77 q 538 -84 557 -79 l 537 106 l 435 67 l 435 -165 q 456 -162 444 -163 q 483 -159 469 -161 q 510 -157 497 -158 q 534 -157 524 -157 q 596 -161 563 -157 q 658 -176 630 -166 q 705 -202 686 -186 q 724 -239 724 -218 q 528 -323 724 -323 q 424 -315 475 -323 q 333 -293 374 -307 q 265 -260 292 -279 q 229 -218 237 -241 "},"":{"ha":920,"x_min":138,"x_max":869,"o":"m 138 655 l 138 600 l 869 600 l 869 655 q 781 673 817 657 q 725 718 746 688 q 694 790 703 747 q 684 887 685 832 l 684 1186 l 622 1202 q 564 1189 599 1196 q 487 1174 529 1181 q 400 1160 446 1166 q 311 1147 355 1153 q 228 1139 267 1142 q 159 1135 189 1135 l 159 1080 q 228 1070 199 1080 q 277 1046 256 1061 q 311 1011 298 1031 q 331 969 323 991 q 342 922 339 946 q 345 876 345 899 q 335 788 345 827 q 303 719 326 748 q 240 674 279 690 q 138 655 200 657 "},"":{"ha":1354,"x_min":188,"x_max":1166,"o":"m 188 873 q 223 770 188 814 q 323 699 258 727 q 477 656 387 670 q 677 642 567 642 q 877 656 787 642 q 1031 699 967 670 q 1131 770 1095 727 q 1166 873 1166 814 q 1131 976 1166 932 q 1031 1048 1095 1019 q 877 1091 967 1077 q 677 1105 787 1105 q 477 1091 567 1105 q 323 1048 387 1077 q 223 976 258 1019 q 188 873 188 932 m 677 705 q 642 717 657 705 q 616 751 627 729 q 600 804 606 773 q 594 873 594 835 q 600 943 594 911 q 616 996 606 974 q 642 1031 627 1019 q 677 1043 657 1043 q 712 1031 696 1043 q 738 996 727 1019 q 754 943 749 974 q 760 873 760 911 q 754 804 760 835 q 738 751 749 773 q 712 717 727 729 q 677 705 696 705 "},"":{"ha":1470,"x_min":95,"x_max":1375,"o":"m 1050 390 l 671 78 l 720 26 l 1283 293 q 1352 336 1329 314 q 1375 390 1375 357 q 1352 444 1375 422 q 1283 487 1329 466 l 720 753 l 671 702 l 1050 390 m 473 390 l 95 78 l 144 26 l 707 293 q 776 336 753 314 q 799 390 799 357 q 776 444 799 422 q 707 487 753 466 l 144 753 l 95 702 l 473 390 "},"":{"ha":2162,"x_min":111,"x_max":2045,"o":"m 111 655 l 111 600 l 842 600 l 842 655 q 752 674 788 657 q 696 721 717 690 q 666 797 675 752 q 657 899 657 841 l 657 1186 l 595 1202 q 537 1189 572 1196 q 460 1174 502 1181 q 373 1160 418 1166 q 283 1147 328 1153 q 200 1139 239 1142 q 132 1135 161 1135 l 132 1080 q 200 1070 172 1080 q 250 1046 229 1061 q 283 1011 271 1031 q 304 969 296 991 q 315 922 312 946 q 317 876 317 899 q 308 788 317 827 q 276 719 299 748 q 213 674 252 690 q 111 655 173 657 m 294 -43 q 401 -153 338 -111 q 446 -103 416 -134 q 514 -33 475 -72 q 597 53 552 7 q 688 145 642 98 q 781 239 735 193 q 868 326 827 285 q 942 399 909 366 q 995 452 975 431 q 1046 502 1014 470 q 1118 573 1078 533 q 1205 659 1159 613 q 1300 752 1252 705 q 1395 845 1348 799 q 1483 929 1442 890 q 1557 999 1524 968 q 1609 1046 1590 1029 q 1587 1078 1599 1063 q 1560 1107 1574 1093 q 1531 1134 1546 1122 q 1503 1155 1516 1145 q 1455 1102 1485 1135 q 1387 1029 1425 1069 q 1304 943 1348 989 q 1213 850 1259 897 q 1121 755 1167 802 q 1034 667 1075 709 q 958 590 993 625 q 899 531 923 555 q 849 481 881 513 q 777 410 817 450 q 690 326 736 371 q 596 235 644 281 q 503 146 549 190 q 416 64 456 102 q 344 -1 376 27 q 294 -43 312 -29 m 963 283 l 963 210 l 1427 210 q 1401 144 1418 175 q 1358 91 1383 114 q 1300 55 1333 68 q 1228 40 1267 41 l 1228 0 l 2019 0 l 2019 40 q 1885 86 1930 43 q 1829 210 1841 130 l 2045 210 l 2045 283 l 1824 283 l 1824 582 l 1369 582 q 1355 561 1369 575 q 1316 526 1340 546 q 1260 483 1292 507 q 1194 435 1228 460 q 1124 387 1159 411 q 1058 342 1089 363 q 1002 307 1027 322 q 963 283 977 291 m 1151 279 q 1167 313 1151 292 q 1210 359 1184 334 q 1267 410 1236 385 q 1329 456 1299 435 q 1385 490 1360 477 q 1425 503 1411 503 q 1436 494 1436 503 l 1436 283 l 1167 283 q 1157 279 1160 282 q 1152 277 1153 277 q 1151 279 1151 277 "},"":{"ha":2162,"x_min":138,"x_max":2065,"o":"m 138 655 l 138 600 l 869 600 l 869 655 q 780 674 815 657 q 723 721 744 690 q 693 797 702 752 q 684 899 684 841 l 684 1186 l 622 1202 q 564 1189 599 1196 q 487 1174 529 1181 q 400 1160 446 1166 q 311 1147 355 1153 q 228 1139 267 1142 q 159 1135 189 1135 l 159 1080 q 228 1070 199 1080 q 277 1046 256 1061 q 311 1011 298 1031 q 331 969 323 991 q 342 922 339 946 q 345 876 345 899 q 335 788 345 827 q 303 719 326 748 q 240 674 279 690 q 138 655 200 657 m 300 -43 q 408 -153 345 -111 q 453 -103 423 -134 q 520 -33 482 -72 q 604 53 559 7 q 695 145 648 98 q 788 239 742 193 q 874 326 833 285 q 948 399 916 366 q 1002 452 981 431 q 1053 502 1021 470 q 1125 573 1084 533 q 1212 659 1166 613 q 1307 752 1259 705 q 1402 845 1355 799 q 1490 929 1449 890 q 1564 999 1531 968 q 1616 1046 1596 1029 q 1593 1078 1606 1063 q 1567 1107 1581 1093 q 1538 1134 1552 1122 q 1510 1155 1523 1145 q 1462 1102 1492 1135 q 1393 1029 1432 1069 q 1311 943 1355 989 q 1220 850 1266 897 q 1128 755 1174 802 q 1041 667 1082 709 q 965 590 1000 625 q 906 531 930 555 q 856 481 888 513 q 784 410 824 450 q 697 326 743 371 q 603 235 650 281 q 509 146 555 190 q 423 64 463 102 q 351 -1 382 27 q 300 -43 319 -29 m 1074 14 q 1082 -30 1074 -11 q 1105 -61 1090 -49 q 1138 -80 1119 -74 q 1177 -87 1156 -87 q 1203 -82 1191 -87 q 1225 -70 1216 -78 q 1240 -53 1234 -62 q 1245 -33 1245 -43 q 1243 -22 1245 -27 q 1239 -12 1242 -17 l 1246 -12 q 1329 -18 1283 -12 q 1424 -32 1374 -24 q 1529 -51 1475 -41 q 1637 -70 1584 -61 q 1742 -84 1691 -78 q 1839 -90 1793 -90 q 1927 -84 1885 -90 q 1999 -62 1968 -78 q 2047 -16 2030 -45 q 2065 60 2065 13 q 2059 102 2065 83 q 2045 136 2053 121 q 2025 161 2036 151 q 2006 176 2015 171 q 1976 144 2001 158 q 1913 120 1951 130 q 1825 105 1874 110 q 1720 100 1775 100 q 1519 97 1608 100 q 1362 85 1430 94 q 1248 61 1295 77 q 1175 18 1202 45 l 1175 18 q 1173 27 1173 24 q 1173 35 1173 31 q 1187 82 1173 59 q 1235 124 1202 105 q 1323 155 1268 142 q 1459 172 1377 168 q 1716 192 1607 179 q 1896 230 1825 205 q 2002 292 1967 254 q 2036 384 2036 329 q 2019 440 2036 416 q 1972 482 2001 464 q 1905 512 1943 500 q 1825 532 1866 524 q 1741 544 1783 540 q 1660 551 1698 549 q 1593 553 1623 553 q 1547 553 1563 553 q 1370 542 1450 553 q 1234 511 1291 531 q 1145 465 1177 492 q 1114 406 1114 437 q 1129 354 1114 375 q 1169 318 1144 332 q 1225 298 1194 304 q 1290 292 1257 292 q 1357 298 1324 292 q 1416 318 1390 305 q 1457 349 1441 331 q 1472 391 1472 368 q 1465 422 1472 408 q 1437 448 1457 437 q 1386 466 1418 459 q 1305 476 1354 473 q 1331 478 1316 477 q 1365 481 1347 479 q 1401 483 1383 482 q 1434 484 1419 484 q 1593 457 1536 484 q 1649 378 1649 431 q 1634 329 1649 350 q 1590 291 1619 307 q 1517 264 1560 275 q 1417 245 1474 253 q 1156 167 1239 223 q 1074 14 1074 111 "},"":{"ha":2281,"x_min":115,"x_max":2187,"o":"m 115 739 q 132 703 115 719 q 179 674 149 687 q 251 652 210 661 q 341 637 292 643 q 444 628 390 631 q 553 625 498 625 q 768 630 669 625 q 940 652 867 636 q 1054 698 1013 669 q 1095 774 1095 727 q 1065 832 1095 809 q 980 870 1034 856 q 853 892 926 885 q 694 903 780 900 q 834 918 770 907 q 943 945 897 928 q 1014 986 989 962 q 1040 1045 1040 1011 q 1023 1089 1040 1069 q 977 1125 1006 1109 q 908 1153 948 1141 q 820 1172 867 1164 q 721 1183 773 1179 q 614 1187 668 1187 q 503 1183 558 1187 q 396 1171 447 1179 q 302 1152 346 1164 q 227 1126 259 1141 q 177 1093 195 1111 q 159 1053 159 1074 q 174 1006 159 1025 q 214 973 189 986 q 270 955 238 960 q 335 949 301 949 q 401 955 370 949 q 456 973 433 962 q 494 1002 480 985 q 508 1040 508 1019 q 500 1071 508 1057 q 475 1097 493 1086 q 426 1115 456 1108 q 350 1125 395 1122 q 378 1126 361 1125 q 416 1129 395 1128 q 461 1133 437 1131 q 509 1134 485 1134 q 578 1131 545 1134 q 639 1118 612 1128 q 682 1088 665 1108 q 698 1036 698 1069 q 644 959 698 983 q 481 935 590 935 l 481 874 q 579 867 538 874 q 647 847 621 860 q 685 817 673 835 q 697 776 697 798 q 679 724 697 743 q 629 695 660 705 q 560 682 599 685 q 480 680 521 680 q 383 683 429 680 q 307 689 336 687 q 434 712 393 691 q 475 764 475 732 q 464 793 475 779 q 431 818 453 807 q 375 836 408 829 q 300 843 342 843 q 234 837 267 843 q 174 817 201 830 q 132 785 148 804 q 115 739 115 766 m 408 -43 q 515 -153 452 -111 q 561 -103 531 -134 q 628 -33 590 -72 q 711 53 667 7 q 803 145 756 98 q 896 239 850 193 q 982 326 941 285 q 1056 399 1023 366 q 1109 452 1089 431 q 1160 502 1128 470 q 1233 573 1192 533 q 1320 659 1274 613 q 1415 752 1367 705 q 1510 845 1463 799 q 1597 929 1556 890 q 1671 999 1638 968 q 1724 1046 1704 1029 q 1701 1078 1714 1063 q 1674 1107 1689 1093 q 1646 1134 1660 1122 q 1618 1155 1631 1145 q 1570 1102 1600 1135 q 1501 1029 1539 1069 q 1418 943 1463 989 q 1328 850 1374 897 q 1236 755 1282 802 q 1148 667 1190 709 q 1073 590 1107 625 q 1014 531 1038 555 q 964 481 996 513 q 891 410 932 450 q 805 326 851 371 q 711 235 758 281 q 617 146 663 190 q 531 64 571 102 q 458 -1 490 27 q 408 -43 427 -29 m 1099 283 l 1099 210 l 1563 210 q 1536 144 1554 175 q 1494 91 1519 114 q 1436 55 1468 68 q 1364 40 1403 41 l 1364 0 l 2161 0 l 2161 40 q 2028 86 2072 43 q 1971 210 1983 130 l 2187 210 l 2187 283 l 1967 283 l 1967 582 l 1505 582 q 1490 561 1505 575 q 1452 526 1476 546 q 1396 483 1428 507 q 1329 435 1364 460 q 1260 387 1295 411 q 1194 342 1225 363 q 1137 307 1162 322 q 1099 283 1112 291 m 1286 279 q 1303 313 1286 292 q 1345 360 1320 335 q 1403 410 1371 385 q 1465 457 1434 436 q 1521 490 1495 477 q 1560 503 1547 503 q 1571 494 1571 503 l 1571 283 l 1306 283 q 1293 280 1298 283 q 1287 277 1289 277 q 1286 279 1286 277 "},"":{"ha":1788,"x_min":66,"x_max":1729,"o":"m 593 621 q 617 548 593 582 q 684 488 642 513 q 782 448 726 463 q 903 433 838 433 q 1023 448 966 433 q 1121 488 1080 463 q 1187 548 1163 513 q 1212 621 1212 582 q 1187 693 1212 659 q 1121 752 1163 727 q 1023 792 1080 778 q 903 807 966 807 q 782 792 838 807 q 684 752 726 778 q 617 693 642 727 q 593 621 593 659 m 66 -71 q 92 -155 66 -119 q 162 -218 118 -191 q 264 -263 205 -245 q 388 -295 322 -282 q 522 -314 453 -307 q 655 -324 591 -321 q 777 -328 720 -328 q 875 -329 833 -329 q 1081 -323 978 -329 q 1279 -305 1184 -317 q 1456 -274 1374 -293 q 1599 -230 1538 -256 q 1694 -171 1659 -204 q 1729 -97 1729 -138 q 1700 -14 1729 -48 q 1625 43 1672 21 q 1519 76 1579 66 q 1396 87 1459 87 q 1270 76 1329 87 q 1166 44 1211 65 q 1096 -5 1122 24 q 1070 -71 1070 -35 q 1084 -124 1070 -98 q 1132 -170 1098 -150 q 1223 -204 1166 -191 q 1367 -222 1280 -218 q 1307 -227 1343 -224 q 1232 -232 1271 -230 q 1156 -235 1193 -234 q 1095 -237 1120 -237 q 964 -230 1027 -237 q 853 -206 901 -224 q 776 -158 805 -189 q 747 -79 747 -127 q 767 -11 747 -41 q 819 45 788 19 q 887 94 850 71 q 955 142 924 117 q 1007 196 986 168 q 1027 260 1027 224 q 1019 296 1027 280 q 997 323 1010 312 q 965 340 983 334 q 928 346 947 346 q 879 342 897 346 q 849 332 861 338 q 830 317 838 326 q 814 299 823 309 q 793 279 806 290 q 759 260 781 269 q 588 196 673 221 q 426 153 503 172 q 283 117 349 134 q 169 76 217 100 q 94 17 121 52 q 66 -71 66 -18 "},"":{"ha":2161,"x_min":47,"x_max":2144,"o":"m 656 973 l 821 973 q 1038 999 942 989 q 1206 1015 1135 1008 q 1324 1025 1278 1021 q 1393 1034 1371 1029 q 1480 1082 1449 1048 q 1511 1163 1511 1116 q 1500 1213 1511 1192 q 1470 1249 1489 1235 q 1429 1271 1452 1263 q 1382 1278 1406 1278 q 1330 1271 1358 1278 q 1281 1252 1316 1267 q 1197 1213 1247 1236 q 1085 1161 1147 1190 q 952 1100 1023 1132 q 807 1036 882 1069 q 656 973 731 1003 m 47 64 l 47 0 l 616 0 l 616 64 q 556 73 586 64 q 504 99 527 81 q 466 143 480 117 q 452 203 452 169 q 453 218 452 210 q 458 235 454 225 l 998 235 q 1005 197 1005 212 q 991 138 1005 163 q 953 97 977 113 q 900 72 930 80 q 841 64 871 64 l 841 0 l 2144 0 l 2144 64 q 2078 76 2117 64 q 1995 116 2039 89 q 1905 186 1950 143 q 1821 290 1860 229 l 1451 876 l 767 876 l 345 275 q 260 178 304 218 q 176 112 216 138 q 101 75 135 87 q 47 64 67 64 m 958 329 l 507 329 q 545 390 523 355 q 596 470 567 425 q 664 572 626 515 q 749 700 702 629 q 822 574 789 631 q 880 473 854 518 q 924 392 905 427 q 958 329 943 356 "},"":{"ha":2161,"x_min":47,"x_max":2144,"o":"m 781 1034 q 848 1025 802 1029 q 967 1015 895 1021 q 1135 999 1039 1008 q 1352 973 1232 989 l 1518 973 q 1367 1036 1442 1003 q 1221 1100 1291 1069 q 1088 1161 1151 1132 q 976 1213 1026 1190 q 892 1252 926 1236 q 844 1271 858 1267 q 791 1278 815 1278 q 745 1271 768 1278 q 703 1249 722 1263 q 674 1213 685 1235 q 663 1163 663 1192 q 694 1082 663 1116 q 781 1034 725 1048 m 47 64 l 47 0 l 616 0 l 616 64 q 556 73 586 64 q 504 99 527 81 q 466 143 480 117 q 452 203 452 169 q 453 218 452 210 q 458 235 454 225 l 998 235 q 1005 197 1005 212 q 991 138 1005 163 q 953 97 977 113 q 900 72 930 80 q 841 64 871 64 l 841 0 l 2144 0 l 2144 64 q 2078 76 2117 64 q 1995 116 2039 89 q 1905 186 1950 143 q 1821 290 1860 229 l 1451 876 l 767 876 l 345 275 q 260 178 304 218 q 176 112 216 138 q 101 75 135 87 q 47 64 67 64 m 958 329 l 507 329 q 545 390 523 355 q 596 470 567 425 q 664 572 626 515 q 749 700 702 629 q 822 574 789 631 q 880 473 854 518 q 924 392 905 427 q 958 329 943 356 "},"":{"ha":2161,"x_min":47,"x_max":2144,"o":"m 543 950 l 654 950 l 1095 1074 l 1537 950 l 1648 950 q 1534 1035 1585 998 q 1442 1101 1483 1072 q 1367 1152 1400 1130 q 1303 1193 1333 1175 q 1248 1228 1274 1212 q 1196 1261 1222 1244 q 1154 1285 1177 1274 q 1095 1295 1131 1295 q 1037 1285 1059 1295 q 994 1261 1014 1274 q 942 1228 968 1244 q 887 1193 916 1212 q 824 1152 858 1175 q 749 1101 790 1130 q 656 1035 707 1072 q 543 950 606 998 m 47 64 l 47 0 l 616 0 l 616 64 q 556 73 586 64 q 504 99 527 81 q 466 143 480 117 q 452 203 452 169 q 453 218 452 210 q 458 235 454 225 l 998 235 q 1005 197 1005 212 q 991 138 1005 163 q 953 97 977 113 q 900 72 930 80 q 841 64 871 64 l 841 0 l 2144 0 l 2144 64 q 2078 76 2117 64 q 1995 116 2039 89 q 1905 186 1950 143 q 1821 290 1860 229 l 1451 876 l 767 876 l 345 275 q 260 178 304 218 q 176 112 216 138 q 101 75 135 87 q 47 64 67 64 m 958 329 l 507 329 q 545 390 523 355 q 596 470 567 425 q 664 572 626 515 q 749 700 702 629 q 822 574 789 631 q 880 473 854 518 q 924 392 905 427 q 958 329 943 356 "},"":{"ha":2161,"x_min":47,"x_max":2144,"o":"m 618 1034 l 642 1004 q 735 1030 686 1023 q 829 1038 785 1038 q 942 1025 886 1038 q 1055 997 999 1012 q 1165 968 1111 981 q 1274 956 1220 956 q 1350 963 1311 956 q 1427 993 1388 970 q 1501 1056 1465 1015 q 1572 1162 1538 1096 l 1548 1192 q 1455 1166 1505 1174 q 1362 1159 1405 1159 q 1248 1172 1305 1159 q 1136 1199 1192 1184 q 1025 1227 1080 1215 q 916 1240 970 1240 q 840 1233 879 1240 q 763 1203 802 1225 q 688 1141 725 1181 q 618 1034 652 1100 m 47 64 l 47 0 l 616 0 l 616 64 q 556 73 586 64 q 504 99 527 81 q 466 143 480 117 q 452 203 452 169 q 453 218 452 210 q 458 235 454 225 l 998 235 q 1005 197 1005 212 q 991 138 1005 163 q 953 97 977 113 q 900 72 930 80 q 841 64 871 64 l 841 0 l 2144 0 l 2144 64 q 2078 76 2117 64 q 1995 116 2039 89 q 1905 186 1950 143 q 1821 290 1860 229 l 1451 876 l 767 876 l 345 275 q 260 178 304 218 q 176 112 216 138 q 101 75 135 87 q 47 64 67 64 m 958 329 l 507 329 q 545 390 523 355 q 596 470 567 425 q 664 572 626 515 q 749 700 702 629 q 822 574 789 631 q 880 473 854 518 q 924 392 905 427 q 958 329 943 356 "},"":{"ha":2161,"x_min":47,"x_max":2144,"o":"m 1151 1125 q 1162 1083 1151 1103 q 1194 1045 1173 1062 q 1248 1019 1216 1029 q 1322 1008 1280 1008 q 1397 1019 1365 1008 q 1451 1045 1429 1029 q 1483 1083 1472 1062 q 1494 1125 1494 1103 q 1483 1168 1494 1147 q 1451 1206 1472 1189 q 1397 1233 1429 1223 q 1322 1243 1365 1243 q 1248 1233 1280 1243 q 1194 1206 1216 1223 q 1162 1168 1173 1189 q 1151 1125 1151 1147 m 696 1125 q 707 1083 696 1103 q 740 1045 718 1062 q 793 1019 762 1029 q 868 1008 825 1008 q 943 1019 911 1008 q 996 1045 975 1029 q 1029 1083 1018 1062 q 1040 1125 1040 1103 q 1029 1168 1040 1147 q 996 1206 1018 1189 q 943 1233 975 1223 q 868 1243 911 1243 q 793 1233 825 1243 q 740 1206 762 1223 q 707 1168 718 1189 q 696 1125 696 1147 m 47 64 l 47 0 l 616 0 l 616 64 q 556 73 586 64 q 504 99 527 81 q 466 143 480 117 q 452 203 452 169 q 453 218 452 210 q 458 235 454 225 l 998 235 q 1005 197 1005 212 q 991 138 1005 163 q 953 97 977 113 q 900 72 930 80 q 841 64 871 64 l 841 0 l 2144 0 l 2144 64 q 2078 76 2117 64 q 1995 116 2039 89 q 1905 186 1950 143 q 1821 290 1860 229 l 1451 876 l 767 876 l 345 275 q 260 178 304 218 q 176 112 216 138 q 101 75 135 87 q 47 64 67 64 m 958 329 l 507 329 q 545 390 523 355 q 596 470 567 425 q 664 572 626 515 q 749 700 702 629 q 822 574 789 631 q 880 473 854 518 q 924 392 905 427 q 958 329 943 356 "},"":{"ha":2161,"x_min":47,"x_max":2144,"o":"m 1095 922 q 1176 939 1138 922 q 1242 983 1214 955 q 1286 1048 1270 1010 q 1303 1129 1303 1086 q 1286 1210 1303 1172 q 1242 1276 1270 1248 q 1176 1320 1214 1304 q 1095 1337 1138 1337 q 1015 1320 1053 1337 q 949 1276 977 1304 q 905 1210 921 1248 q 888 1129 888 1172 q 905 1048 888 1086 q 949 983 921 1010 q 1015 939 977 955 q 1095 922 1053 922 m 1095 1015 q 1050 1023 1072 1015 q 1014 1048 1029 1032 q 989 1084 998 1063 q 981 1129 981 1105 q 989 1174 981 1153 q 1014 1211 998 1195 q 1050 1235 1029 1226 q 1095 1244 1072 1244 q 1140 1235 1119 1244 q 1177 1211 1161 1226 q 1201 1174 1192 1195 q 1211 1129 1211 1153 q 1201 1084 1211 1105 q 1177 1048 1192 1063 q 1140 1023 1161 1032 q 1095 1015 1119 1015 m 47 64 l 47 0 l 616 0 l 616 64 q 556 73 586 64 q 504 99 527 81 q 466 143 480 117 q 452 203 452 169 q 453 218 452 210 q 458 235 454 225 l 998 235 q 1005 197 1005 212 q 991 138 1005 163 q 953 97 977 113 q 900 72 930 80 q 841 64 871 64 l 841 0 l 2144 0 l 2144 64 q 2078 76 2117 64 q 1995 116 2039 89 q 1905 186 1950 143 q 1821 290 1860 229 l 1451 876 l 767 876 l 345 275 q 260 178 304 218 q 176 112 216 138 q 101 75 135 87 q 47 64 67 64 m 958 329 l 507 329 q 545 390 523 355 q 596 470 567 425 q 664 572 626 515 q 749 700 702 629 q 822 574 789 631 q 880 473 854 518 q 924 392 905 427 q 958 329 943 356 "},"":{"ha":2474,"x_min":-114,"x_max":2351,"o":"m -114 64 l -114 0 l 530 0 l 530 64 q 478 70 505 64 q 429 90 452 76 q 392 129 407 104 q 378 189 378 153 q 379 210 378 199 q 384 235 380 222 l 843 235 l 843 184 q 825 131 840 153 q 787 93 810 108 q 736 71 764 79 q 680 64 708 64 l 680 0 l 2317 0 q 2332 91 2325 43 q 2343 187 2338 139 q 2349 281 2347 235 q 2351 368 2351 328 l 2280 368 q 2199 294 2248 330 q 2089 225 2150 258 q 1956 165 2027 193 q 1808 117 1885 137 q 1653 85 1731 97 q 1497 74 1574 74 l 1497 401 q 1556 379 1522 394 q 1626 347 1589 365 q 1699 309 1662 329 q 1769 270 1736 288 q 1827 237 1801 252 q 1866 214 1852 222 q 1874 261 1870 235 q 1880 316 1877 288 q 1883 373 1882 345 q 1884 425 1884 401 q 1883 480 1884 450 q 1881 542 1883 511 q 1875 602 1879 572 q 1866 654 1871 631 q 1829 631 1854 646 q 1772 597 1805 616 q 1702 559 1740 579 q 1627 520 1664 538 q 1556 487 1590 502 q 1497 465 1522 473 l 1497 802 q 1650 790 1574 802 q 1797 759 1726 779 q 1935 711 1869 739 q 2059 650 2002 683 q 2161 581 2115 617 q 2239 508 2207 545 l 2311 508 q 2308 594 2311 548 q 2302 689 2306 641 q 2291 784 2298 736 q 2276 876 2285 832 l 790 876 l 275 327 q 168 219 220 268 q 67 136 116 171 q -26 83 19 102 q -114 64 -71 64 m 843 329 l 430 329 q 476 388 447 352 q 554 478 506 424 q 673 610 602 533 q 843 791 744 686 l 843 329 "},"":{"ha":1938,"x_min":78,"x_max":1860,"o":"m 78 442 q 140 223 78 312 q 315 79 201 134 q 587 -4 428 23 q 942 -37 747 -31 l 942 -195 q 964 -191 951 -193 q 990 -189 977 -190 q 1018 -186 1004 -187 q 1041 -186 1031 -186 q 1104 -188 1070 -186 q 1165 -197 1137 -191 q 1212 -217 1194 -204 q 1231 -251 1231 -230 q 1182 -307 1231 -292 q 1036 -321 1133 -321 q 931 -316 982 -321 q 840 -299 881 -310 q 772 -270 800 -288 q 736 -231 745 -253 l 634 -231 q 661 -284 640 -260 q 713 -327 682 -308 q 784 -359 744 -346 q 868 -382 824 -373 q 960 -395 913 -391 q 1054 -399 1007 -399 q 1259 -390 1170 -399 q 1409 -362 1348 -380 q 1501 -314 1470 -343 q 1533 -247 1533 -286 q 1519 -193 1533 -216 q 1481 -154 1505 -170 q 1427 -129 1458 -138 q 1362 -114 1396 -119 q 1294 -106 1329 -109 q 1229 -104 1259 -104 q 1185 -105 1210 -104 q 1134 -107 1160 -106 q 1084 -109 1108 -108 q 1045 -113 1061 -111 l 1044 -38 q 1063 -38 1054 -38 q 1082 -39 1073 -39 q 1420 -10 1274 -39 q 1663 73 1565 19 q 1811 202 1761 126 q 1860 374 1860 279 l 1759 374 q 1732 278 1754 321 q 1676 201 1710 235 q 1598 143 1642 168 q 1506 102 1554 118 q 1407 77 1457 85 q 1308 69 1356 69 q 1156 91 1229 69 q 1028 158 1084 113 q 938 269 972 202 q 905 427 905 336 q 936 605 905 533 q 1018 722 966 677 q 1137 785 1069 766 q 1278 804 1204 804 q 1371 797 1322 804 q 1469 775 1420 789 q 1563 739 1517 761 q 1646 686 1608 716 q 1711 618 1684 656 q 1752 533 1739 580 l 1853 533 q 1847 626 1853 574 q 1828 730 1840 677 q 1799 832 1816 783 q 1762 917 1782 882 l 1613 917 q 1592 894 1605 904 q 1565 877 1579 884 q 1534 865 1550 869 q 1507 861 1519 861 q 1391 869 1455 861 q 1251 887 1327 878 q 1085 905 1174 897 q 897 913 996 913 q 559 879 710 913 q 301 784 408 846 q 136 635 194 722 q 78 442 78 549 "},"":{"ha":2096,"x_min":68,"x_max":2071,"o":"m 683 973 l 848 973 q 1065 999 969 989 q 1233 1015 1162 1008 q 1352 1025 1305 1021 q 1420 1034 1398 1029 q 1507 1082 1476 1048 q 1538 1163 1538 1116 q 1527 1213 1538 1192 q 1497 1249 1516 1235 q 1456 1271 1479 1263 q 1409 1278 1433 1278 q 1357 1271 1385 1278 q 1309 1252 1343 1267 q 1224 1213 1274 1236 q 1112 1161 1175 1190 q 980 1100 1050 1132 q 834 1036 909 1069 q 683 973 758 1003 m 68 64 l 68 0 l 2037 0 q 2052 91 2045 43 q 2063 187 2058 139 q 2069 281 2067 235 q 2071 368 2071 328 l 2000 368 q 1926 288 1978 326 q 1801 216 1873 250 q 1643 155 1729 182 q 1466 109 1556 128 q 1288 78 1376 89 q 1122 67 1199 67 l 1122 402 q 1188 379 1149 395 q 1271 345 1227 364 q 1360 306 1315 326 q 1445 266 1406 285 q 1515 231 1485 246 q 1558 207 1545 215 q 1567 255 1563 228 q 1572 313 1570 283 q 1576 372 1575 342 q 1577 425 1577 401 q 1576 481 1577 450 q 1573 545 1575 513 q 1568 607 1571 577 q 1558 661 1564 637 q 1517 637 1547 653 q 1448 603 1488 622 q 1363 562 1409 583 q 1273 522 1317 541 q 1188 488 1228 503 q 1122 465 1149 473 l 1122 808 q 1280 799 1199 808 q 1440 771 1360 789 q 1593 726 1519 753 q 1731 667 1668 700 q 1845 593 1795 633 q 1925 508 1895 553 l 1997 508 q 1994 594 1997 548 q 1988 689 1992 641 q 1977 784 1984 736 q 1962 876 1971 832 l 68 876 l 68 812 q 180 806 130 812 q 269 785 231 800 q 336 744 308 770 q 382 678 364 718 q 409 583 400 638 q 417 453 417 527 q 400 270 417 343 q 344 153 384 197 q 237 87 304 108 q 68 64 170 67 "},"":{"ha":2096,"x_min":68,"x_max":2071,"o":"m 808 1034 q 876 1025 829 1029 q 994 1015 922 1021 q 1162 999 1066 1008 q 1379 973 1259 989 l 1545 973 q 1394 1036 1470 1003 q 1248 1100 1318 1069 q 1116 1161 1178 1132 q 1003 1213 1053 1190 q 919 1252 954 1236 q 871 1271 885 1267 q 819 1278 842 1278 q 772 1271 795 1278 q 730 1249 749 1263 q 701 1213 712 1235 q 690 1163 690 1192 q 721 1082 690 1116 q 808 1034 752 1048 m 68 64 l 68 0 l 2037 0 q 2052 91 2045 43 q 2063 187 2058 139 q 2069 281 2067 235 q 2071 368 2071 328 l 2000 368 q 1926 288 1978 326 q 1801 216 1873 250 q 1643 155 1729 182 q 1466 109 1556 128 q 1288 78 1376 89 q 1122 67 1199 67 l 1122 402 q 1188 379 1149 395 q 1271 345 1227 364 q 1360 306 1315 326 q 1445 266 1406 285 q 1515 231 1485 246 q 1558 207 1545 215 q 1567 255 1563 228 q 1572 313 1570 283 q 1576 372 1575 342 q 1577 425 1577 401 q 1576 481 1577 450 q 1573 545 1575 513 q 1568 607 1571 577 q 1558 661 1564 637 q 1517 637 1547 653 q 1448 603 1488 622 q 1363 562 1409 583 q 1273 522 1317 541 q 1188 488 1228 503 q 1122 465 1149 473 l 1122 808 q 1280 799 1199 808 q 1440 771 1360 789 q 1593 726 1519 753 q 1731 667 1668 700 q 1845 593 1795 633 q 1925 508 1895 553 l 1997 508 q 1994 594 1997 548 q 1988 689 1992 641 q 1977 784 1984 736 q 1962 876 1971 832 l 68 876 l 68 812 q 180 806 130 812 q 269 785 231 800 q 336 744 308 770 q 382 678 364 718 q 409 583 400 638 q 417 453 417 527 q 400 270 417 343 q 344 153 384 197 q 237 87 304 108 q 68 64 170 67 "},"":{"ha":2096,"x_min":68,"x_max":2071,"o":"m 570 950 l 681 950 l 1122 1074 l 1564 950 l 1675 950 q 1561 1035 1612 998 q 1469 1101 1510 1072 q 1394 1152 1428 1130 q 1331 1193 1360 1175 q 1275 1228 1301 1212 q 1223 1261 1249 1244 q 1181 1285 1204 1274 q 1122 1295 1158 1295 q 1064 1285 1086 1295 q 1021 1261 1041 1274 q 969 1228 996 1244 q 914 1193 943 1212 q 851 1152 885 1175 q 776 1101 817 1130 q 684 1035 734 1072 q 570 950 633 998 m 68 64 l 68 0 l 2037 0 q 2052 91 2045 43 q 2063 187 2058 139 q 2069 281 2067 235 q 2071 368 2071 328 l 2000 368 q 1926 288 1978 326 q 1801 216 1873 250 q 1643 155 1729 182 q 1466 109 1556 128 q 1288 78 1376 89 q 1122 67 1199 67 l 1122 402 q 1188 379 1149 395 q 1271 345 1227 364 q 1360 306 1315 326 q 1445 266 1406 285 q 1515 231 1485 246 q 1558 207 1545 215 q 1567 255 1563 228 q 1572 313 1570 283 q 1576 372 1575 342 q 1577 425 1577 401 q 1576 481 1577 450 q 1573 545 1575 513 q 1568 607 1571 577 q 1558 661 1564 637 q 1517 637 1547 653 q 1448 603 1488 622 q 1363 562 1409 583 q 1273 522 1317 541 q 1188 488 1228 503 q 1122 465 1149 473 l 1122 808 q 1280 799 1199 808 q 1440 771 1360 789 q 1593 726 1519 753 q 1731 667 1668 700 q 1845 593 1795 633 q 1925 508 1895 553 l 1997 508 q 1994 594 1997 548 q 1988 689 1992 641 q 1977 784 1984 736 q 1962 876 1971 832 l 68 876 l 68 812 q 180 806 130 812 q 269 785 231 800 q 336 744 308 770 q 382 678 364 718 q 409 583 400 638 q 417 453 417 527 q 400 270 417 343 q 344 153 384 197 q 237 87 304 108 q 68 64 170 67 "},"":{"ha":2096,"x_min":68,"x_max":2071,"o":"m 1178 1125 q 1189 1083 1178 1103 q 1221 1045 1200 1062 q 1275 1019 1243 1029 q 1350 1008 1307 1008 q 1424 1019 1392 1008 q 1478 1045 1456 1029 q 1510 1083 1499 1062 q 1521 1125 1521 1103 q 1510 1168 1521 1147 q 1478 1206 1499 1189 q 1424 1233 1456 1223 q 1350 1243 1392 1243 q 1275 1233 1307 1243 q 1221 1206 1243 1223 q 1189 1168 1200 1189 q 1178 1125 1178 1147 m 724 1125 q 734 1083 724 1103 q 767 1045 745 1062 q 821 1019 789 1029 q 895 1008 852 1008 q 970 1019 938 1008 q 1023 1045 1002 1029 q 1056 1083 1045 1062 q 1067 1125 1067 1103 q 1056 1168 1067 1147 q 1023 1206 1045 1189 q 970 1233 1002 1223 q 895 1243 938 1243 q 821 1233 852 1243 q 767 1206 789 1223 q 734 1168 745 1189 q 724 1125 724 1147 m 68 64 l 68 0 l 2037 0 q 2052 91 2045 43 q 2063 187 2058 139 q 2069 281 2067 235 q 2071 368 2071 328 l 2000 368 q 1926 288 1978 326 q 1801 216 1873 250 q 1643 155 1729 182 q 1466 109 1556 128 q 1288 78 1376 89 q 1122 67 1199 67 l 1122 402 q 1188 379 1149 395 q 1271 345 1227 364 q 1360 306 1315 326 q 1445 266 1406 285 q 1515 231 1485 246 q 1558 207 1545 215 q 1567 255 1563 228 q 1572 313 1570 283 q 1576 372 1575 342 q 1577 425 1577 401 q 1576 481 1577 450 q 1573 545 1575 513 q 1568 607 1571 577 q 1558 661 1564 637 q 1517 637 1547 653 q 1448 603 1488 622 q 1363 562 1409 583 q 1273 522 1317 541 q 1188 488 1228 503 q 1122 465 1149 473 l 1122 808 q 1280 799 1199 808 q 1440 771 1360 789 q 1593 726 1519 753 q 1731 667 1668 700 q 1845 593 1795 633 q 1925 508 1895 553 l 1997 508 q 1994 594 1997 548 q 1988 689 1992 641 q 1977 784 1984 736 q 1962 876 1971 832 l 68 876 l 68 812 q 180 806 130 812 q 269 785 231 800 q 336 744 308 770 q 382 678 364 718 q 409 583 400 638 q 417 453 417 527 q 400 270 417 343 q 344 153 384 197 q 237 87 304 108 q 68 64 170 67 "},"":{"ha":1539,"x_min":68,"x_max":1471,"o":"m 330 973 l 495 973 q 712 999 616 989 q 880 1015 808 1008 q 998 1025 951 1021 q 1067 1034 1045 1029 q 1154 1082 1122 1048 q 1185 1163 1185 1116 q 1174 1213 1185 1192 q 1144 1249 1162 1235 q 1103 1271 1126 1263 q 1056 1278 1080 1278 q 1004 1271 1032 1278 q 955 1252 989 1267 q 871 1213 921 1236 q 759 1161 821 1190 q 626 1100 696 1132 q 480 1036 556 1069 q 330 973 405 1003 m 68 64 l 68 0 l 1471 0 l 1471 64 q 1302 87 1369 67 q 1195 153 1235 108 q 1139 270 1155 197 q 1122 453 1122 343 q 1142 634 1122 564 q 1203 744 1161 704 q 1311 798 1245 783 q 1471 812 1377 812 l 1471 876 l 68 876 l 68 812 q 180 806 130 812 q 269 785 231 800 q 336 744 308 770 q 382 678 364 718 q 409 583 400 638 q 417 453 417 527 q 400 270 417 343 q 344 153 384 197 q 237 87 304 108 q 68 64 170 67 "},"":{"ha":1539,"x_min":68,"x_max":1471,"o":"m 454 1034 q 522 1025 475 1029 q 641 1015 569 1021 q 809 999 713 1008 q 1026 973 905 989 l 1192 973 q 1041 1036 1116 1003 q 895 1100 965 1069 q 762 1161 825 1132 q 650 1213 700 1190 q 566 1252 600 1236 q 517 1271 532 1267 q 465 1278 489 1278 q 418 1271 441 1278 q 377 1249 395 1263 q 348 1213 359 1235 q 336 1163 336 1192 q 368 1082 336 1116 q 454 1034 399 1048 m 68 64 l 68 0 l 1471 0 l 1471 64 q 1302 87 1369 67 q 1195 153 1235 108 q 1139 270 1155 197 q 1122 453 1122 343 q 1142 634 1122 564 q 1203 744 1161 704 q 1311 798 1245 783 q 1471 812 1377 812 l 1471 876 l 68 876 l 68 812 q 180 806 130 812 q 269 785 231 800 q 336 744 308 770 q 382 678 364 718 q 409 583 400 638 q 417 453 417 527 q 400 270 417 343 q 344 153 384 197 q 237 87 304 108 q 68 64 170 67 "},"":{"ha":1539,"x_min":68,"x_max":1471,"o":"m 216 950 l 328 950 l 769 1074 l 1211 950 l 1322 950 q 1208 1035 1259 998 q 1116 1101 1157 1072 q 1040 1152 1074 1130 q 977 1193 1006 1175 q 922 1228 948 1212 q 870 1261 896 1244 q 828 1285 850 1274 q 769 1295 805 1295 q 710 1285 733 1295 q 668 1261 688 1274 q 616 1228 642 1244 q 561 1193 590 1212 q 498 1152 532 1175 q 422 1101 464 1130 q 330 1035 381 1072 q 216 950 279 998 m 68 64 l 68 0 l 1471 0 l 1471 64 q 1305 86 1372 67 q 1199 148 1239 105 q 1141 259 1159 190 q 1122 431 1124 328 l 1122 453 q 1142 634 1122 564 q 1203 744 1161 704 q 1311 798 1245 783 q 1471 812 1377 812 l 1471 876 l 68 876 l 68 812 q 180 806 130 812 q 269 785 231 800 q 336 744 308 770 q 382 678 364 718 q 409 583 400 638 q 417 453 417 527 q 400 270 417 343 q 344 153 384 197 q 237 87 304 108 q 68 64 170 67 "},"":{"ha":1539,"x_min":68,"x_max":1471,"o":"m 825 1125 q 836 1083 825 1103 q 868 1045 846 1062 q 922 1019 890 1029 q 996 1008 954 1008 q 1071 1019 1039 1008 q 1124 1045 1103 1029 q 1157 1083 1146 1062 q 1168 1125 1168 1103 q 1157 1168 1168 1147 q 1124 1206 1146 1189 q 1071 1233 1103 1223 q 996 1243 1039 1243 q 922 1233 954 1243 q 868 1206 890 1223 q 836 1168 846 1189 q 825 1125 825 1147 m 542 1008 q 616 1019 585 1008 q 670 1045 648 1029 q 703 1083 692 1062 q 713 1125 713 1103 q 703 1168 713 1147 q 670 1206 692 1189 q 616 1233 648 1223 q 542 1243 585 1243 q 467 1233 499 1243 q 414 1206 435 1223 q 381 1168 392 1189 q 370 1125 370 1147 q 381 1083 370 1103 q 414 1045 392 1062 q 467 1019 435 1029 q 542 1008 499 1008 m 68 64 l 68 0 l 1471 0 l 1471 64 q 1302 87 1369 67 q 1195 153 1235 108 q 1139 270 1155 197 q 1122 453 1122 343 q 1142 634 1122 564 q 1203 744 1161 704 q 1311 798 1245 783 q 1471 812 1377 812 l 1471 876 l 68 876 l 68 812 q 180 806 130 812 q 269 785 231 800 q 336 744 308 770 q 382 678 364 718 q 409 583 400 638 q 417 453 417 527 q 400 270 417 343 q 344 153 384 197 q 237 87 304 108 q 68 64 170 67 "},"":{"ha":2262,"x_min":68,"x_max":2191,"o":"m 68 64 l 68 0 l 1099 0 q 1273 2 1182 0 q 1456 9 1364 3 q 1639 28 1549 16 q 1811 62 1729 40 q 1962 115 1893 83 q 2083 193 2032 147 q 2162 300 2134 239 q 2191 439 2191 361 q 2151 614 2191 542 q 2040 734 2110 686 q 1873 811 1969 783 q 1665 853 1777 839 q 1431 871 1553 867 q 1185 876 1308 876 l 68 876 l 68 812 q 221 799 157 812 q 327 751 285 786 q 391 654 370 716 q 416 495 413 593 q 329 497 372 496 q 247 499 286 498 q 176 502 208 500 q 120 505 143 503 q 118 491 119 499 q 116 474 117 483 q 114 457 115 465 q 114 443 114 448 q 114 428 114 437 q 116 410 115 419 q 118 393 117 401 q 120 380 119 385 q 177 384 144 382 q 249 387 210 385 q 329 389 287 388 q 416 391 372 390 q 392 238 412 300 q 331 139 372 177 q 226 84 290 102 q 68 64 161 67 m 1122 82 l 1122 390 q 1232 386 1182 389 q 1313 380 1282 384 q 1318 412 1316 398 q 1320 443 1320 426 q 1318 474 1320 460 q 1313 505 1316 488 q 1232 500 1281 503 q 1122 496 1182 498 l 1122 794 q 1206 788 1167 793 q 1278 769 1246 783 q 1336 731 1311 755 q 1379 668 1362 707 q 1406 573 1397 629 q 1415 439 1415 517 q 1394 262 1415 330 q 1333 155 1372 194 q 1241 101 1295 117 q 1122 82 1187 85 "},"":{"ha":2258,"x_min":54,"x_max":2235,"o":"m 684 1034 l 708 1004 q 801 1030 751 1023 q 895 1038 851 1038 q 1008 1025 951 1038 q 1121 997 1065 1012 q 1231 968 1177 981 q 1339 956 1286 956 q 1415 963 1377 956 q 1492 993 1454 970 q 1567 1056 1531 1015 q 1638 1162 1604 1096 l 1614 1192 q 1521 1166 1571 1174 q 1428 1159 1471 1159 q 1314 1172 1371 1159 q 1201 1199 1257 1184 q 1090 1227 1145 1215 q 982 1240 1036 1240 q 906 1233 945 1240 q 829 1203 867 1225 q 754 1141 791 1181 q 684 1034 718 1100 m 54 64 l 54 0 l 834 0 l 834 64 q 669 86 735 67 q 563 148 603 105 q 505 259 522 190 q 486 431 487 328 l 486 453 q 489 545 486 504 q 501 621 493 587 q 619 519 558 572 q 742 415 680 467 q 863 311 803 362 q 976 214 922 260 q 1224 0 1102 106 l 1920 0 l 1920 453 q 1926 583 1920 527 q 1946 678 1932 638 q 1984 744 1961 718 q 2042 785 2007 770 q 2125 806 2077 800 q 2235 812 2172 812 l 2235 876 l 1489 876 l 1489 812 q 1648 798 1582 812 q 1756 744 1714 783 q 1818 634 1799 704 q 1837 453 1837 564 q 1837 420 1837 436 q 1836 390 1836 405 l 1238 876 l 54 876 l 54 812 q 167 806 117 812 q 256 785 217 800 q 322 744 294 770 q 369 678 351 718 q 395 583 387 638 q 404 453 404 527 q 387 270 404 343 q 330 153 370 197 q 223 87 290 108 q 54 64 156 67 "},"":{"ha":2050,"x_min":71,"x_max":1979,"o":"m 562 973 l 727 973 q 944 999 848 989 q 1112 1015 1040 1008 q 1230 1025 1183 1021 q 1299 1034 1277 1029 q 1385 1082 1354 1048 q 1417 1163 1417 1116 q 1406 1213 1417 1192 q 1376 1249 1394 1235 q 1335 1271 1358 1263 q 1288 1278 1312 1278 q 1236 1271 1264 1278 q 1187 1252 1221 1267 q 1103 1213 1153 1236 q 991 1161 1053 1190 q 858 1100 928 1132 q 712 1036 788 1069 q 562 973 637 1003 m 71 437 q 110 264 71 338 q 215 137 148 190 q 373 50 281 84 q 570 -4 464 16 q 792 -31 675 -24 q 1025 -39 908 -39 q 1258 -31 1141 -39 q 1480 -4 1374 -24 q 1677 50 1586 16 q 1835 137 1769 84 q 1941 264 1902 190 q 1979 437 1979 338 q 1941 611 1979 537 q 1835 738 1902 685 q 1677 825 1769 791 q 1480 879 1586 859 q 1258 906 1374 899 q 1025 913 1141 913 q 792 906 908 913 q 570 879 675 899 q 373 825 464 859 q 215 738 281 791 q 110 611 148 685 q 71 437 71 537 m 861 437 q 864 537 861 488 q 873 630 867 586 q 892 713 880 675 q 921 778 903 751 q 963 821 939 806 q 1021 837 988 837 q 1103 807 1071 837 q 1154 723 1135 777 q 1181 596 1173 669 q 1189 437 1189 523 q 1181 279 1189 352 q 1154 152 1173 205 q 1103 68 1135 99 q 1021 38 1071 38 q 941 68 972 38 q 892 152 909 99 q 868 279 874 205 q 861 437 861 352 "},"":{"ha":2050,"x_min":71,"x_max":1979,"o":"m 686 1034 q 754 1025 707 1029 q 873 1015 801 1021 q 1041 999 945 1008 q 1258 973 1137 989 l 1423 973 q 1273 1036 1348 1003 q 1127 1100 1197 1069 q 994 1161 1057 1132 q 882 1213 932 1190 q 798 1252 832 1236 q 749 1271 764 1267 q 697 1278 721 1278 q 650 1271 673 1278 q 609 1249 627 1263 q 579 1213 591 1235 q 568 1163 568 1192 q 600 1082 568 1116 q 686 1034 631 1048 m 71 437 q 110 264 71 338 q 215 137 148 190 q 373 50 281 84 q 570 -4 464 16 q 792 -31 675 -24 q 1025 -39 908 -39 q 1258 -31 1141 -39 q 1480 -4 1374 -24 q 1677 50 1586 16 q 1835 137 1769 84 q 1941 264 1902 190 q 1979 437 1979 338 q 1941 611 1979 537 q 1835 738 1902 685 q 1677 825 1769 791 q 1480 879 1586 859 q 1258 906 1374 899 q 1025 913 1141 913 q 792 906 908 913 q 570 879 675 899 q 373 825 464 859 q 215 738 281 791 q 110 611 148 685 q 71 437 71 537 m 861 437 q 864 537 861 488 q 873 630 867 586 q 892 713 880 675 q 921 778 903 751 q 963 821 939 806 q 1021 837 988 837 q 1103 807 1071 837 q 1154 723 1135 777 q 1181 596 1173 669 q 1189 437 1189 523 q 1181 279 1189 352 q 1154 152 1173 205 q 1103 68 1135 99 q 1021 38 1071 38 q 941 68 972 38 q 892 152 909 99 q 868 279 874 205 q 861 437 861 352 "},"":{"ha":2050,"x_min":71,"x_max":1979,"o":"m 448 950 l 559 950 l 1001 1074 l 1442 950 l 1554 950 q 1440 1035 1491 998 q 1348 1101 1389 1072 q 1272 1152 1306 1130 q 1209 1193 1238 1175 q 1154 1228 1180 1212 q 1102 1261 1128 1244 q 1060 1285 1082 1274 q 1001 1295 1037 1295 q 942 1285 965 1295 q 900 1261 920 1274 q 848 1228 874 1244 q 793 1193 822 1212 q 730 1152 764 1175 q 654 1101 696 1130 q 562 1035 613 1072 q 448 950 511 998 m 71 437 q 110 264 71 338 q 215 137 148 190 q 373 50 281 84 q 570 -4 464 16 q 792 -31 675 -24 q 1025 -39 908 -39 q 1258 -31 1141 -39 q 1480 -4 1374 -24 q 1677 50 1586 16 q 1835 137 1769 84 q 1941 264 1902 190 q 1979 437 1979 338 q 1941 611 1979 537 q 1835 738 1902 685 q 1677 825 1769 791 q 1480 879 1586 859 q 1258 906 1374 899 q 1025 913 1141 913 q 792 906 908 913 q 570 879 675 899 q 373 825 464 859 q 215 738 281 791 q 110 611 148 685 q 71 437 71 537 m 861 437 q 864 537 861 488 q 873 630 867 586 q 892 713 880 675 q 921 778 903 751 q 963 821 939 806 q 1021 837 988 837 q 1103 807 1071 837 q 1154 723 1135 777 q 1181 596 1173 669 q 1189 437 1189 523 q 1181 279 1189 352 q 1154 152 1173 205 q 1103 68 1135 99 q 1021 38 1071 38 q 941 68 972 38 q 892 152 909 99 q 868 279 874 205 q 861 437 861 352 "},"":{"ha":2050,"x_min":71,"x_max":1979,"o":"m 524 1034 l 548 1004 q 641 1030 591 1023 q 734 1038 691 1038 q 848 1025 791 1038 q 961 997 905 1012 q 1071 968 1017 981 q 1179 956 1126 956 q 1255 963 1217 956 q 1332 993 1294 970 q 1407 1056 1371 1015 q 1478 1162 1444 1096 l 1454 1192 q 1361 1166 1411 1174 q 1267 1159 1311 1159 q 1154 1172 1211 1159 q 1041 1199 1097 1184 q 930 1227 985 1215 q 822 1240 876 1240 q 746 1233 785 1240 q 669 1203 707 1225 q 594 1141 631 1181 q 524 1034 557 1100 m 71 437 q 110 264 71 338 q 215 137 148 190 q 373 50 281 84 q 570 -4 464 16 q 792 -31 675 -24 q 1025 -39 908 -39 q 1258 -31 1141 -39 q 1480 -4 1374 -24 q 1677 50 1586 16 q 1835 137 1769 84 q 1941 264 1902 190 q 1979 437 1979 338 q 1941 611 1979 537 q 1835 738 1902 685 q 1677 825 1769 791 q 1480 879 1586 859 q 1258 906 1374 899 q 1025 913 1141 913 q 792 906 908 913 q 570 879 675 899 q 373 825 464 859 q 215 738 281 791 q 110 611 148 685 q 71 437 71 537 m 861 437 q 864 537 861 488 q 873 630 867 586 q 892 713 880 675 q 921 778 903 751 q 963 821 939 806 q 1021 837 988 837 q 1103 807 1071 837 q 1154 723 1135 777 q 1181 596 1173 669 q 1189 437 1189 523 q 1181 279 1189 352 q 1154 152 1173 205 q 1103 68 1135 99 q 1021 38 1071 38 q 941 68 972 38 q 892 152 909 99 q 868 279 874 205 q 861 437 861 352 "},"":{"ha":2050,"x_min":71,"x_max":1979,"o":"m 1057 1125 q 1067 1083 1057 1103 q 1100 1045 1078 1062 q 1154 1019 1122 1029 q 1228 1008 1185 1008 q 1303 1019 1271 1008 q 1356 1045 1335 1029 q 1389 1083 1378 1062 q 1400 1125 1400 1103 q 1389 1168 1400 1147 q 1356 1206 1378 1189 q 1303 1233 1335 1223 q 1228 1243 1271 1243 q 1154 1233 1185 1243 q 1100 1206 1122 1223 q 1067 1168 1078 1189 q 1057 1125 1057 1147 m 774 1008 q 848 1019 817 1008 q 902 1045 880 1029 q 935 1083 924 1062 q 945 1125 945 1103 q 935 1168 945 1147 q 902 1206 924 1189 q 848 1233 880 1223 q 774 1243 817 1243 q 699 1233 731 1243 q 646 1206 667 1223 q 613 1168 624 1189 q 602 1125 602 1147 q 613 1083 602 1103 q 646 1045 624 1062 q 699 1019 667 1029 q 774 1008 731 1008 m 71 437 q 110 264 71 338 q 215 137 148 190 q 373 50 281 84 q 570 -4 464 16 q 792 -31 675 -24 q 1025 -39 908 -39 q 1258 -31 1141 -39 q 1480 -4 1374 -24 q 1677 50 1586 16 q 1835 137 1769 84 q 1941 264 1902 190 q 1979 437 1979 338 q 1941 611 1979 537 q 1835 738 1902 685 q 1677 825 1769 791 q 1480 879 1586 859 q 1258 906 1374 899 q 1025 913 1141 913 q 792 906 908 913 q 570 879 675 899 q 373 825 464 859 q 215 738 281 791 q 110 611 148 685 q 71 437 71 537 m 861 437 q 864 537 861 488 q 873 630 867 586 q 892 713 880 675 q 921 778 903 751 q 963 821 939 806 q 1021 837 988 837 q 1103 807 1071 837 q 1154 723 1135 777 q 1181 596 1173 669 q 1189 437 1189 523 q 1181 279 1189 352 q 1154 152 1173 205 q 1103 68 1135 99 q 1021 38 1071 38 q 941 68 972 38 q 892 152 909 99 q 868 279 874 205 q 861 437 861 352 "},"":{"ha":996,"x_min":77,"x_max":919,"o":"m 174 96 q 332 232 251 164 q 498 366 413 299 q 662 234 581 300 q 821 96 743 167 q 876 144 849 118 q 919 194 903 170 q 754 312 837 252 q 587 435 671 372 q 752 559 669 499 q 919 678 836 620 q 872 730 897 706 q 821 776 848 755 q 663 638 743 705 q 497 505 582 571 q 331 638 412 571 q 174 776 250 706 q 77 678 118 732 q 243 559 160 618 q 408 436 326 499 q 243 314 326 374 q 77 194 161 254 q 124 139 98 166 q 174 96 150 113 "},"":{"ha":2050,"x_min":71,"x_max":1979,"o":"m 132 -4 q 143 -35 136 -19 q 157 -64 149 -50 q 175 -91 165 -79 q 194 -113 184 -104 q 231 -89 208 -104 q 284 -56 254 -75 q 350 -15 314 -37 q 427 31 387 7 q 564 -2 492 11 q 711 -24 635 -16 q 866 -35 787 -32 q 1025 -39 945 -39 q 1258 -31 1141 -39 q 1480 -4 1374 -24 q 1677 50 1586 16 q 1835 137 1769 84 q 1941 264 1902 190 q 1979 437 1979 338 q 1963 555 1979 501 q 1916 652 1946 608 q 1844 731 1886 696 q 1748 793 1801 766 q 1844 844 1803 823 q 1902 873 1884 865 q 1876 931 1891 905 q 1840 981 1862 957 q 1807 960 1828 973 q 1757 929 1786 947 q 1693 890 1729 911 q 1618 845 1658 869 q 1482 878 1554 865 q 1336 899 1411 891 q 1181 910 1260 907 q 1025 913 1103 913 q 792 906 908 913 q 570 879 675 899 q 373 825 464 859 q 215 738 281 791 q 110 611 148 685 q 71 437 71 537 q 87 321 71 374 q 133 224 103 268 q 204 146 162 180 q 297 84 245 111 q 196 29 239 52 q 132 -4 153 6 m 983 471 l 861 401 l 861 437 q 864 537 861 488 q 873 630 867 586 q 892 713 880 675 q 921 778 903 751 q 963 821 939 806 q 1021 837 988 837 q 1086 819 1059 837 q 1134 768 1114 801 q 1164 689 1153 735 q 1182 587 1176 643 q 1060 516 1113 546 q 983 471 1008 486 m 867 290 q 963 347 920 322 q 1031 387 1006 372 l 1188 477 q 1189 457 1189 467 q 1189 437 1189 448 q 1181 279 1189 352 q 1154 152 1173 205 q 1103 68 1135 99 q 1021 38 1071 38 q 956 56 983 38 q 911 108 929 75 q 882 188 892 141 q 867 290 871 234 "},"":{"ha":2340,"x_min":61,"x_max":2321,"o":"m 924 973 l 1090 973 q 1307 999 1211 989 q 1475 1015 1403 1008 q 1593 1025 1546 1021 q 1662 1034 1640 1029 q 1748 1082 1717 1048 q 1780 1163 1780 1116 q 1768 1213 1780 1192 q 1739 1249 1757 1235 q 1697 1271 1721 1263 q 1651 1278 1674 1278 q 1598 1271 1627 1278 q 1550 1252 1584 1267 q 1466 1213 1516 1236 q 1354 1161 1416 1190 q 1221 1100 1291 1132 q 1075 1036 1151 1069 q 924 973 1000 1003 m 410 460 l 410 417 q 445 234 410 309 q 539 107 479 158 q 683 27 600 56 q 863 -16 766 -1 q 1068 -35 960 -31 q 1284 -39 1175 -39 q 1476 -32 1386 -39 q 1640 -5 1565 -24 q 1775 50 1716 15 q 1876 140 1834 85 q 1939 275 1917 196 q 1961 462 1961 354 q 1982 642 1961 573 q 2047 748 2003 711 q 2160 799 2091 786 q 2321 812 2228 812 l 2321 876 l 1608 876 l 1608 812 q 1720 793 1672 812 q 1801 732 1769 775 q 1849 619 1833 690 q 1866 444 1866 549 q 1841 282 1866 351 q 1771 169 1815 214 q 1665 102 1726 124 q 1531 81 1603 81 q 1399 104 1463 81 q 1286 173 1335 127 q 1206 289 1236 220 q 1176 450 1176 358 q 1193 622 1176 552 q 1241 733 1209 691 q 1322 793 1274 775 q 1433 812 1370 812 l 1433 876 l 61 876 l 61 812 q 218 798 152 812 q 326 746 283 785 q 390 639 369 708 q 410 460 410 570 "},"":{"ha":2340,"x_min":61,"x_max":2321,"o":"m 922 1034 q 989 1025 943 1029 q 1108 1015 1036 1021 q 1276 999 1180 1008 q 1493 973 1373 989 l 1659 973 q 1508 1036 1584 1003 q 1362 1100 1432 1069 q 1230 1161 1292 1132 q 1117 1213 1167 1190 q 1033 1252 1067 1236 q 985 1271 999 1267 q 932 1278 956 1278 q 886 1271 909 1278 q 844 1249 863 1263 q 815 1213 826 1235 q 804 1163 804 1192 q 835 1082 804 1116 q 922 1034 866 1048 m 410 460 l 410 417 q 445 234 410 309 q 539 107 479 158 q 683 27 600 56 q 863 -16 766 -1 q 1068 -35 960 -31 q 1284 -39 1175 -39 q 1476 -32 1386 -39 q 1640 -5 1565 -24 q 1775 50 1716 15 q 1876 140 1834 85 q 1939 275 1917 196 q 1961 462 1961 354 q 1982 642 1961 573 q 2047 748 2003 711 q 2160 799 2091 786 q 2321 812 2228 812 l 2321 876 l 1608 876 l 1608 812 q 1720 793 1672 812 q 1801 732 1769 775 q 1849 619 1833 690 q 1866 444 1866 549 q 1841 282 1866 351 q 1771 169 1815 214 q 1665 102 1726 124 q 1531 81 1603 81 q 1399 104 1463 81 q 1286 173 1335 127 q 1206 289 1236 220 q 1176 450 1176 358 q 1193 622 1176 552 q 1241 733 1209 691 q 1322 793 1274 775 q 1433 812 1370 812 l 1433 876 l 61 876 l 61 812 q 218 798 152 812 q 326 746 283 785 q 390 639 369 708 q 410 460 410 570 "},"":{"ha":2340,"x_min":61,"x_max":2321,"o":"m 798 950 l 909 950 l 1351 1074 l 1792 950 l 1904 950 q 1790 1035 1841 998 q 1697 1101 1739 1072 q 1622 1152 1656 1130 q 1559 1193 1588 1175 q 1504 1228 1530 1212 q 1452 1261 1478 1244 q 1410 1285 1432 1274 q 1351 1295 1387 1295 q 1292 1285 1315 1295 q 1250 1261 1270 1274 q 1198 1228 1224 1244 q 1143 1193 1172 1212 q 1080 1152 1114 1175 q 1004 1101 1046 1130 q 912 1035 963 1072 q 798 950 861 998 m 410 460 l 410 417 q 445 234 410 309 q 539 107 479 158 q 683 27 600 56 q 863 -16 766 -1 q 1068 -35 960 -31 q 1284 -39 1175 -39 q 1476 -32 1386 -39 q 1640 -5 1565 -24 q 1775 50 1716 15 q 1876 140 1834 85 q 1939 275 1917 196 q 1961 462 1961 354 q 1982 642 1961 573 q 2047 748 2003 711 q 2160 799 2091 786 q 2321 812 2228 812 l 2321 876 l 1608 876 l 1608 812 q 1720 793 1672 812 q 1801 732 1769 775 q 1849 619 1833 690 q 1866 444 1866 549 q 1841 282 1866 351 q 1771 169 1815 214 q 1665 102 1726 124 q 1531 81 1603 81 q 1399 104 1463 81 q 1286 173 1335 127 q 1206 289 1236 220 q 1176 450 1176 358 q 1193 622 1176 552 q 1241 733 1209 691 q 1322 793 1274 775 q 1433 812 1370 812 l 1433 876 l 61 876 l 61 812 q 218 798 152 812 q 326 746 283 785 q 390 639 369 708 q 410 460 410 570 "},"":{"ha":2340,"x_min":61,"x_max":2321,"o":"m 1409 1125 q 1419 1083 1409 1103 q 1452 1045 1430 1062 q 1506 1019 1474 1029 q 1580 1008 1537 1008 q 1655 1019 1623 1008 q 1708 1045 1687 1029 q 1741 1083 1730 1062 q 1752 1125 1752 1103 q 1741 1168 1752 1147 q 1708 1206 1730 1189 q 1655 1233 1687 1223 q 1580 1243 1623 1243 q 1506 1233 1537 1243 q 1452 1206 1474 1223 q 1419 1168 1430 1189 q 1409 1125 1409 1147 m 954 1125 q 965 1083 954 1103 q 998 1045 976 1062 q 1051 1019 1019 1029 q 1126 1008 1083 1008 q 1200 1019 1168 1008 q 1254 1045 1232 1029 q 1286 1083 1276 1062 q 1297 1125 1297 1103 q 1286 1168 1297 1147 q 1254 1206 1276 1189 q 1200 1233 1232 1223 q 1126 1243 1168 1243 q 1051 1233 1083 1243 q 998 1206 1019 1223 q 965 1168 976 1189 q 954 1125 954 1147 m 410 460 l 410 417 q 445 234 410 309 q 539 107 479 158 q 683 27 600 56 q 863 -16 766 -1 q 1068 -35 960 -31 q 1284 -39 1175 -39 q 1476 -32 1386 -39 q 1640 -5 1565 -24 q 1775 50 1716 15 q 1876 140 1834 85 q 1939 275 1917 196 q 1961 462 1961 354 q 1982 642 1961 573 q 2047 748 2003 711 q 2160 799 2091 786 q 2321 812 2228 812 l 2321 876 l 1608 876 l 1608 812 q 1720 793 1672 812 q 1801 732 1769 775 q 1849 619 1833 690 q 1866 444 1866 549 q 1841 282 1866 351 q 1771 169 1815 214 q 1665 102 1726 124 q 1531 81 1603 81 q 1399 104 1463 81 q 1286 173 1335 127 q 1206 289 1236 220 q 1176 450 1176 358 q 1193 622 1176 552 q 1241 733 1209 691 q 1322 793 1274 775 q 1433 812 1370 812 l 1433 876 l 61 876 l 61 812 q 218 798 152 812 q 326 746 283 785 q 390 639 369 708 q 410 460 410 570 "},"":{"ha":2155,"x_min":68,"x_max":2118,"o":"m 768 1034 q 836 1025 789 1029 q 954 1015 882 1021 q 1122 999 1026 1008 q 1339 973 1219 989 l 1505 973 q 1354 1036 1430 1003 q 1208 1100 1278 1069 q 1076 1161 1138 1132 q 963 1213 1013 1190 q 879 1252 913 1236 q 831 1271 845 1267 q 779 1278 802 1278 q 732 1271 755 1278 q 690 1249 709 1263 q 661 1213 672 1235 q 650 1163 650 1192 q 681 1082 650 1116 q 768 1034 712 1048 m 337 64 l 337 0 l 1858 0 l 1858 64 q 1704 76 1776 64 q 1577 115 1631 88 q 1492 183 1523 141 q 1460 286 1460 226 q 1483 376 1460 323 q 1550 487 1507 429 q 1652 602 1592 545 q 1785 705 1712 659 q 1942 781 1858 751 q 2118 812 2026 810 l 2118 876 l 1413 876 l 1413 812 q 1480 804 1454 812 q 1522 782 1507 795 q 1544 752 1537 769 q 1550 718 1550 735 q 1531 652 1550 693 q 1486 564 1513 611 q 1426 469 1458 517 q 1368 382 1394 421 q 1282 497 1320 445 q 1218 592 1244 550 q 1178 667 1192 635 q 1164 721 1164 699 q 1196 787 1164 763 q 1287 812 1227 812 l 1287 876 l 68 876 l 68 812 q 177 796 120 812 q 291 752 233 781 q 406 683 349 723 q 516 593 463 642 q 617 486 569 543 q 707 368 666 429 l 707 274 q 686 209 707 244 q 621 141 665 173 q 506 88 576 110 q 337 64 435 66 "},"":{"ha":2242,"x_min":68,"x_max":2191,"o":"m 68 64 l 68 0 l 1471 0 l 1471 64 q 1295 90 1364 67 q 1186 163 1225 113 q 1461 167 1331 163 q 1704 181 1592 171 q 1906 211 1815 192 q 2059 262 1996 231 q 2157 338 2123 293 q 2191 446 2191 383 q 2129 579 2191 528 q 1941 661 2066 631 q 1627 702 1815 690 q 1185 713 1438 713 l 1177 713 q 1225 761 1197 742 q 1289 791 1253 780 q 1371 807 1325 802 q 1471 812 1416 812 l 1471 876 l 68 876 l 68 812 q 180 806 130 812 q 269 785 231 800 q 336 744 308 770 q 382 678 364 718 q 409 583 400 638 q 417 453 417 527 l 417 431 q 398 259 416 328 q 340 148 380 190 q 233 86 300 105 q 68 64 167 67 m 1145 243 q 1128 327 1135 281 q 1122 431 1122 374 l 1122 453 q 1127 552 1122 508 q 1141 631 1131 596 q 1263 625 1206 631 q 1361 599 1320 618 q 1426 542 1402 579 q 1449 439 1449 504 q 1425 337 1449 375 q 1360 278 1401 298 q 1264 251 1319 258 q 1145 243 1208 244 "},"":{"ha":2311,"x_min":51,"x_max":2280,"o":"m 51 64 l 51 0 l 962 0 l 962 523 q 959 613 962 574 q 953 684 956 652 q 947 742 950 716 q 945 793 945 768 q 951 859 945 828 q 976 914 958 890 q 1028 951 995 937 q 1116 964 1062 964 q 1173 957 1147 964 q 1218 936 1199 950 q 1248 902 1237 922 q 1259 857 1259 882 q 1244 806 1257 826 q 1213 768 1231 785 q 1174 732 1195 750 q 1136 689 1154 715 q 1107 628 1119 664 q 1096 539 1096 593 q 1123 415 1096 467 q 1193 327 1149 363 q 1293 267 1237 291 q 1408 225 1349 243 q 1522 195 1466 208 q 1622 168 1578 182 q 1692 136 1666 154 q 1719 90 1719 118 q 1682 54 1719 64 q 1575 43 1645 43 q 1442 56 1501 43 q 1337 90 1383 69 q 1260 136 1292 111 q 1209 185 1227 161 l 1133 185 q 1134 156 1133 174 q 1137 117 1135 138 q 1142 73 1139 96 q 1149 29 1145 50 q 1158 -9 1154 8 q 1167 -38 1162 -27 q 1202 -20 1182 -27 q 1244 -8 1221 -13 q 1291 -1 1267 -3 q 1339 1 1316 1 q 1399 0 1374 1 q 1447 -3 1425 -1 q 1490 -8 1469 -5 q 1535 -14 1510 -11 q 1593 -20 1560 -17 q 1670 -26 1625 -23 q 1761 -29 1716 -28 q 1849 -31 1805 -31 q 2016 -15 1938 -31 q 2154 33 2095 1 q 2246 116 2212 66 q 2280 235 2280 165 q 2253 349 2280 302 q 2183 427 2226 395 q 2083 479 2139 459 q 1968 514 2027 500 q 1854 541 1910 529 q 1754 568 1798 553 q 1684 604 1710 583 q 1657 659 1657 625 q 1667 695 1657 680 q 1688 728 1676 711 q 1709 767 1699 745 q 1719 823 1719 789 q 1675 920 1719 880 q 1547 986 1631 960 q 1341 1025 1463 1013 q 1064 1038 1219 1038 q 759 1026 890 1038 q 541 982 628 1015 q 409 889 453 949 q 365 734 365 830 l 365 597 l 132 576 l 132 513 l 365 513 l 365 319 q 350 205 365 252 q 299 129 335 159 q 202 83 262 98 q 51 64 142 67 "},"":{"ha":1935,"x_min":85,"x_max":1908,"o":"m 661 953 q 727 933 681 944 q 842 905 772 922 q 1006 864 912 888 q 1217 805 1100 840 l 1342 805 q 1205 888 1272 846 q 1079 969 1139 930 q 966 1044 1019 1009 q 872 1107 913 1079 q 801 1153 830 1135 q 759 1177 772 1171 q 719 1190 739 1186 q 681 1194 699 1194 q 637 1186 659 1194 q 599 1164 616 1179 q 572 1128 583 1149 q 562 1078 562 1106 q 588 1005 562 1038 q 661 953 614 972 m 85 150 q 115 74 85 107 q 196 17 144 40 q 318 -18 248 -6 q 467 -31 387 -31 q 680 -21 589 -31 q 837 3 771 -12 q 946 37 902 18 q 1018 76 989 56 q 1077 20 1040 41 q 1166 -13 1114 -1 q 1282 -27 1217 -24 q 1423 -31 1347 -31 q 1547 -27 1487 -31 q 1661 -14 1607 -24 q 1761 14 1715 -4 q 1839 62 1806 32 q 1890 137 1872 93 q 1908 241 1908 180 l 1832 241 q 1821 183 1830 208 q 1796 140 1811 157 q 1763 115 1782 123 q 1723 106 1744 106 q 1679 114 1699 106 q 1644 142 1659 121 q 1620 202 1629 163 q 1612 304 1612 241 l 1612 467 q 1578 580 1612 534 q 1487 656 1545 626 q 1350 704 1428 687 q 1181 729 1271 721 q 996 739 1092 737 q 805 741 899 741 q 673 736 741 741 q 539 722 604 732 q 415 697 473 712 q 312 662 356 682 q 241 614 267 641 q 215 553 215 587 q 240 494 215 522 q 307 447 264 467 q 403 415 349 427 q 518 404 458 404 q 641 412 584 404 q 741 438 699 421 q 808 480 783 455 q 832 540 832 506 q 811 594 832 570 q 753 635 791 618 q 662 661 715 652 q 545 670 609 670 q 634 674 586 673 q 731 675 683 675 q 846 665 798 675 q 927 632 895 655 q 974 572 958 610 q 989 481 989 535 l 989 334 q 903 341 954 338 q 790 347 852 345 q 659 351 728 349 q 516 352 589 352 q 356 343 434 352 q 218 311 279 334 q 121 249 158 288 q 85 150 85 210 m 685 183 q 697 227 685 210 q 732 254 709 244 q 791 267 755 264 q 872 271 826 271 q 930 270 900 271 q 989 269 960 270 l 989 196 q 996 130 989 157 q 938 111 966 117 q 885 101 910 104 q 838 97 860 98 q 798 96 816 96 q 744 105 766 96 q 710 126 723 113 q 691 154 696 139 q 685 183 685 170 "},"":{"ha":1935,"x_min":85,"x_max":1908,"o":"m 541 805 l 667 805 q 877 864 783 840 q 1041 905 971 888 q 1157 933 1111 922 q 1223 953 1202 944 q 1296 1005 1270 972 q 1322 1078 1322 1038 q 1311 1128 1322 1106 q 1284 1164 1301 1149 q 1246 1186 1267 1179 q 1202 1194 1225 1194 q 1164 1190 1184 1194 q 1124 1177 1144 1186 q 1082 1153 1111 1171 q 1011 1107 1053 1135 q 917 1044 970 1079 q 805 969 865 1009 q 678 888 745 930 q 541 805 611 846 m 85 150 q 115 74 85 107 q 196 17 144 40 q 318 -18 248 -6 q 467 -31 387 -31 q 680 -21 589 -31 q 837 3 771 -12 q 946 37 902 18 q 1018 76 989 56 q 1077 20 1040 41 q 1166 -13 1114 -1 q 1282 -27 1217 -24 q 1423 -31 1347 -31 q 1547 -27 1487 -31 q 1661 -14 1607 -24 q 1761 14 1715 -4 q 1839 62 1806 32 q 1890 137 1872 93 q 1908 241 1908 180 l 1832 241 q 1821 183 1830 208 q 1796 140 1811 157 q 1763 115 1782 123 q 1723 106 1744 106 q 1679 114 1699 106 q 1644 142 1659 121 q 1620 202 1629 163 q 1612 304 1612 241 l 1612 467 q 1578 580 1612 534 q 1487 656 1545 626 q 1350 704 1428 687 q 1181 729 1271 721 q 996 739 1092 737 q 805 741 899 741 q 673 736 741 741 q 539 722 604 732 q 415 697 473 712 q 312 662 356 682 q 241 614 267 641 q 215 553 215 587 q 240 494 215 522 q 307 447 264 467 q 403 415 349 427 q 518 404 458 404 q 641 412 584 404 q 741 438 699 421 q 808 480 783 455 q 832 540 832 506 q 811 594 832 570 q 753 635 791 618 q 662 661 715 652 q 545 670 609 670 q 634 674 586 673 q 731 675 683 675 q 846 665 798 675 q 927 632 895 655 q 974 572 958 610 q 989 481 989 535 l 989 334 q 903 341 954 338 q 790 347 852 345 q 659 351 728 349 q 516 352 589 352 q 356 343 434 352 q 218 311 279 334 q 121 249 158 288 q 85 150 85 210 m 685 183 q 697 227 685 210 q 732 254 709 244 q 791 267 755 264 q 872 271 826 271 q 930 270 900 271 q 989 269 960 270 l 989 196 q 996 130 989 157 q 938 111 966 117 q 885 101 910 104 q 838 97 860 98 q 798 96 816 96 q 744 105 766 96 q 710 126 723 113 q 691 154 696 139 q 685 183 685 170 "},"":{"ha":1935,"x_min":85,"x_max":1908,"o":"m 416 805 l 527 805 l 955 977 l 1383 805 l 1494 805 q 1381 893 1431 852 q 1291 968 1331 934 q 1219 1031 1251 1002 q 1160 1083 1187 1059 q 1107 1127 1132 1107 q 1056 1164 1082 1147 q 1014 1187 1036 1177 q 955 1198 991 1198 q 896 1187 919 1198 q 854 1164 873 1177 q 803 1127 828 1147 q 750 1083 778 1107 q 690 1031 722 1059 q 618 968 659 1002 q 529 893 578 934 q 416 805 479 852 m 85 150 q 115 74 85 107 q 196 17 144 40 q 318 -18 248 -6 q 467 -31 387 -31 q 680 -21 589 -31 q 837 3 771 -12 q 946 37 902 18 q 1018 76 989 56 q 1077 20 1040 41 q 1166 -13 1114 -1 q 1282 -27 1217 -24 q 1423 -31 1347 -31 q 1547 -27 1487 -31 q 1661 -14 1607 -24 q 1761 14 1715 -4 q 1839 62 1806 32 q 1890 137 1872 93 q 1908 241 1908 180 l 1832 241 q 1821 183 1830 208 q 1796 140 1811 157 q 1763 115 1782 123 q 1723 106 1744 106 q 1679 114 1699 106 q 1644 142 1659 121 q 1620 202 1629 163 q 1612 304 1612 241 l 1612 467 q 1578 580 1612 534 q 1487 656 1545 626 q 1350 704 1428 687 q 1181 729 1271 721 q 996 739 1092 737 q 805 741 899 741 q 673 736 741 741 q 539 722 604 732 q 415 697 473 712 q 312 662 356 682 q 241 614 267 641 q 215 553 215 587 q 240 494 215 522 q 307 447 264 467 q 403 415 349 427 q 518 404 458 404 q 641 412 584 404 q 741 438 699 421 q 808 480 783 455 q 832 540 832 506 q 811 594 832 570 q 753 635 791 618 q 662 661 715 652 q 545 670 609 670 q 634 674 586 673 q 731 675 683 675 q 846 665 798 675 q 927 632 895 655 q 974 572 958 610 q 989 481 989 535 l 989 334 q 903 341 954 338 q 790 347 852 345 q 659 351 728 349 q 516 352 589 352 q 356 343 434 352 q 218 311 279 334 q 121 249 158 288 q 85 150 85 210 m 685 183 q 697 227 685 210 q 732 254 709 244 q 791 267 755 264 q 872 271 826 271 q 930 270 900 271 q 989 269 960 270 l 989 196 q 996 130 989 157 q 938 111 966 117 q 885 101 910 104 q 838 97 860 98 q 798 96 816 96 q 744 105 766 96 q 710 126 723 113 q 691 154 696 139 q 685 183 685 170 "},"":{"ha":1935,"x_min":85,"x_max":1908,"o":"m 492 910 l 515 880 q 602 906 559 899 q 688 913 645 913 q 802 901 745 913 q 915 872 859 888 q 1025 844 970 857 q 1133 831 1080 831 q 1207 839 1171 831 q 1279 869 1244 846 q 1350 931 1315 891 q 1418 1038 1384 972 l 1394 1068 q 1308 1042 1351 1050 q 1221 1035 1265 1035 q 1108 1047 1164 1035 q 995 1075 1051 1060 q 884 1103 939 1090 q 776 1116 829 1116 q 702 1109 739 1116 q 630 1079 665 1101 q 559 1017 594 1057 q 492 910 525 976 m 85 150 q 115 74 85 107 q 196 17 144 40 q 318 -18 248 -6 q 467 -31 387 -31 q 680 -21 589 -31 q 837 3 771 -12 q 946 37 902 18 q 1018 76 989 56 q 1077 20 1040 41 q 1166 -13 1114 -1 q 1282 -27 1217 -24 q 1423 -31 1347 -31 q 1547 -27 1487 -31 q 1661 -14 1607 -24 q 1761 14 1715 -4 q 1839 62 1806 32 q 1890 137 1872 93 q 1908 241 1908 180 l 1832 241 q 1821 183 1830 208 q 1796 140 1811 157 q 1763 115 1782 123 q 1723 106 1744 106 q 1679 114 1699 106 q 1644 142 1659 121 q 1620 202 1629 163 q 1612 304 1612 241 l 1612 467 q 1578 580 1612 534 q 1487 656 1545 626 q 1350 704 1428 687 q 1181 729 1271 721 q 996 739 1092 737 q 805 741 899 741 q 673 736 741 741 q 539 722 604 732 q 415 697 473 712 q 312 662 356 682 q 241 614 267 641 q 215 553 215 587 q 240 494 215 522 q 307 447 264 467 q 403 415 349 427 q 518 404 458 404 q 641 412 584 404 q 741 438 699 421 q 808 480 783 455 q 832 540 832 506 q 811 594 832 570 q 753 635 791 618 q 662 661 715 652 q 545 670 609 670 q 634 674 586 673 q 731 675 683 675 q 846 665 798 675 q 927 632 895 655 q 974 572 958 610 q 989 481 989 535 l 989 334 q 903 341 954 338 q 790 347 852 345 q 659 351 728 349 q 516 352 589 352 q 356 343 434 352 q 218 311 279 334 q 121 249 158 288 q 85 150 85 210 m 685 183 q 697 227 685 210 q 732 254 709 244 q 791 267 755 264 q 872 271 826 271 q 930 270 900 271 q 989 269 960 270 l 989 196 q 996 130 989 157 q 938 111 966 117 q 885 101 910 104 q 838 97 860 98 q 798 96 816 96 q 744 105 766 96 q 710 126 723 113 q 691 154 696 139 q 685 183 685 170 "},"":{"ha":1935,"x_min":85,"x_max":1908,"o":"m 1010 1014 q 1021 971 1010 992 q 1054 934 1032 951 q 1107 907 1076 918 q 1182 897 1139 897 q 1257 907 1225 897 q 1310 934 1289 918 q 1343 971 1332 951 q 1354 1014 1354 992 q 1343 1057 1354 1036 q 1310 1095 1332 1078 q 1257 1122 1289 1112 q 1182 1132 1225 1132 q 1107 1122 1139 1132 q 1054 1095 1076 1112 q 1021 1057 1032 1078 q 1010 1014 1010 1036 m 728 897 q 802 907 770 897 q 856 934 834 918 q 888 971 878 951 q 899 1014 899 992 q 888 1057 899 1036 q 856 1095 878 1078 q 802 1122 834 1112 q 728 1132 770 1132 q 653 1122 685 1132 q 600 1095 621 1112 q 567 1057 578 1078 q 556 1014 556 1036 q 567 971 556 992 q 600 934 578 951 q 653 907 621 918 q 728 897 685 897 m 85 150 q 115 74 85 107 q 196 17 144 40 q 318 -18 248 -6 q 467 -31 387 -31 q 680 -21 589 -31 q 837 3 771 -12 q 946 37 902 18 q 1018 76 989 56 q 1077 20 1040 41 q 1166 -13 1114 -1 q 1282 -27 1217 -24 q 1423 -31 1347 -31 q 1547 -27 1487 -31 q 1661 -14 1607 -24 q 1761 14 1715 -4 q 1839 62 1806 32 q 1890 137 1872 93 q 1908 241 1908 180 l 1832 241 q 1821 183 1830 208 q 1796 140 1811 157 q 1763 115 1782 123 q 1723 106 1744 106 q 1679 114 1699 106 q 1644 142 1659 121 q 1620 202 1629 163 q 1612 304 1612 241 l 1612 467 q 1578 580 1612 534 q 1487 656 1545 626 q 1350 704 1428 687 q 1181 729 1271 721 q 996 739 1092 737 q 805 741 899 741 q 673 736 741 741 q 539 722 604 732 q 415 697 473 712 q 312 662 356 682 q 241 614 267 641 q 215 553 215 587 q 240 494 215 522 q 307 447 264 467 q 403 415 349 427 q 518 404 458 404 q 641 412 584 404 q 741 438 699 421 q 808 480 783 455 q 832 540 832 506 q 811 594 832 570 q 753 635 791 618 q 662 661 715 652 q 545 670 609 670 q 634 674 586 673 q 731 675 683 675 q 846 665 798 675 q 927 632 895 655 q 974 572 958 610 q 989 481 989 535 l 989 334 q 903 341 954 338 q 790 347 852 345 q 659 351 728 349 q 516 352 589 352 q 356 343 434 352 q 218 311 279 334 q 121 249 158 288 q 85 150 85 210 m 685 183 q 697 227 685 210 q 732 254 709 244 q 791 267 755 264 q 872 271 826 271 q 930 270 900 271 q 989 269 960 270 l 989 196 q 996 130 989 157 q 938 111 966 117 q 885 101 910 104 q 838 97 860 98 q 798 96 816 96 q 744 105 766 96 q 710 126 723 113 q 691 154 696 139 q 685 183 685 170 "},"":{"ha":1935,"x_min":85,"x_max":1908,"o":"m 955 852 q 1036 868 998 852 q 1102 912 1074 884 q 1146 978 1130 940 q 1162 1059 1162 1016 q 1146 1139 1162 1101 q 1102 1205 1130 1177 q 1036 1250 1074 1234 q 955 1266 998 1266 q 874 1250 912 1266 q 808 1205 836 1234 q 764 1139 781 1177 q 748 1059 748 1101 q 764 978 748 1016 q 808 912 781 940 q 874 868 836 884 q 955 852 912 852 m 955 944 q 910 953 931 944 q 873 977 889 962 q 849 1014 858 993 q 840 1059 840 1035 q 849 1103 840 1082 q 873 1140 858 1124 q 910 1165 889 1156 q 955 1174 931 1174 q 1000 1165 979 1174 q 1036 1140 1021 1156 q 1061 1103 1052 1124 q 1070 1059 1070 1082 q 1061 1014 1070 1035 q 1036 977 1052 993 q 1000 953 1021 962 q 955 944 979 944 m 85 150 q 115 74 85 107 q 196 17 144 40 q 318 -18 248 -6 q 467 -31 387 -31 q 680 -21 589 -31 q 837 3 771 -12 q 946 37 902 18 q 1018 76 989 56 q 1077 20 1040 41 q 1166 -13 1114 -1 q 1282 -27 1217 -24 q 1423 -31 1347 -31 q 1547 -27 1487 -31 q 1661 -14 1607 -24 q 1761 14 1715 -4 q 1839 62 1806 32 q 1890 137 1872 93 q 1908 241 1908 180 l 1832 241 q 1821 183 1830 208 q 1796 140 1811 157 q 1763 115 1782 123 q 1723 106 1744 106 q 1679 114 1699 106 q 1644 142 1659 121 q 1620 202 1629 163 q 1612 304 1612 241 l 1612 467 q 1578 580 1612 534 q 1487 656 1545 626 q 1350 704 1428 687 q 1181 729 1271 721 q 996 739 1092 737 q 805 741 899 741 q 673 736 741 741 q 539 722 604 732 q 415 697 473 712 q 312 662 356 682 q 241 614 267 641 q 215 553 215 587 q 240 494 215 522 q 307 447 264 467 q 403 415 349 427 q 518 404 458 404 q 641 412 584 404 q 741 438 699 421 q 808 480 783 455 q 832 540 832 506 q 811 594 832 570 q 753 635 791 618 q 662 661 715 652 q 545 670 609 670 q 634 674 586 673 q 731 675 683 675 q 846 665 798 675 q 927 632 895 655 q 974 572 958 610 q 989 481 989 535 l 989 334 q 903 341 954 338 q 790 347 852 345 q 659 351 728 349 q 516 352 589 352 q 356 343 434 352 q 218 311 279 334 q 121 249 158 288 q 85 150 85 210 m 685 183 q 697 227 685 210 q 732 254 709 244 q 791 267 755 264 q 872 271 826 271 q 930 270 900 271 q 989 269 960 270 l 989 196 q 996 130 989 157 q 938 111 966 117 q 885 101 910 104 q 838 97 860 98 q 798 96 816 96 q 744 105 766 96 q 710 126 723 113 q 691 154 696 139 q 685 183 685 170 "},"":{"ha":2538,"x_min":85,"x_max":2451,"o":"m 85 155 q 101 88 85 117 q 145 38 117 59 q 210 4 173 18 q 288 -17 247 -9 q 371 -27 328 -24 q 452 -31 413 -31 q 631 -23 541 -31 q 800 2 720 -15 q 944 47 880 20 q 1048 115 1008 75 q 1167 48 1097 75 q 1328 3 1238 20 q 1529 -22 1419 -14 q 1766 -31 1638 -31 q 1936 -23 1852 -31 q 2097 -2 2020 -16 q 2238 36 2173 13 q 2350 90 2302 58 q 2424 161 2397 121 q 2451 252 2451 201 l 2362 252 q 2343 196 2362 221 q 2290 150 2323 170 q 2212 114 2257 129 q 2117 88 2167 98 q 2012 72 2066 77 q 1906 67 1958 67 q 1761 82 1822 67 q 1657 130 1699 96 q 1593 218 1615 163 q 1567 351 1571 272 l 2451 351 q 2397 528 2451 454 q 2249 649 2344 602 q 2027 718 2155 696 q 1750 741 1900 741 q 1498 725 1619 741 q 1275 676 1377 709 q 1064 723 1184 705 q 791 741 943 741 q 569 730 673 741 q 385 697 464 719 q 261 644 307 675 q 215 569 215 612 q 235 507 215 537 q 294 454 256 477 q 389 417 333 431 q 518 404 446 404 q 641 414 584 404 q 741 442 699 424 q 808 485 783 460 q 832 540 832 510 q 816 587 832 564 q 768 628 800 610 q 688 657 736 646 q 576 670 640 669 q 740 667 671 670 q 854 645 809 663 q 920 589 899 627 q 941 481 941 551 l 941 334 q 860 342 907 339 q 759 348 814 346 q 643 351 705 350 q 516 352 582 352 q 414 349 465 352 q 314 336 362 345 q 224 313 267 328 q 152 277 182 299 q 103 225 121 255 q 85 155 85 195 m 1841 440 l 1567 440 q 1583 530 1571 490 q 1614 599 1595 570 q 1656 643 1632 627 q 1708 658 1681 658 q 1759 641 1735 658 q 1801 595 1783 625 q 1830 526 1819 566 q 1841 440 1841 486 m 651 190 q 668 231 651 214 q 715 256 686 247 q 786 270 745 266 q 872 273 826 273 q 949 271 909 273 q 992 172 961 216 q 951 151 976 161 q 897 133 926 141 q 836 121 867 125 q 774 116 804 116 q 726 120 749 116 q 687 133 704 124 q 661 155 671 141 q 651 190 651 170 "},"":{"ha":1686,"x_min":83,"x_max":1626,"o":"m 83 349 q 110 229 83 282 q 184 136 136 176 q 300 66 232 96 q 451 18 368 37 q 630 -13 534 -2 q 832 -28 727 -24 l 832 -186 q 854 -182 841 -184 q 881 -180 867 -181 q 908 -178 895 -178 q 931 -177 921 -177 q 994 -179 960 -177 q 1056 -189 1027 -182 q 1102 -208 1084 -195 q 1121 -242 1121 -221 q 1072 -302 1121 -283 q 926 -321 1023 -321 q 822 -314 872 -321 q 730 -294 771 -307 q 662 -263 690 -281 q 627 -222 635 -244 l 524 -222 q 551 -276 530 -251 q 603 -320 572 -300 q 674 -355 634 -340 q 759 -379 714 -370 q 850 -394 803 -389 q 944 -399 897 -399 q 1149 -389 1060 -399 q 1299 -357 1238 -378 q 1391 -307 1360 -337 q 1423 -238 1423 -277 q 1409 -184 1423 -207 q 1372 -146 1395 -162 q 1317 -121 1348 -131 q 1253 -106 1286 -111 q 1184 -99 1219 -101 q 1119 -98 1149 -98 q 1075 -98 1100 -98 q 1023 -99 1049 -98 q 974 -101 998 -100 q 935 -104 950 -102 l 935 -31 l 980 -31 q 1146 -23 1065 -31 q 1299 1 1227 -15 q 1431 40 1371 16 q 1534 94 1491 63 q 1601 165 1577 125 q 1626 252 1626 204 l 1542 252 q 1509 185 1542 216 q 1420 131 1476 155 q 1292 94 1364 108 q 1141 81 1219 81 q 1045 89 1093 81 q 955 113 998 97 q 874 155 911 130 q 810 214 838 180 q 768 291 783 248 q 753 387 753 334 q 780 523 753 468 q 852 610 807 577 q 955 657 897 643 q 1075 671 1013 671 q 1159 666 1118 671 q 1240 650 1201 661 q 1121 638 1172 650 q 1036 606 1070 626 q 984 561 1002 586 q 967 509 967 535 q 992 451 967 477 q 1062 406 1018 425 q 1166 376 1106 387 q 1295 366 1226 366 q 1424 380 1367 366 q 1519 419 1480 395 q 1578 474 1558 443 q 1598 538 1598 505 q 1574 597 1598 570 q 1508 647 1550 625 q 1406 687 1465 669 q 1278 716 1348 705 q 1132 734 1209 728 q 974 741 1054 741 q 746 731 857 741 q 535 702 634 722 q 353 651 436 682 q 211 577 271 621 q 117 476 151 533 q 83 349 83 420 "},"":{"ha":1706,"x_min":77,"x_max":1619,"o":"m 608 953 q 674 933 629 944 q 790 905 720 922 q 954 864 860 888 q 1164 805 1048 840 l 1290 805 q 1153 888 1220 846 q 1026 969 1086 930 q 914 1044 966 1009 q 820 1107 861 1079 q 749 1153 778 1135 q 707 1177 720 1171 q 667 1190 687 1186 q 629 1194 647 1194 q 585 1186 606 1194 q 547 1164 564 1179 q 520 1128 530 1149 q 509 1078 509 1106 q 535 1005 509 1038 q 608 953 562 972 m 77 338 q 138 164 77 235 q 311 51 199 94 q 581 -12 422 7 q 934 -31 739 -31 q 1104 -23 1020 -31 q 1264 -2 1188 -16 q 1406 36 1341 13 q 1518 90 1470 58 q 1592 161 1565 121 q 1619 252 1619 201 l 1530 252 q 1511 196 1530 221 q 1458 150 1491 170 q 1380 114 1425 129 q 1284 88 1335 98 q 1180 72 1234 77 q 1074 67 1126 67 q 928 82 990 67 q 825 130 867 96 q 761 218 783 163 q 734 351 739 272 l 1619 351 q 1569 528 1619 454 q 1427 649 1518 602 q 1205 718 1335 696 q 916 741 1076 741 q 688 730 797 741 q 487 697 580 719 q 317 642 393 675 q 188 564 241 609 q 106 463 135 519 q 77 338 77 406 m 1008 427 l 734 427 q 749 531 736 488 q 782 603 762 575 q 828 645 802 631 q 883 658 854 658 q 932 645 909 658 q 972 604 956 631 q 999 532 989 576 q 1008 427 1008 488 "},"":{"ha":1706,"x_min":77,"x_max":1619,"o":"m 489 805 l 614 805 q 825 864 731 840 q 989 905 919 888 q 1104 933 1059 922 q 1171 953 1150 944 q 1243 1005 1217 972 q 1270 1078 1270 1038 q 1259 1128 1270 1106 q 1232 1164 1249 1149 q 1194 1186 1215 1179 q 1150 1194 1173 1194 q 1112 1190 1132 1194 q 1072 1177 1092 1186 q 1030 1153 1059 1171 q 959 1107 1001 1135 q 865 1044 918 1079 q 752 969 812 1009 q 626 888 692 930 q 489 805 559 846 m 77 338 q 138 164 77 235 q 311 51 199 94 q 581 -12 422 7 q 934 -31 739 -31 q 1104 -23 1020 -31 q 1264 -2 1188 -16 q 1406 36 1341 13 q 1518 90 1470 58 q 1592 161 1565 121 q 1619 252 1619 201 l 1530 252 q 1511 196 1530 221 q 1458 150 1491 170 q 1380 114 1425 129 q 1284 88 1335 98 q 1180 72 1234 77 q 1074 67 1126 67 q 928 82 990 67 q 825 130 867 96 q 761 218 783 163 q 734 351 739 272 l 1619 351 q 1569 528 1619 454 q 1427 649 1518 602 q 1205 718 1335 696 q 916 741 1076 741 q 688 730 797 741 q 487 697 580 719 q 317 642 393 675 q 188 564 241 609 q 106 463 135 519 q 77 338 77 406 m 1008 427 l 734 427 q 749 531 736 488 q 782 603 762 575 q 828 645 802 631 q 883 658 854 658 q 932 645 909 658 q 972 604 956 631 q 999 532 989 576 q 1008 427 1008 488 "},"":{"ha":1706,"x_min":77,"x_max":1619,"o":"m 363 805 l 475 805 l 903 977 l 1331 805 l 1442 805 q 1329 893 1379 852 q 1239 968 1279 934 q 1167 1031 1199 1002 q 1107 1083 1135 1059 q 1055 1127 1080 1107 q 1004 1164 1029 1147 q 961 1187 984 1177 q 903 1198 939 1198 q 844 1187 867 1198 q 802 1164 821 1177 q 751 1127 776 1147 q 698 1083 726 1107 q 638 1031 670 1059 q 566 968 606 1002 q 476 893 526 934 q 363 805 427 852 m 77 338 q 138 164 77 235 q 311 51 199 94 q 581 -12 422 7 q 934 -31 739 -31 q 1104 -23 1020 -31 q 1264 -2 1188 -16 q 1406 36 1341 13 q 1518 90 1470 58 q 1592 161 1565 121 q 1619 252 1619 201 l 1530 252 q 1511 196 1530 221 q 1458 150 1491 170 q 1380 114 1425 129 q 1284 88 1335 98 q 1180 72 1234 77 q 1074 67 1126 67 q 928 82 990 67 q 825 130 867 96 q 761 218 783 163 q 734 351 739 272 l 1619 351 q 1569 528 1619 454 q 1427 649 1518 602 q 1205 718 1335 696 q 916 741 1076 741 q 688 730 797 741 q 487 697 580 719 q 317 642 393 675 q 188 564 241 609 q 106 463 135 519 q 77 338 77 406 m 1008 427 l 734 427 q 749 531 736 488 q 782 603 762 575 q 828 645 802 631 q 883 658 854 658 q 932 645 909 658 q 972 604 956 631 q 999 532 989 576 q 1008 427 1008 488 "},"":{"ha":1706,"x_min":77,"x_max":1619,"o":"m 958 1014 q 969 971 958 992 q 1002 934 980 951 q 1055 907 1023 918 q 1130 897 1087 897 q 1204 907 1173 897 q 1258 934 1236 918 q 1291 971 1280 951 q 1301 1014 1301 992 q 1291 1057 1301 1036 q 1258 1095 1280 1078 q 1204 1122 1236 1112 q 1130 1132 1173 1132 q 1055 1122 1087 1132 q 1002 1095 1023 1112 q 969 1057 980 1078 q 958 1014 958 1036 m 675 897 q 750 907 718 897 q 804 934 782 918 q 836 971 825 951 q 847 1014 847 992 q 836 1057 847 1036 q 804 1095 825 1078 q 750 1122 782 1112 q 675 1132 718 1132 q 601 1122 633 1132 q 547 1095 569 1112 q 515 1057 526 1078 q 504 1014 504 1036 q 515 971 504 992 q 547 934 526 951 q 601 907 569 918 q 675 897 633 897 m 77 338 q 138 164 77 235 q 311 51 199 94 q 581 -12 422 7 q 934 -31 739 -31 q 1104 -23 1020 -31 q 1264 -2 1188 -16 q 1406 36 1341 13 q 1518 90 1470 58 q 1592 161 1565 121 q 1619 252 1619 201 l 1530 252 q 1511 196 1530 221 q 1458 150 1491 170 q 1380 114 1425 129 q 1284 88 1335 98 q 1180 72 1234 77 q 1074 67 1126 67 q 928 82 990 67 q 825 130 867 96 q 761 218 783 163 q 734 351 739 272 l 1619 351 q 1569 528 1619 454 q 1427 649 1518 602 q 1205 718 1335 696 q 916 741 1076 741 q 688 730 797 741 q 487 697 580 719 q 317 642 393 675 q 188 564 241 609 q 106 463 135 519 q 77 338 77 406 m 1008 427 l 734 427 q 749 531 736 488 q 782 603 762 575 q 828 645 802 631 q 883 658 854 658 q 932 645 909 658 q 972 604 956 631 q 999 532 989 576 q 1008 427 1008 488 "},"":{"ha":1284,"x_min":51,"x_max":1274,"o":"m 333 953 q 399 933 353 944 q 515 905 445 922 q 679 864 585 888 q 889 805 772 840 l 1015 805 q 878 888 945 846 q 751 969 811 930 q 638 1044 691 1009 q 544 1107 586 1079 q 474 1153 503 1135 q 431 1177 445 1171 q 392 1190 412 1186 q 353 1194 372 1194 q 310 1186 331 1194 q 272 1164 288 1179 q 244 1128 255 1149 q 234 1078 234 1106 q 260 1005 234 1038 q 333 953 286 972 m 51 64 l 51 0 l 1274 0 l 1274 64 q 1122 87 1183 67 q 1026 144 1062 108 q 976 231 990 180 q 961 349 961 283 l 961 729 l 51 668 l 51 604 q 194 590 135 604 q 292 545 254 576 q 347 466 330 514 q 365 349 365 417 q 350 231 365 283 q 299 144 335 180 q 202 87 262 108 q 51 64 142 67 "},"":{"ha":1284,"x_min":51,"x_max":1274,"o":"m 214 805 l 339 805 q 550 864 456 840 q 713 905 644 888 q 829 933 783 922 q 895 953 875 944 q 968 1005 942 972 q 994 1078 994 1038 q 984 1128 994 1106 q 957 1164 973 1149 q 919 1186 940 1179 q 875 1194 897 1194 q 837 1190 857 1194 q 797 1177 817 1186 q 754 1153 783 1171 q 684 1107 726 1135 q 590 1044 642 1079 q 477 969 537 1009 q 350 888 417 930 q 214 805 283 846 m 51 64 l 51 0 l 1274 0 l 1274 64 q 1122 87 1183 67 q 1026 144 1062 108 q 976 231 990 180 q 961 349 961 283 l 961 729 l 51 668 l 51 604 q 194 590 135 604 q 292 545 254 576 q 347 466 330 514 q 365 349 365 417 q 350 231 365 283 q 299 144 335 180 q 202 87 262 108 q 51 64 142 67 "},"":{"ha":1284,"x_min":51,"x_max":1274,"o":"m 88 805 l 199 805 l 627 977 l 1055 805 l 1166 805 q 1054 893 1103 852 q 964 968 1004 934 q 892 1031 924 1002 q 832 1083 860 1059 q 779 1127 804 1107 q 728 1164 754 1147 q 686 1187 709 1177 q 627 1198 663 1198 q 569 1187 591 1198 q 526 1164 546 1177 q 475 1127 500 1147 q 422 1083 450 1107 q 363 1031 395 1059 q 291 968 331 1002 q 201 893 251 934 q 88 805 151 852 m 51 64 l 51 0 l 1274 0 l 1274 64 q 1122 87 1183 67 q 1026 144 1062 108 q 976 231 990 180 q 961 349 961 283 l 961 729 l 51 668 l 51 604 q 194 590 135 604 q 292 545 254 576 q 347 466 330 514 q 365 349 365 417 q 350 231 365 283 q 299 144 335 180 q 202 87 262 108 q 51 64 142 67 "},"":{"ha":1284,"x_min":51,"x_max":1274,"o":"m 683 1014 q 694 971 683 992 q 726 934 705 951 q 780 907 748 918 q 854 897 812 897 q 929 907 897 897 q 983 934 961 918 q 1015 971 1004 951 q 1026 1014 1026 992 q 1015 1057 1026 1036 q 983 1095 1004 1078 q 929 1122 961 1112 q 854 1132 897 1132 q 780 1122 812 1132 q 726 1095 748 1112 q 694 1057 705 1078 q 683 1014 683 1036 m 400 897 q 475 907 443 897 q 528 934 507 918 q 561 971 550 951 q 572 1014 572 992 q 561 1057 572 1036 q 528 1095 550 1078 q 475 1122 507 1112 q 400 1132 443 1132 q 326 1122 357 1132 q 272 1095 294 1112 q 239 1057 250 1078 q 229 1014 229 1036 q 239 971 229 992 q 272 934 250 951 q 326 907 294 918 q 400 897 357 897 m 51 64 l 51 0 l 1274 0 l 1274 64 q 1122 87 1183 67 q 1026 144 1062 108 q 976 231 990 180 q 961 349 961 283 l 961 729 l 51 668 l 51 604 q 194 590 135 604 q 292 545 254 576 q 347 466 330 514 q 365 349 365 417 q 350 231 365 283 q 299 144 335 180 q 202 87 262 108 q 51 64 142 67 "},"":{"ha":1830,"x_min":77,"x_max":1754,"o":"m 77 294 q 92 208 77 250 q 144 129 108 166 q 241 61 181 92 q 391 8 301 31 q 603 -26 481 -14 q 884 -39 724 -39 q 1105 -30 996 -39 q 1310 -1 1213 -22 q 1488 53 1407 20 q 1628 137 1569 87 q 1721 255 1687 186 q 1754 412 1754 323 q 1721 567 1754 494 q 1628 700 1687 639 q 1486 812 1569 762 q 1306 901 1404 862 q 1099 966 1208 939 q 875 1008 989 993 q 935 1062 905 1036 q 1004 1120 966 1088 q 963 1170 985 1148 q 916 1208 941 1191 q 872 1157 891 1179 q 833 1113 852 1134 q 793 1069 814 1091 q 746 1020 772 1047 q 677 1023 711 1022 q 608 1025 643 1025 q 390 1013 496 1025 l 357 941 q 475 947 418 947 q 655 929 574 947 q 614 890 633 908 q 574 854 594 872 q 531 816 553 836 q 479 772 508 796 q 521 721 497 745 q 568 684 545 696 q 604 725 588 707 q 632 758 619 743 q 657 787 645 773 q 685 817 670 802 q 718 852 699 833 q 761 896 736 871 q 926 773 863 852 q 1019 586 990 695 q 897 592 962 590 q 752 594 832 594 q 442 569 570 594 q 233 502 314 544 q 114 406 151 460 q 77 294 77 352 m 738 271 q 751 384 738 338 q 792 459 764 430 q 864 500 820 488 q 971 513 908 513 q 1035 511 1002 513 q 1042 449 1040 481 q 1044 382 1044 416 q 1038 235 1044 298 q 1015 129 1032 172 q 968 64 998 86 q 888 43 937 43 q 831 55 859 43 q 784 94 804 66 q 750 164 763 121 q 738 271 738 208 "},"":{"ha":2085,"x_min":51,"x_max":2075,"o":"m 663 910 l 686 880 q 773 906 730 899 q 859 913 816 913 q 973 901 916 913 q 1085 872 1029 888 q 1196 844 1141 857 q 1304 831 1251 831 q 1378 839 1341 831 q 1450 869 1415 846 q 1520 931 1486 891 q 1589 1038 1555 972 l 1565 1068 q 1479 1042 1522 1050 q 1392 1035 1436 1035 q 1279 1047 1335 1035 q 1166 1075 1222 1060 q 1055 1103 1110 1090 q 947 1116 1000 1116 q 873 1109 909 1116 q 801 1079 836 1101 q 730 1017 765 1057 q 663 910 696 976 m 51 64 l 51 0 l 1039 0 l 1039 52 q 1002 87 1017 66 q 978 140 987 109 q 965 216 969 172 q 961 319 961 260 l 961 537 q 1014 551 987 546 q 1063 556 1040 556 q 1117 549 1092 556 q 1160 519 1141 543 q 1188 451 1178 496 q 1199 331 1199 406 q 1195 226 1199 272 q 1182 146 1191 180 q 1158 89 1173 113 q 1121 52 1143 66 l 1121 0 l 2075 0 l 2075 64 q 1934 79 1985 64 q 1859 124 1883 94 q 1828 199 1834 154 q 1822 304 1822 244 q 1823 362 1822 336 q 1825 415 1825 389 q 1811 546 1825 492 q 1772 636 1796 600 q 1716 693 1748 673 q 1646 725 1683 714 q 1571 738 1609 735 q 1495 741 1532 741 q 1353 730 1422 741 q 1217 703 1284 720 q 1086 661 1150 685 q 961 610 1022 637 l 961 722 l 51 661 l 51 597 q 194 588 135 597 q 292 551 254 578 q 347 472 330 523 q 365 337 365 420 q 348 221 365 271 q 293 138 330 172 q 195 85 255 104 q 51 64 136 67 "},"":{"ha":1782,"x_min":77,"x_max":1705,"o":"m 596 953 q 662 933 616 944 q 778 905 708 922 q 942 864 848 888 q 1152 805 1036 840 l 1278 805 q 1141 888 1208 846 q 1014 969 1074 930 q 902 1044 954 1009 q 807 1107 849 1079 q 737 1153 766 1135 q 694 1177 708 1171 q 655 1190 675 1186 q 616 1194 635 1194 q 573 1186 594 1194 q 535 1164 551 1179 q 508 1128 518 1149 q 497 1078 497 1106 q 523 1005 497 1038 q 596 953 549 972 m 77 355 q 135 184 77 257 q 301 64 194 112 q 558 -7 408 16 q 891 -31 708 -31 q 1224 -7 1074 -31 q 1481 64 1374 16 q 1646 184 1588 112 q 1705 355 1705 257 q 1646 526 1705 453 q 1481 647 1588 599 q 1224 718 1374 694 q 891 741 1074 741 q 558 718 708 741 q 301 647 408 694 q 135 526 194 599 q 77 355 77 453 m 753 355 q 762 476 753 418 q 790 576 772 533 q 833 646 808 620 q 891 671 859 671 q 948 646 923 671 q 992 576 974 620 q 1019 476 1010 533 q 1029 355 1029 418 q 1019 235 1029 292 q 992 135 1010 178 q 948 66 974 92 q 891 41 923 41 q 833 66 859 41 q 790 135 808 92 q 762 235 772 178 q 753 355 753 292 "},"":{"ha":1782,"x_min":77,"x_max":1705,"o":"m 477 805 l 602 805 q 813 864 719 840 q 977 905 907 888 q 1092 933 1046 922 q 1158 953 1138 944 q 1231 1005 1205 972 q 1257 1078 1257 1038 q 1247 1128 1257 1106 q 1220 1164 1236 1149 q 1182 1186 1203 1179 q 1138 1194 1160 1194 q 1100 1190 1120 1194 q 1060 1177 1080 1186 q 1018 1153 1046 1171 q 947 1107 989 1135 q 853 1044 905 1079 q 740 969 800 1009 q 613 888 680 930 q 477 805 547 846 m 77 355 q 135 184 77 257 q 301 64 194 112 q 558 -7 408 16 q 891 -31 708 -31 q 1224 -7 1074 -31 q 1481 64 1374 16 q 1646 184 1588 112 q 1705 355 1705 257 q 1646 526 1705 453 q 1481 647 1588 599 q 1224 718 1374 694 q 891 741 1074 741 q 558 718 708 741 q 301 647 408 694 q 135 526 194 599 q 77 355 77 453 m 753 355 q 762 476 753 418 q 790 576 772 533 q 833 646 808 620 q 891 671 859 671 q 948 646 923 671 q 992 576 974 620 q 1019 476 1010 533 q 1029 355 1029 418 q 1019 235 1029 292 q 992 135 1010 178 q 948 66 974 92 q 891 41 923 41 q 833 66 859 41 q 790 135 808 92 q 762 235 772 178 q 753 355 753 292 "},"":{"ha":1782,"x_min":77,"x_max":1705,"o":"m 351 805 l 463 805 l 890 977 l 1318 805 l 1430 805 q 1317 893 1367 852 q 1227 968 1267 934 q 1155 1031 1187 1002 q 1095 1083 1123 1059 q 1042 1127 1067 1107 q 991 1164 1017 1147 q 949 1187 972 1177 q 890 1198 926 1198 q 832 1187 854 1198 q 789 1164 809 1177 q 739 1127 764 1147 q 686 1083 713 1107 q 626 1031 658 1059 q 554 968 594 1002 q 464 893 514 934 q 351 805 414 852 m 77 355 q 135 184 77 257 q 301 64 194 112 q 558 -7 408 16 q 891 -31 708 -31 q 1224 -7 1074 -31 q 1481 64 1374 16 q 1646 184 1588 112 q 1705 355 1705 257 q 1646 526 1705 453 q 1481 647 1588 599 q 1224 718 1374 694 q 891 741 1074 741 q 558 718 708 741 q 301 647 408 694 q 135 526 194 599 q 77 355 77 453 m 753 355 q 762 476 753 418 q 790 576 772 533 q 833 646 808 620 q 891 671 859 671 q 948 646 923 671 q 992 576 974 620 q 1019 476 1010 533 q 1029 355 1029 418 q 1019 235 1029 292 q 992 135 1010 178 q 948 66 974 92 q 891 41 923 41 q 833 66 859 41 q 790 135 808 92 q 762 235 772 178 q 753 355 753 292 "},"":{"ha":1782,"x_min":77,"x_max":1705,"o":"m 427 910 l 451 880 q 537 906 494 899 q 624 913 581 913 q 738 901 681 913 q 850 872 794 888 q 961 844 906 857 q 1069 831 1015 831 q 1143 839 1106 831 q 1215 869 1179 846 q 1285 931 1251 891 q 1354 1038 1320 972 l 1330 1068 q 1243 1042 1286 1050 q 1157 1035 1200 1035 q 1043 1047 1100 1035 q 931 1075 987 1060 q 820 1103 875 1090 q 711 1116 765 1116 q 637 1109 674 1116 q 565 1079 601 1101 q 495 1017 530 1057 q 427 910 460 976 m 77 355 q 135 184 77 257 q 301 64 194 112 q 558 -7 408 16 q 891 -31 708 -31 q 1224 -7 1074 -31 q 1481 64 1374 16 q 1646 184 1588 112 q 1705 355 1705 257 q 1646 526 1705 453 q 1481 647 1588 599 q 1224 718 1374 694 q 891 741 1074 741 q 558 718 708 741 q 301 647 408 694 q 135 526 194 599 q 77 355 77 453 m 753 355 q 762 476 753 418 q 790 576 772 533 q 833 646 808 620 q 891 671 859 671 q 948 646 923 671 q 992 576 974 620 q 1019 476 1010 533 q 1029 355 1029 418 q 1019 235 1029 292 q 992 135 1010 178 q 948 66 974 92 q 891 41 923 41 q 833 66 859 41 q 790 135 808 92 q 762 235 772 178 q 753 355 753 292 "}}}
